<?xml version="1.0" encoding="utf-8" standalone="no"?>
<!DOCTYPE svg PUBLIC "-//W3C//DTD SVG 1.1//EN"
  "http://www.w3.org/Graphics/SVG/1.1/DTD/svg11.dtd">
<!-- Created with matplotlib (http://matplotlib.org/) -->
<svg height="432pt" version="1.1" viewBox="0 0 576 432" width="576pt" xmlns="http://www.w3.org/2000/svg" xmlns:xlink="http://www.w3.org/1999/xlink">
 <defs>
  <style type="text/css">
*{stroke-linecap:butt;stroke-linejoin:round;}
  </style>
 </defs>
 <g id="figure_1">
  <g id="patch_1">
   <path d="
M0 432
L576 432
L576 0
L0 0
z
" style="fill:#ffffff;"/>
  </g>
  <g id="axes_1">
   <g id="patch_2">
    <path d="
M72 388.8
L518.4 388.8
L518.4 43.2
L72 43.2
z
" style="fill:#ffffff;"/>
   </g>
   <g id="PolyCollection_1">
    <defs>
     <path d="
M72 -244.068
L72 -231.149
L72.6027 -237.822
L73.2054 -234.432
L73.8081 -236.362
L74.4108 -235.973
L75.0135 -236.363
L75.6162 -235.743
L76.2189 -235.6
L76.8216 -234.186
L77.4243 -235.04
L78.027 -234.011
L78.6297 -236.024
L79.2325 -234.79
L79.8352 -234.766
L80.4379 -236.39
L81.0406 -236.213
L81.6433 -236.185
L82.246 -234.829
L82.8487 -237.206
L83.4514 -235.127
L84.0541 -235.929
L84.6568 -236.225
L85.2595 -236.617
L85.8622 -236.696
L86.4649 -235.568
L87.0676 -235.977
L87.6703 -236.448
L88.273 -237.054
L88.8757 -236.68
L89.4784 -236.833
L90.0811 -236.033
L90.6838 -235.201
L91.2865 -235.782
L91.8892 -235.814
L92.4919 -237.683
L93.0946 -236.245
L93.6973 -235.565
L94.3 -236.922
L94.9027 -236.093
L95.5054 -236.281
L96.1081 -235.889
L96.7108 -235.617
L97.3135 -236.943
L97.9162 -235.718
L98.5189 -236.219
L99.1216 -235.863
L99.7243 -235.889
L100.327 -236.201
L100.93 -236.081
L101.532 -236.647
L102.135 -235.623
L102.738 -235.898
L103.341 -236.318
L103.943 -236.37
L104.546 -236.152
L105.149 -235.887
L105.751 -235.979
L106.354 -236.828
L106.957 -236.034
L107.559 -235.787
L108.162 -236.556
L108.765 -236.095
L109.368 -236.539
L109.97 -236.197
L110.573 -235.532
L111.176 -235.829
L111.778 -236.466
L112.381 -235.552
L112.984 -235.071
L113.586 -236.563
L114.189 -236.283
L114.792 -235.983
L115.394 -236.387
L115.997 -236.351
L116.6 -236.427
L117.203 -236.785
L117.805 -236.521
L118.408 -236.141
L119.011 -235.914
L119.613 -235.78
L120.216 -235.89
L120.819 -236.105
L121.421 -236.064
L122.024 -235.597
L122.627 -236.137
L123.229 -236.609
L123.832 -236.255
L124.435 -236.267
L125.038 -236.371
L125.64 -235.909
L126.243 -236.476
L126.846 -235.927
L127.448 -236.513
L128.051 -236.891
L128.654 -236.329
L129.256 -236.995
L129.859 -236.669
L130.462 -236.238
L131.064 -236.789
L131.667 -235.611
L132.27 -236.149
L132.872 -236.457
L133.475 -236.388
L134.078 -236.645
L134.68 -235.847
L135.283 -236.307
L135.886 -236.395
L136.489 -235.99
L137.091 -236.217
L137.694 -236.814
L138.297 -236.559
L138.899 -235.662
L139.502 -236.023
L140.105 -235.797
L140.707 -235.821
L141.31 -236.201
L141.913 -236.067
L142.515 -236.138
L143.118 -235.904
L143.721 -235.447
L144.323 -235.855
L144.926 -235.801
L145.529 -235.429
L146.131 -235.526
L146.734 -235.635
L147.337 -235.887
L147.939 -235.609
L148.542 -235.199
L149.145 -235.71
L149.747 -235.117
L150.35 -235.29
L150.953 -235.199
L151.555 -234.345
L152.158 -234.497
L152.761 -235.343
L153.363 -234.674
L153.966 -234.689
L154.569 -235.837
L155.171 -235.493
L155.774 -235.435
L156.377 -235.376
L156.979 -235.007
L157.582 -235.343
L158.185 -235.21
L158.787 -235.216
L159.39 -235.524
L159.993 -235.278
L160.595 -235.179
L161.198 -235.667
L161.801 -235.916
L162.403 -235.471
L163.006 -235.228
L163.609 -235.133
L164.211 -235.042
L164.814 -235.318
L165.417 -235.338
L166.019 -235.047
L166.622 -235.793
L167.225 -235.206
L167.827 -235.092
L168.43 -235.556
L169.033 -234.492
L169.635 -235.114
L170.238 -235.137
L170.841 -235.199
L171.443 -234.823
L172.046 -234.619
L172.648 -235.587
L173.251 -234.751
L173.854 -234.656
L174.456 -234.417
L175.059 -234.926
L175.662 -235.07
L176.264 -234.713
L176.867 -235.119
L177.47 -235.141
L178.072 -235.384
L178.675 -234.738
L179.278 -234.962
L179.88 -234.8
L180.483 -234.627
L181.085 -234.424
L181.688 -234.593
L182.291 -234.688
L182.893 -235.141
L183.496 -234.707
L184.099 -234.953
L184.701 -234.636
L185.304 -234.281
L185.907 -234.409
L186.509 -234.668
L187.112 -234.597
L187.714 -234.953
L188.317 -234.974
L188.92 -234.665
L189.522 -234.386
L190.125 -234.074
L190.728 -234.327
L191.33 -234.373
L191.933 -234.187
L192.535 -234.351
L193.138 -234.745
L193.741 -234.702
L194.343 -234.766
L194.946 -234.223
L195.549 -234.872
L196.151 -234.714
L196.754 -234.639
L197.356 -234.402
L197.959 -234.335
L198.562 -234.273
L199.164 -234.071
L199.767 -234.215
L200.369 -234.2
L200.972 -234.287
L201.575 -234.081
L202.177 -234.16
L202.78 -234.309
L203.382 -233.942
L203.985 -234.104
L204.588 -234.124
L205.19 -233.668
L205.793 -234.102
L206.395 -233.6
L206.998 -234.034
L207.601 -234.101
L208.203 -234.02
L208.806 -234.212
L209.408 -233.603
L210.011 -233.415
L210.614 -233.909
L211.216 -233.986
L211.819 -233.98
L212.421 -233.612
L213.024 -233.652
L213.627 -233.145
L214.229 -233.838
L214.832 -233.404
L215.434 -233.143
L216.037 -232.988
L216.64 -233.344
L217.242 -233.55
L217.845 -233.44
L218.447 -233.445
L219.05 -233.591
L219.652 -233.534
L220.255 -233.236
L220.858 -233.599
L221.46 -233.189
L222.063 -233.067
L222.665 -232.88
L223.268 -233.176
L223.871 -233.131
L224.473 -232.994
L225.076 -233.014
L225.678 -233.154
L226.281 -233.275
L226.883 -233.267
L227.486 -232.783
L228.089 -233.052
L228.691 -232.79
L229.294 -233.272
L229.896 -232.801
L230.499 -232.804
L231.101 -232.695
L231.704 -232.596
L232.306 -232.983
L232.909 -231.987
L233.512 -232.681
L234.114 -232.821
L234.717 -232.332
L235.319 -232.426
L235.922 -232.429
L236.524 -232.305
L237.127 -232.361
L237.729 -232.057
L238.332 -232.015
L238.935 -231.758
L239.537 -231.496
L240.14 -232.07
L240.742 -231.677
L241.345 -232.138
L241.947 -231.927
L242.55 -232.037
L243.152 -232.028
L243.755 -231.564
L244.357 -232.177
L244.96 -231.882
L245.562 -231.524
L246.165 -231.528
L246.768 -231.548
L247.37 -231.381
L247.973 -231.341
L248.575 -231.3
L249.178 -231.214
L249.78 -231.233
L250.383 -231.135
L250.985 -231.398
L251.588 -231.344
L252.19 -231.214
L252.793 -231.484
L253.395 -231.274
L253.998 -231.264
L254.6 -231.876
L255.203 -231.694
L255.805 -231.566
L256.408 -231.236
L257.01 -231.521
L257.613 -231.732
L258.215 -231.399
L258.818 -231.316
L259.42 -231.346
L260.023 -231.051
L260.625 -231.477
L261.228 -231.295
L261.83 -231.252
L262.433 -231.084
L263.035 -230.539
L263.638 -231.125
L264.24 -230.753
L264.843 -230.746
L265.445 -231.014
L266.048 -231.056
L266.65 -230.814
L267.253 -230.699
L267.855 -230.964
L268.458 -230.822
L269.06 -231.086
L269.663 -230.833
L270.265 -230.36
L270.868 -230.011
L271.47 -230.236
L272.073 -229.611
L272.675 -229.622
L273.278 -229.503
L273.88 -229.709
L274.483 -229.586
L275.085 -229.704
L275.688 -229.679
L276.29 -228.959
L276.893 -229.07
L277.495 -228.465
L278.097 -228.854
L278.7 -228.95
L279.302 -228.1
L279.905 -228.513
L280.507 -228.67
L281.11 -228.604
L281.712 -229.011
L282.315 -228.833
L282.917 -228.81
L283.52 -228.978
L284.122 -228.979
L284.724 -228.443
L285.327 -228.521
L285.929 -228.851
L286.532 -228.604
L287.134 -228.65
L287.737 -228.848
L288.339 -228.495
L288.942 -228.379
L289.544 -228.21
L290.146 -228.363
L290.749 -228.271
L291.351 -228.32
L291.954 -227.848
L292.556 -228.266
L293.159 -227.854
L293.761 -227.645
L294.363 -227.074
L294.966 -227.188
L295.568 -227.216
L296.171 -227.059
L296.773 -227.236
L297.376 -227.388
L297.978 -227.16
L298.58 -227.033
L299.183 -226.96
L299.785 -226.677
L300.388 -226.511
L300.99 -226.873
L301.592 -226.542
L302.195 -226.441
L302.797 -227.206
L303.4 -227.739
L304.002 -227.891
L304.604 -227.915
L305.207 -227.637
L305.809 -227.963
L306.412 -228.234
L307.014 -228.475
L307.616 -228.526
L308.219 -228.507
L308.821 -228.404
L309.424 -228.567
L310.026 -228.563
L310.628 -228.495
L311.231 -228.519
L311.833 -228.858
L312.435 -228.937
L313.038 -229.077
L313.64 -228.887
L314.243 -228.831
L314.845 -228.876
L315.447 -228.921
L316.05 -229.06
L316.652 -228.739
L317.254 -229.644
L317.857 -229.24
L318.459 -229.464
L319.061 -228.836
L319.664 -229.39
L320.266 -229.477
L320.869 -229.492
L321.471 -229.929
L322.073 -229.513
L322.676 -229.773
L323.278 -229.685
L323.88 -229.676
L324.483 -229.43
L325.085 -230.025
L325.687 -229.714
L326.29 -229.877
L326.892 -229.764
L327.494 -229.489
L328.097 -230.462
L328.699 -230.504
L329.301 -230.976
L329.904 -230.681
L330.506 -231.404
L331.108 -231.552
L331.711 -232.308
L332.313 -232.457
L332.915 -232.465
L333.518 -231.94
L334.12 -231.585
L334.722 -231.734
L335.325 -232.846
L335.927 -232.874
L336.529 -232.236
L337.131 -232.816
L337.734 -233.279
L338.336 -233.563
L338.938 -234.055
L339.541 -233.953
L340.143 -233.936
L340.745 -233.816
L341.348 -233.907
L341.95 -233.58
L342.552 -233.947
L343.154 -234.509
L343.757 -233.55
L344.359 -233.383
L344.961 -233.268
L345.564 -233.595
L346.166 -232.97
L346.768 -232.753
L347.37 -233.385
L347.973 -233.23
L348.575 -233.55
L349.177 -233.372
L349.779 -233.293
L350.382 -233.415
L350.984 -233.605
L351.586 -233.052
L352.188 -233.494
L352.791 -233.681
L353.393 -233.775
L353.995 -233.374
L354.598 -233.568
L355.2 -234.053
L355.802 -233.807
L356.404 -233.439
L357.006 -233.995
L357.609 -233.535
L358.211 -233.883
L358.813 -234.067
L359.415 -233.901
L360.018 -233.544
L360.62 -233.435
L361.222 -234.057
L361.824 -233.698
L362.427 -233.787
L363.029 -234.147
L363.631 -233.95
L364.233 -234.005
L364.835 -234.194
L365.438 -233.511
L366.04 -233.216
L366.642 -233.658
L367.244 -234.259
L367.847 -234.363
L368.449 -233.831
L369.051 -234.312
L369.653 -234.341
L370.255 -233.871
L370.858 -234.498
L371.46 -234.52
L372.062 -234.859
L372.664 -234.504
L373.266 -234.419
L373.869 -234.726
L374.471 -235.246
L375.073 -234.619
L375.675 -234.796
L376.277 -234.776
L376.879 -234.075
L377.482 -233.967
L378.084 -233.231
L378.686 -233.575
L379.288 -233.264
L379.89 -233.075
L380.492 -233.082
L381.095 -232.797
L381.697 -232.874
L382.299 -232.001
L382.901 -231.455
L383.503 -231.066
L384.105 -230.236
L384.708 -230.368
L385.31 -229.544
L385.912 -228.574
L386.514 -227.965
L387.116 -226.461
L387.718 -224.978
L388.32 -223.448
L388.923 -220.732
L389.525 -217.998
L390.127 -216.199
L390.729 -211.754
L391.331 -209.392
L391.933 -205.204
L392.535 -197.462
L393.137 -185.255
L393.74 -171.84
L394.342 -148.699
L394.944 -88.2257
L395.546 -43.2
L396.148 -43.2
L396.75 -43.2
L397.352 -43.2
L397.954 -43.2
L398.556 -43.2
L399.158 -43.2
L399.761 -43.2
L400.363 -43.2
L400.965 -43.2
L401.567 -43.2
L402.169 -43.2
L402.771 -43.2
L403.373 -43.2
L403.975 -43.2
L404.577 -43.2
L405.179 -204.271
L405.781 -222.336
L406.383 -229.806
L406.986 -232.754
L407.588 -233.737
L408.19 -234.625
L408.792 -234.761
L409.394 -235.373
L409.996 -235.1
L410.598 -235.508
L411.2 -235.117
L411.802 -235.158
L412.404 -235.35
L413.006 -235.898
L413.608 -235.718
L414.21 -235.398
L414.812 -235.467
L415.414 -235.727
L416.016 -236.289
L416.618 -235.552
L417.22 -235.881
L417.822 -235.871
L418.424 -235.898
L419.026 -235.46
L419.628 -235.37
L420.23 -235.09
L420.832 -235.432
L421.435 -235.701
L422.037 -235.485
L422.639 -235.593
L423.241 -235.434
L423.843 -235.535
L424.445 -235.979
L425.047 -235.162
L425.649 -235.906
L426.251 -235.197
L426.853 -235.292
L427.454 -235.585
L428.056 -235.113
L428.658 -234.597
L429.26 -235.653
L429.862 -235.169
L430.464 -235.216
L431.066 -235.421
L431.668 -235.034
L432.27 -234.836
L432.872 -235.125
L433.474 -235.119
L434.076 -235.238
L434.678 -235.637
L435.28 -235.554
L435.882 -235.487
L436.484 -235.889
L437.086 -236.642
L437.688 -236.047
L438.29 -236.519
L438.892 -236.153
L439.494 -236.813
L440.096 -236.537
L440.698 -236.928
L441.3 -237.018
L441.901 -237.128
L442.503 -236.716
L443.105 -237.289
L443.707 -236.348
L444.309 -236.954
L444.911 -237.066
L445.513 -236.754
L446.115 -236.719
L446.717 -237.245
L447.319 -237.238
L447.921 -237.75
L448.523 -237.627
L449.124 -237.689
L449.726 -237.529
L450.328 -237.866
L450.93 -238.282
L451.532 -238.76
L452.134 -239.244
L452.736 -239.007
L453.338 -238.322
L453.939 -238.891
L454.541 -238.878
L455.143 -239.87
L455.745 -240.236
L456.347 -239.891
L456.949 -239.971
L457.551 -239.983
L458.153 -240.766
L458.754 -240.725
L459.356 -241.075
L459.958 -240.4
L460.56 -241.499
L461.162 -241.489
L461.764 -241.502
L462.365 -241.867
L462.967 -242.063
L463.569 -242.952
L464.171 -242.664
L464.773 -242.69
L465.375 -243.93
L465.976 -243.391
L466.578 -244.024
L467.18 -244.825
L467.782 -244.435
L468.384 -243.985
L468.986 -245.68
L469.587 -245.659
L470.189 -246.205
L470.791 -246.506
L471.393 -247.771
L471.995 -247.554
L472.596 -247.962
L473.198 -248.334
L473.8 -250.227
L474.402 -249.917
L475.004 -251.281
L475.605 -251.606
L476.207 -251.841
L476.809 -251.794
L477.411 -251.527
L478.012 -252.439
L478.614 -250.421
L479.216 -251.324
L479.818 -251.756
L480.419 -251.618
L481.021 -252.638
L481.623 -252.144
L482.225 -252.136
L482.826 -252.479
L483.428 -252.561
L484.03 -251.736
L484.632 -252.516
L485.233 -251.883
L485.835 -252.905
L486.437 -252.97
L487.039 -252.149
L487.64 -251.645
L488.242 -252.982
L488.844 -252.042
L489.445 -253.1
L490.047 -253.259
L490.649 -252.063
L491.251 -252.308
L491.852 -252.688
L492.454 -252.447
L493.056 -252.56
L493.657 -252.134
L494.259 -250.502
L494.861 -251.206
L495.462 -252.662
L496.064 -252.311
L496.666 -252.614
L497.268 -253.629
L497.869 -251.796
L498.471 -251.36
L499.073 -252.154
L499.674 -251.792
L500.276 -250.783
L500.878 -251.412
L501.479 -252.414
L502.081 -250.845
L502.682 -251.782
L503.284 -251.143
L503.886 -251.657
L504.487 -251.155
L505.089 -249.407
L505.691 -252.485
L506.292 -252.125
L506.894 -252.344
L507.496 -252.595
L508.097 -252.055
L508.699 -252.604
L509.3 -251.466
L509.902 -250.443
L510.504 -249.2
L511.105 -251.888
L511.707 -249.315
L512.309 -250.203
L512.91 -252.07
L513.512 -252.374
L514.113 -251.063
L514.715 -251.4
L515.316 -252.498
L515.918 -253.89
L516.52 -251.422
L517.121 -250.138
L517.723 -241.597
L517.723 -251.591
L517.723 -251.591
L517.121 -257.834
L516.52 -259.042
L515.918 -260.744
L515.316 -261.742
L514.715 -260.019
L514.113 -261.48
L513.512 -262.92
L512.91 -263.33
L512.309 -260.732
L511.707 -261.358
L511.105 -261.497
L510.504 -262.809
L509.902 -262.341
L509.3 -261.405
L508.699 -262.024
L508.097 -261.299
L507.496 -263.282
L506.894 -263.345
L506.292 -263.495
L505.691 -263.443
L505.089 -262.33
L504.487 -263.025
L503.886 -264.006
L503.284 -262.621
L502.682 -263.29
L502.081 -263.146
L501.479 -264.201
L500.878 -264.521
L500.276 -263.358
L499.674 -264.61
L499.073 -264.817
L498.471 -263.729
L497.869 -263.797
L497.268 -264.196
L496.666 -263.903
L496.064 -264.318
L495.462 -264.41
L494.861 -264.744
L494.259 -263.855
L493.657 -264.372
L493.056 -264.657
L492.454 -264.568
L491.852 -264.732
L491.251 -264.379
L490.649 -264.21
L490.047 -264.588
L489.445 -265.525
L488.844 -264.155
L488.242 -264.172
L487.64 -264.664
L487.039 -264.783
L486.437 -266.005
L485.835 -266.096
L485.233 -265.381
L484.632 -265.576
L484.03 -265.696
L483.428 -265.982
L482.826 -265.409
L482.225 -264.82
L481.623 -266.325
L481.021 -265.915
L480.419 -265.509
L479.818 -266.966
L479.216 -265.816
L478.614 -265.895
L478.012 -266.79
L477.411 -265.736
L476.809 -265.81
L476.207 -265.64
L475.605 -265.656
L475.004 -265.529
L474.402 -266.443
L473.8 -266.371
L473.198 -265.175
L472.596 -265.982
L471.995 -266.724
L471.393 -266.208
L470.791 -265.863
L470.189 -265.222
L469.587 -265.122
L468.986 -265.269
L468.384 -265.788
L467.782 -265.806
L467.18 -265.929
L466.578 -264.88
L465.976 -265.057
L465.375 -265.826
L464.773 -265.276
L464.171 -265.538
L463.569 -265.417
L462.967 -265.286
L462.365 -265.369
L461.764 -265.086
L461.162 -264.88
L460.56 -265.246
L459.958 -265.147
L459.356 -265.249
L458.754 -264.361
L458.153 -264.936
L457.551 -264.684
L456.949 -264.356
L456.347 -264.377
L455.745 -264.75
L455.143 -264.071
L454.541 -263.601
L453.939 -263.842
L453.338 -264.475
L452.736 -264.367
L452.134 -263.701
L451.532 -263.892
L450.93 -263.351
L450.328 -263.5
L449.726 -263.48
L449.124 -263.792
L448.523 -263.445
L447.921 -263.477
L447.319 -263.383
L446.717 -262.932
L446.115 -263.15
L445.513 -263.107
L444.911 -262.673
L444.309 -263.352
L443.707 -263.512
L443.105 -263.27
L442.503 -262.41
L441.901 -262.965
L441.3 -262.642
L440.698 -262.434
L440.096 -261.906
L439.494 -262.483
L438.892 -262.131
L438.29 -262.621
L437.688 -262.027
L437.086 -261.867
L436.484 -261.843
L435.882 -262.141
L435.28 -261.255
L434.678 -260.638
L434.076 -260.698
L433.474 -260.99
L432.872 -261.001
L432.27 -261.217
L431.668 -260.791
L431.066 -261.357
L430.464 -261.265
L429.862 -261.026
L429.26 -261.22
L428.658 -261.124
L428.056 -260.902
L427.454 -261.124
L426.853 -261.426
L426.251 -261.514
L425.649 -261.491
L425.047 -261.496
L424.445 -261.789
L423.843 -261.507
L423.241 -261.882
L422.639 -261.735
L422.037 -261.759
L421.435 -261.889
L420.832 -261.765
L420.23 -261.922
L419.628 -262.284
L419.026 -262.066
L418.424 -262.173
L417.822 -262.28
L417.22 -262.315
L416.618 -262.439
L416.016 -262.309
L415.414 -262.459
L414.812 -262.466
L414.21 -263.007
L413.608 -262.744
L413.006 -262.746
L412.404 -262.78
L411.802 -263.022
L411.2 -263.118
L410.598 -263.521
L409.996 -264.579
L409.394 -264.413
L408.792 -264.899
L408.19 -265.47
L407.588 -266.205
L406.986 -267.497
L406.383 -269.5
L405.781 -273.467
L405.179 -280.776
L404.577 -296.424
L403.975 -312.667
L403.373 -340.155
L402.771 -347.996
L402.169 -351.229
L401.567 -351.277
L400.965 -347.579
L400.363 -341.4
L399.761 -334.213
L399.158 -330.255
L398.556 -322.871
L397.954 -317.724
L397.352 -313.312
L396.75 -308.348
L396.148 -304.416
L395.546 -300.875
L394.944 -297.241
L394.342 -294.685
L393.74 -291.823
L393.137 -289.103
L392.535 -286.966
L391.933 -284.79
L391.331 -283.172
L390.729 -282.298
L390.127 -280.31
L389.525 -278.541
L388.923 -277.449
L388.32 -276.22
L387.718 -275.545
L387.116 -274.297
L386.514 -273.397
L385.912 -272.321
L385.31 -271.655
L384.708 -270.946
L384.105 -270.383
L383.503 -269.997
L382.901 -268.847
L382.299 -268.944
L381.697 -268.371
L381.095 -267.517
L380.492 -267.167
L379.89 -266.798
L379.288 -266.987
L378.686 -266.001
L378.084 -266.088
L377.482 -265.728
L376.879 -265.941
L376.277 -265.112
L375.675 -264.959
L375.073 -264.867
L374.471 -264.867
L373.869 -264.422
L373.266 -264.369
L372.664 -263.948
L372.062 -264.015
L371.46 -263.635
L370.858 -263.572
L370.255 -263.684
L369.653 -263.518
L369.051 -263.143
L368.449 -263.08
L367.847 -262.768
L367.244 -263.078
L366.642 -262.855
L366.04 -263.114
L365.438 -262.595
L364.835 -262.78
L364.233 -262.32
L363.631 -262.564
L363.029 -262.471
L362.427 -262.032
L361.824 -262.259
L361.222 -262.183
L360.62 -261.96
L360.018 -261.625
L359.415 -261.703
L358.813 -262.025
L358.211 -261.906
L357.609 -262.152
L357.006 -262.021
L356.404 -262.255
L355.802 -261.684
L355.2 -261.262
L354.598 -260.83
L353.995 -261.285
L353.393 -261.693
L352.791 -261.128
L352.188 -261.56
L351.586 -260.533
L350.984 -260.394
L350.382 -260.614
L349.779 -260.394
L349.177 -260.492
L348.575 -260.62
L347.973 -260.686
L347.37 -260.685
L346.768 -260.641
L346.166 -260.461
L345.564 -260.134
L344.961 -260.296
L344.359 -260.123
L343.757 -260.053
L343.154 -259.771
L342.552 -260.017
L341.95 -259.602
L341.348 -259.788
L340.745 -259.877
L340.143 -259.64
L339.541 -259.328
L338.938 -259.418
L338.336 -259.341
L337.734 -258.977
L337.131 -258.724
L336.529 -258.815
L335.927 -258.952
L335.325 -258.854
L334.722 -258.765
L334.12 -258.591
L333.518 -258.293
L332.915 -258.416
L332.313 -258.374
L331.711 -258.073
L331.108 -258.33
L330.506 -258.297
L329.904 -257.919
L329.301 -257.865
L328.699 -257.928
L328.097 -257.868
L327.494 -257.506
L326.892 -257.63
L326.29 -257.59
L325.687 -257.343
L325.085 -257.263
L324.483 -257.036
L323.88 -257.252
L323.278 -256.924
L322.676 -257.086
L322.073 -256.967
L321.471 -256.573
L320.869 -256.416
L320.266 -256.658
L319.664 -256.59
L319.061 -256.395
L318.459 -256.332
L317.857 -255.898
L317.254 -256.046
L316.652 -256.182
L316.05 -255.955
L315.447 -256.111
L314.845 -255.791
L314.243 -256.225
L313.64 -256.007
L313.038 -255.97
L312.435 -255.515
L311.833 -255.407
L311.231 -255.281
L310.628 -255.316
L310.026 -255.401
L309.424 -255.434
L308.821 -255.086
L308.219 -255.031
L307.616 -255.036
L307.014 -254.946
L306.412 -254.546
L305.809 -254.563
L305.207 -254.721
L304.604 -254.706
L304.002 -254.449
L303.4 -254.099
L302.797 -254.101
L302.195 -253.939
L301.592 -253.785
L300.99 -253.871
L300.388 -253.259
L299.785 -253.641
L299.183 -253.558
L298.58 -253.718
L297.978 -253.585
L297.376 -253.688
L296.773 -253.274
L296.171 -253.044
L295.568 -253.289
L294.966 -253.377
L294.363 -253.197
L293.761 -253.217
L293.159 -253.197
L292.556 -253.696
L291.954 -253.508
L291.351 -253.116
L290.749 -252.755
L290.146 -253.038
L289.544 -252.965
L288.942 -252.976
L288.339 -252.707
L287.737 -252.594
L287.134 -252.343
L286.532 -252.606
L285.929 -252.544
L285.327 -252.332
L284.724 -252.215
L284.122 -252.231
L283.52 -252.323
L282.917 -252.175
L282.315 -252.327
L281.712 -251.9
L281.11 -251.654
L280.507 -251.483
L279.905 -250.978
L279.302 -250.978
L278.7 -251.122
L278.097 -251.717
L277.495 -251.273
L276.893 -250.814
L276.29 -251.19
L275.688 -251.354
L275.085 -251.575
L274.483 -251.684
L273.88 -251.522
L273.278 -251.481
L272.675 -251.717
L272.073 -251.759
L271.47 -252.109
L270.868 -251.827
L270.265 -252.204
L269.663 -252.491
L269.06 -252.76
L268.458 -252.537
L267.855 -252.672
L267.253 -252.582
L266.65 -252.308
L266.048 -252.443
L265.445 -252.234
L264.843 -252.107
L264.24 -252.264
L263.638 -252.12
L263.035 -251.855
L262.433 -252.164
L261.83 -252.251
L261.228 -252.258
L260.625 -252.316
L260.023 -252.499
L259.42 -252.634
L258.818 -252.278
L258.215 -252.36
L257.613 -251.911
L257.01 -251.816
L256.408 -252.047
L255.805 -252.256
L255.203 -252.037
L254.6 -251.953
L253.998 -252.008
L253.395 -252.106
L252.793 -252.191
L252.19 -251.696
L251.588 -251.535
L250.985 -251.706
L250.383 -251.849
L249.78 -251.496
L249.178 -251.213
L248.575 -251.244
L247.973 -251.106
L247.37 -251.318
L246.768 -251.169
L246.165 -250.975
L245.562 -251.046
L244.96 -251.253
L244.357 -251.634
L243.755 -251.335
L243.152 -251.437
L242.55 -251.477
L241.947 -251.084
L241.345 -251.23
L240.742 -251.004
L240.14 -251.261
L239.537 -251.284
L238.935 -251.268
L238.332 -251.28
L237.729 -251.014
L237.127 -251.197
L236.524 -250.88
L235.922 -250.857
L235.319 -251.137
L234.717 -251.218
L234.114 -251.311
L233.512 -251.262
L232.909 -251.39
L232.306 -251.269
L231.704 -250.979
L231.101 -251.024
L230.499 -251.249
L229.896 -251.12
L229.294 -251.259
L228.691 -250.877
L228.089 -251.503
L227.486 -250.811
L226.883 -251.131
L226.281 -250.885
L225.678 -251.161
L225.076 -251.257
L224.473 -250.663
L223.871 -251.146
L223.268 -250.826
L222.665 -250.981
L222.063 -250.944
L221.46 -251.176
L220.858 -250.976
L220.255 -250.873
L219.652 -250.997
L219.05 -251.138
L218.447 -251.278
L217.845 -251.09
L217.242 -251.044
L216.64 -250.772
L216.037 -250.743
L215.434 -251.08
L214.832 -250.885
L214.229 -250.985
L213.627 -250.715
L213.024 -250.78
L212.421 -250.728
L211.819 -250.755
L211.216 -250.81
L210.614 -250.847
L210.011 -250.767
L209.408 -250.795
L208.806 -251.246
L208.203 -251.135
L207.601 -250.8
L206.998 -250.774
L206.395 -250.774
L205.793 -250.951
L205.19 -251.056
L204.588 -250.829
L203.985 -250.845
L203.382 -250.899
L202.78 -250.862
L202.177 -250.891
L201.575 -250.756
L200.972 -250.695
L200.369 -250.741
L199.767 -251.212
L199.164 -250.886
L198.562 -250.736
L197.959 -250.816
L197.356 -250.67
L196.754 -251.259
L196.151 -250.888
L195.549 -251.008
L194.946 -251.071
L194.343 -250.713
L193.741 -250.734
L193.138 -250.68
L192.535 -250.595
L191.933 -250.836
L191.33 -250.799
L190.728 -250.533
L190.125 -250.639
L189.522 -251.156
L188.92 -251.016
L188.317 -250.789
L187.714 -250.945
L187.112 -250.893
L186.509 -250.809
L185.907 -250.519
L185.304 -250.587
L184.701 -250.64
L184.099 -250.399
L183.496 -250.513
L182.893 -250.563
L182.291 -250.511
L181.688 -250.611
L181.085 -250.518
L180.483 -250.571
L179.88 -250.891
L179.278 -250.656
L178.675 -250.619
L178.072 -250.625
L177.47 -250.826
L176.867 -250.655
L176.264 -250.906
L175.662 -250.791
L175.059 -250.937
L174.456 -250.331
L173.854 -250.637
L173.251 -250.389
L172.648 -250.692
L172.046 -250.515
L171.443 -250.615
L170.841 -250.103
L170.238 -250.177
L169.635 -250.167
L169.033 -249.825
L168.43 -250.618
L167.827 -250.082
L167.225 -250.124
L166.622 -250.706
L166.019 -250.048
L165.417 -250.097
L164.814 -250.253
L164.211 -250.56
L163.609 -250.259
L163.006 -250.027
L162.403 -249.833
L161.801 -250.044
L161.198 -250.365
L160.595 -250.156
L159.993 -250.321
L159.39 -250.336
L158.787 -250.038
L158.185 -249.991
L157.582 -250.124
L156.979 -250.263
L156.377 -250.237
L155.774 -249.533
L155.171 -249.654
L154.569 -249.793
L153.966 -249.936
L153.363 -249.501
L152.761 -249.653
L152.158 -249.352
L151.555 -249.428
L150.953 -249.62
L150.35 -249.675
L149.747 -249.276
L149.145 -249.62
L148.542 -249.803
L147.939 -250.253
L147.337 -249.764
L146.734 -249.41
L146.131 -249.962
L145.529 -249.795
L144.926 -249.297
L144.323 -249.846
L143.721 -250.374
L143.118 -249.776
L142.515 -249.642
L141.913 -249.684
L141.31 -249.82
L140.707 -250.683
L140.105 -250.666
L139.502 -250.024
L138.899 -250.178
L138.297 -250.429
L137.694 -250.133
L137.091 -249.908
L136.489 -249.985
L135.886 -249.654
L135.283 -249.736
L134.68 -249.786
L134.078 -250.073
L133.475 -250.365
L132.872 -249.883
L132.27 -250.422
L131.667 -249.934
L131.064 -250.345
L130.462 -250.227
L129.859 -250.147
L129.256 -250.373
L128.654 -250.515
L128.051 -250.809
L127.448 -250.457
L126.846 -250.363
L126.243 -250.336
L125.64 -249.955
L125.038 -250.317
L124.435 -250.099
L123.832 -249.853
L123.229 -250.291
L122.627 -249.788
L122.024 -249.501
L121.421 -249.605
L120.819 -249.338
L120.216 -249.677
L119.613 -249.624
L119.011 -249.649
L118.408 -249.748
L117.805 -249.897
L117.203 -249.626
L116.6 -249.375
L115.997 -249.682
L115.394 -249.79
L114.792 -249.639
L114.189 -249.819
L113.586 -249.73
L112.984 -250.03
L112.381 -250.267
L111.778 -250.309
L111.176 -250.528
L110.573 -249.858
L109.97 -249.516
L109.368 -249.614
L108.765 -248.855
L108.162 -249.975
L107.559 -249.446
L106.957 -250.255
L106.354 -249.829
L105.751 -249.174
L105.149 -249.51
L104.546 -249.7
L103.943 -249.773
L103.341 -250.052
L102.738 -250.021
L102.135 -249.868
L101.532 -250.027
L100.93 -249.355
L100.327 -249.757
L99.7243 -250.023
L99.1216 -249.167
L98.5189 -249.309
L97.9162 -249.187
L97.3135 -249.735
L96.7108 -249.841
L96.1081 -249.361
L95.5054 -249.303
L94.9027 -249.935
L94.3 -249.347
L93.6973 -249.899
L93.0946 -249.703
L92.4919 -249.952
L91.8892 -249.132
L91.2865 -248.814
L90.6838 -249.263
L90.0811 -249.298
L89.4784 -250.75
L88.8757 -249.489
L88.273 -249.409
L87.6703 -249.789
L87.0676 -249.394
L86.4649 -249.456
L85.8622 -249.29
L85.2595 -249.928
L84.6568 -249.708
L84.0541 -248.621
L83.4514 -248.901
L82.8487 -249.766
L82.246 -249.058
L81.6433 -249.75
L81.0406 -249.352
L80.4379 -249.098
L79.8352 -248.402
L79.2325 -248.823
L78.6297 -248.886
L78.027 -248.437
L77.4243 -250.475
L76.8216 -249.075
L76.2189 -249.009
L75.6162 -248.26
L75.0135 -248.352
L74.4108 -249.427
L73.8081 -248.981
L73.2054 -250.442
L72.6027 -249.529
L72 -244.068
z
" id="C0_0_7e72215bc6"/>
    </defs>
    <g clip-path="url(#p7ff5b81e1d)">
     <use style="fill:#ffff00;fill-opacity:0.5;" x="0.0" xlink:href="#C0_0_7e72215bc6" y="432.0"/>
    </g>
   </g>
   <g id="PolyCollection_2">
    <defs>
     <path d="
M72 -242.57
L72 -233.023
L72.6027 -241.724
L73.2054 -241.348
L73.8081 -241.565
L74.4108 -241.852
L75.0135 -241.515
L75.6162 -241.313
L76.2189 -241.76
L76.8216 -241.214
L77.4243 -242.458
L78.027 -240.864
L78.6297 -242.076
L79.2325 -241.506
L79.8352 -241.298
L80.4379 -242.426
L81.0406 -242.497
L81.6433 -242.768
L82.246 -241.78
L82.8487 -243.258
L83.4514 -241.856
L84.0541 -242.066
L84.6568 -242.829
L85.2595 -243.145
L85.8622 -242.823
L86.4649 -242.427
L87.0676 -242.589
L87.6703 -243.033
L88.273 -243.101
L88.8757 -242.979
L89.4784 -243.781
L90.0811 -242.601
L90.6838 -242.232
L91.2865 -242.242
L91.8892 -242.445
L92.4919 -243.734
L93.0946 -242.96
L93.6973 -242.794
L94.3 -243.07
L94.9027 -243.053
L95.5054 -242.779
L96.1081 -242.643
L96.7108 -242.81
L97.3135 -243.327
L97.9162 -242.495
L98.5189 -242.779
L99.1216 -242.551
L99.7243 -243.048
L100.327 -243.044
L100.93 -242.764
L101.532 -243.394
L102.135 -242.869
L102.738 -243.071
L103.341 -243.283
L103.943 -243.144
L104.546 -243.016
L105.149 -242.793
L105.751 -242.64
L106.354 -243.396
L106.957 -243.29
L107.559 -242.729
L108.162 -243.363
L108.765 -242.531
L109.368 -243.156
L109.97 -242.955
L110.573 -242.866
L111.176 -243.378
L111.778 -243.533
L112.381 -243.112
L112.984 -242.78
L113.586 -243.252
L114.189 -243.183
L114.792 -242.952
L115.394 -243.213
L115.997 -243.144
L116.6 -243.001
L117.203 -243.305
L117.805 -243.343
L118.408 -243.095
L119.011 -242.943
L119.613 -242.873
L120.216 -242.953
L120.819 -242.851
L121.421 -242.982
L122.024 -242.72
L122.627 -243.118
L123.229 -243.607
L123.832 -243.205
L124.435 -243.349
L125.038 -243.518
L125.64 -243.114
L126.243 -243.576
L126.846 -243.357
L127.448 -243.66
L128.051 -244.026
L128.654 -243.618
L129.256 -243.826
L129.859 -243.554
L130.462 -243.414
L131.064 -243.723
L131.667 -242.986
L132.27 -243.503
L132.872 -243.33
L133.475 -243.578
L134.078 -243.524
L134.68 -243.019
L135.283 -243.191
L135.886 -243.183
L136.489 -243.195
L137.091 -243.247
L137.694 -243.634
L138.297 -243.69
L138.899 -243.162
L139.502 -243.228
L140.105 -243.497
L140.707 -243.524
L141.31 -243.193
L141.913 -243.059
L142.515 -243.062
L143.118 -243.039
L143.721 -243.185
L144.323 -243.059
L144.926 -242.722
L145.529 -242.846
L146.131 -242.984
L146.734 -242.715
L147.337 -243.028
L147.939 -243.188
L148.542 -242.755
L149.145 -242.869
L149.747 -242.418
L150.35 -242.722
L150.953 -242.651
L151.555 -242.179
L152.158 -242.205
L152.761 -242.744
L153.363 -242.372
L153.966 -242.633
L154.569 -243.045
L155.171 -242.818
L155.774 -242.727
L156.377 -243.107
L156.979 -242.967
L157.582 -243.03
L158.185 -242.9
L158.787 -242.929
L159.39 -243.233
L159.993 -243.121
L160.595 -242.985
L161.198 -243.315
L161.801 -243.237
L162.403 -242.927
L163.006 -242.935
L163.609 -243.03
L164.211 -243.165
L164.814 -243.106
L165.417 -243.027
L166.019 -242.874
L166.622 -243.574
L167.225 -242.988
L167.827 -242.917
L168.43 -243.424
L169.033 -242.516
L169.635 -242.979
L170.238 -242.995
L170.841 -242.98
L171.443 -243.116
L172.046 -242.973
L172.648 -243.486
L173.251 -242.958
L173.854 -243.062
L174.456 -242.784
L175.059 -243.351
L175.662 -243.328
L176.264 -243.245
L176.867 -243.271
L177.47 -243.38
L178.072 -243.367
L178.675 -243.091
L179.278 -243.208
L179.88 -243.276
L180.483 -243.019
L181.085 -242.902
L181.688 -243.029
L182.291 -243.011
L182.893 -243.234
L183.496 -243.022
L184.099 -243.061
L184.701 -243.067
L185.304 -242.887
L185.907 -242.903
L186.509 -243.18
L187.112 -243.2
L187.714 -243.38
L188.317 -243.3
L188.92 -243.302
L189.522 -243.267
L190.125 -242.835
L190.728 -242.88
L191.33 -243.056
L191.933 -242.999
L192.535 -242.929
L193.138 -243.144
L193.741 -243.158
L194.343 -243.173
L194.946 -243.155
L195.549 -243.391
L196.151 -243.255
L196.754 -243.439
L197.356 -242.998
L197.959 -243.055
L198.562 -242.983
L199.164 -242.987
L199.767 -243.238
L200.369 -242.957
L200.972 -242.967
L201.575 -242.917
L202.177 -243.03
L202.78 -243.075
L203.382 -242.944
L203.985 -242.98
L204.588 -242.98
L205.19 -242.923
L205.793 -243.043
L206.395 -242.731
L206.998 -242.912
L207.601 -242.956
L208.203 -243.118
L208.806 -243.264
L209.408 -242.746
L210.011 -242.652
L210.614 -242.905
L211.216 -242.916
L211.819 -242.882
L212.421 -242.713
L213.024 -242.761
L213.627 -242.513
L214.229 -242.96
L214.832 -242.721
L215.434 -242.728
L216.037 -242.467
L216.64 -242.631
L217.242 -242.877
L217.845 -242.859
L218.447 -242.971
L219.05 -242.95
L219.652 -242.843
L220.255 -242.648
L220.858 -242.86
L221.46 -242.808
L222.063 -242.621
L222.665 -242.566
L223.268 -242.598
L223.871 -242.767
L224.473 -242.427
L225.076 -242.786
L225.678 -242.787
L226.281 -242.675
L226.883 -242.817
L227.486 -242.429
L228.089 -242.949
L228.691 -242.472
L229.294 -242.896
L229.896 -242.621
L230.499 -242.698
L231.101 -242.521
L231.704 -242.453
L232.306 -242.785
L232.909 -242.45
L233.512 -242.658
L234.114 -242.744
L234.717 -242.489
L235.319 -242.48
L235.922 -242.315
L236.524 -242.279
L237.127 -242.491
L237.729 -242.258
L238.332 -242.4
L238.935 -242.289
L239.537 -242.193
L240.14 -242.412
L240.742 -242.1
L241.345 -242.421
L241.947 -242.25
L242.55 -242.528
L243.152 -242.501
L243.755 -242.253
L244.357 -242.68
L244.96 -242.333
L245.562 -242.065
L246.165 -242.024
L246.768 -242.148
L247.37 -242.171
L247.973 -242.028
L248.575 -242.095
L249.178 -242.041
L249.78 -242.218
L250.383 -242.39
L250.985 -242.408
L251.588 -242.284
L252.19 -242.328
L252.793 -242.734
L253.395 -242.599
L253.998 -242.536
L254.6 -242.747
L255.203 -242.725
L255.805 -242.805
L256.408 -242.548
L257.01 -242.522
L257.613 -242.664
L258.215 -242.801
L258.818 -242.719
L259.42 -242.946
L260.023 -242.747
L260.625 -242.806
L261.228 -242.699
L261.83 -242.677
L262.433 -242.558
L263.035 -242.155
L263.638 -242.548
L264.24 -242.488
L264.843 -242.39
L265.445 -242.573
L266.048 -242.716
L266.65 -242.539
L267.253 -242.66
L267.855 -242.819
L268.458 -242.681
L269.06 -242.92
L269.663 -242.657
L270.265 -242.295
L270.868 -241.927
L271.47 -242.186
L272.073 -241.727
L272.675 -241.705
L273.278 -241.514
L273.88 -241.619
L274.483 -241.669
L275.085 -241.649
L275.688 -241.504
L276.29 -241.12
L276.893 -240.935
L277.495 -240.979
L278.097 -241.402
L278.7 -241.075
L279.302 -240.655
L279.905 -240.816
L280.507 -241.188
L281.11 -241.269
L281.712 -241.579
L282.315 -241.773
L282.917 -241.671
L283.52 -241.827
L284.122 -241.772
L284.724 -241.555
L285.327 -241.658
L285.929 -241.916
L286.532 -241.86
L287.134 -241.715
L287.737 -241.947
L288.339 -241.881
L288.942 -242.004
L289.544 -241.933
L290.146 -242.037
L290.749 -241.826
L291.351 -242.07
L291.954 -242.136
L292.556 -242.411
L293.159 -241.945
L293.761 -241.878
L294.363 -241.653
L294.966 -241.808
L295.568 -241.763
L296.171 -241.551
L296.773 -241.763
L297.376 -242.08
L297.978 -241.93
L298.58 -241.967
L299.183 -241.838
L299.785 -241.787
L300.388 -241.484
L300.99 -242.005
L301.592 -241.829
L302.195 -241.889
L302.797 -242.272
L303.4 -242.467
L304.002 -242.744
L304.604 -242.914
L305.207 -242.819
L305.809 -242.84
L306.412 -242.929
L307.014 -243.271
L307.616 -243.346
L308.219 -243.336
L308.821 -243.333
L309.424 -243.612
L310.026 -243.59
L310.628 -243.51
L311.231 -243.498
L311.833 -243.702
L312.435 -243.799
L313.038 -244.138
L313.64 -244.092
L314.243 -244.21
L314.845 -243.951
L315.447 -244.17
L316.05 -244.122
L316.652 -244.148
L317.254 -244.396
L317.857 -244.153
L318.459 -244.509
L319.061 -244.318
L319.664 -244.645
L320.266 -244.72
L320.869 -244.573
L321.471 -244.833
L322.073 -244.929
L322.676 -245.1
L323.278 -244.964
L323.88 -245.169
L324.483 -244.942
L325.085 -245.304
L325.687 -245.24
L326.29 -245.457
L326.892 -245.441
L327.494 -245.262
L328.097 -245.847
L328.699 -245.901
L329.301 -246.034
L329.904 -245.959
L330.506 -246.464
L331.108 -246.539
L331.711 -246.659
L332.313 -246.903
L332.915 -246.932
L333.518 -246.659
L334.12 -246.716
L334.722 -246.88
L335.325 -247.35
L335.927 -247.421
L336.529 -247.098
L337.131 -247.256
L337.734 -247.587
L338.336 -247.917
L338.938 -248.148
L339.541 -248.052
L340.143 -248.239
L340.745 -248.343
L341.348 -248.319
L341.95 -248.079
L342.552 -248.476
L343.154 -248.533
L343.757 -248.35
L344.359 -248.332
L344.961 -248.398
L345.564 -248.416
L346.166 -248.391
L346.768 -248.426
L347.37 -248.685
L347.973 -248.628
L348.575 -248.704
L349.177 -248.556
L349.779 -248.464
L350.382 -248.648
L350.984 -248.579
L351.586 -248.462
L352.188 -249.277
L352.791 -249.069
L353.393 -249.464
L353.995 -249.056
L354.598 -248.838
L355.2 -249.29
L355.802 -249.467
L356.404 -249.698
L357.006 -249.75
L357.609 -249.666
L358.211 -249.635
L358.813 -249.777
L359.415 -249.511
L360.018 -249.331
L360.62 -249.505
L361.222 -249.872
L361.824 -249.79
L362.427 -249.677
L363.029 -250.088
L363.631 -250.076
L364.233 -249.939
L364.835 -250.301
L365.438 -249.936
L366.04 -250.165
L366.642 -250.156
L367.244 -250.515
L367.847 -250.353
L368.449 -250.361
L369.051 -250.574
L369.653 -250.825
L370.255 -250.764
L370.858 -250.916
L371.46 -250.964
L372.062 -251.33
L372.664 -251.159
L373.266 -251.4
L373.869 -251.543
L374.471 -252.016
L375.073 -251.792
L375.675 -251.914
L376.277 -252.006
L376.879 -252.301
L377.482 -252.124
L378.084 -252.107
L378.686 -252.167
L379.288 -252.712
L379.89 -252.524
L380.492 -252.77
L381.095 -252.908
L381.697 -253.505
L382.299 -253.607
L382.901 -253.364
L383.503 -254.026
L384.105 -254.031
L384.708 -254.463
L385.31 -254.705
L385.912 -254.884
L386.514 -255.47
L387.116 -255.691
L387.718 -256.198
L388.32 -256.293
L388.923 -256.533
L389.525 -256.72
L390.127 -257.694
L390.729 -258.353
L391.331 -258.61
L391.933 -259.197
L392.535 -259.828
L393.137 -260.147
L393.74 -261.308
L394.342 -262.453
L394.944 -263.139
L395.546 -264.435
L396.148 -265.637
L396.75 -266.378
L397.352 -268.284
L397.954 -269.773
L398.556 -271.084
L399.158 -274.219
L399.761 -275.086
L400.363 -277.722
L400.965 -279.716
L401.567 -280.107
L402.169 -278.161
L402.771 -275.958
L403.373 -271.497
L403.975 -262.338
L404.577 -258.598
L405.179 -255.71
L405.781 -253.962
L406.383 -253.284
L406.986 -252.874
L407.588 -252.351
L408.19 -252.177
L408.792 -251.855
L409.394 -251.76
L409.996 -251.768
L410.598 -251.237
L411.2 -250.838
L411.802 -250.79
L412.404 -250.706
L413.006 -250.887
L413.608 -250.818
L414.21 -250.868
L414.812 -250.55
L415.414 -250.641
L416.016 -250.755
L416.618 -250.564
L417.22 -250.606
L417.822 -250.582
L418.424 -250.522
L419.026 -250.293
L419.628 -250.397
L420.23 -250.065
L420.832 -250.092
L421.435 -250.27
L422.037 -250.107
L422.639 -250.133
L423.241 -250.166
L423.843 -249.967
L424.445 -250.31
L425.047 -249.821
L425.649 -250.095
L426.251 -249.845
L426.853 -249.825
L427.454 -249.745
L428.056 -249.427
L428.658 -249.375
L429.26 -249.83
L429.862 -249.526
L430.464 -249.694
L431.066 -249.828
L431.668 -249.328
L432.27 -249.521
L432.872 -249.494
L433.474 -249.483
L434.076 -249.346
L434.678 -249.457
L435.28 -249.803
L435.882 -250.33
L436.484 -250.289
L437.086 -250.582
L437.688 -250.457
L438.29 -251.004
L438.892 -250.557
L439.494 -251.023
L440.096 -250.556
L440.698 -251.031
L441.3 -251.193
L441.901 -251.434
L442.503 -250.932
L443.105 -251.684
L443.707 -251.485
L444.309 -251.606
L444.911 -251.22
L445.513 -251.372
L446.115 -251.384
L446.717 -251.441
L447.319 -251.717
L447.921 -251.967
L448.523 -251.898
L449.124 -252.138
L449.726 -251.878
L450.328 -252.015
L450.93 -252.074
L451.532 -252.591
L452.134 -252.655
L452.736 -252.978
L453.338 -252.784
L453.939 -252.598
L454.541 -252.441
L455.143 -253.108
L455.745 -253.668
L456.347 -253.301
L456.949 -253.315
L457.551 -253.52
L458.153 -253.972
L458.754 -253.596
L459.356 -254.279
L459.958 -253.955
L460.56 -254.433
L461.162 -254.198
L461.764 -254.328
L462.365 -254.638
L462.967 -254.661
L463.569 -255.082
L464.171 -255.042
L464.773 -254.885
L465.375 -255.705
L465.976 -255.017
L466.578 -255.159
L467.18 -256.107
L467.782 -255.876
L468.384 -255.678
L468.986 -256.041
L469.587 -255.935
L470.189 -256.216
L470.791 -256.711
L471.393 -257.432
L471.995 -257.641
L472.596 -257.365
L473.198 -257.034
L473.8 -258.526
L474.402 -258.424
L475.004 -258.473
L475.605 -258.681
L476.207 -258.772
L476.809 -258.839
L477.411 -258.683
L478.012 -259.674
L478.614 -258.288
L479.216 -258.625
L479.818 -259.47
L480.419 -258.569
L481.021 -259.237
L481.623 -259.25
L482.225 -258.387
L482.826 -258.865
L483.428 -259.22
L484.03 -258.691
L484.632 -258.958
L485.233 -258.572
L485.835 -259.423
L486.437 -259.397
L487.039 -258.342
L487.64 -258.058
L488.242 -258.364
L488.844 -257.94
L489.445 -259.174
L490.047 -258.719
L490.649 -257.967
L491.251 -258.164
L491.852 -258.522
L492.454 -258.321
L493.056 -258.411
L493.657 -258.054
L494.259 -257.036
L494.861 -257.847
L495.462 -258.286
L496.064 -258.069
L496.666 -257.962
L497.268 -258.574
L497.869 -257.518
L498.471 -257.28
L499.073 -258.232
L499.674 -257.948
L500.276 -256.778
L500.878 -257.705
L501.479 -257.947
L502.081 -256.65
L502.682 -257.132
L503.284 -256.45
L503.886 -257.436
L504.487 -256.663
L505.089 -255.462
L505.691 -257.431
L506.292 -257.282
L506.894 -257.282
L507.496 -257.323
L508.097 -255.947
L508.699 -256.58
L509.3 -255.677
L509.902 -255.691
L510.504 -255.379
L511.105 -255.788
L511.707 -254.474
L512.309 -254.474
L512.91 -256.691
L513.512 -256.495
L514.113 -254.986
L514.715 -254.159
L515.316 -255.46
L515.918 -255.161
L516.52 -252.544
L517.121 -250.135
L517.723 -236.622
L517.723 -255.326
L517.723 -255.326
L517.121 -257.837
L516.52 -258.058
L515.918 -259.609
L515.316 -259.139
L514.715 -257.572
L514.113 -258.051
L513.512 -259.314
L512.91 -259.306
L512.309 -256.983
L511.707 -256.892
L511.105 -258.033
L510.504 -257.53
L509.902 -257.776
L509.3 -257.667
L508.699 -258.473
L508.097 -257.816
L507.496 -259.108
L506.894 -258.995
L506.292 -258.968
L505.691 -259.081
L505.089 -257.093
L504.487 -258.207
L503.886 -258.975
L503.284 -257.959
L502.682 -258.59
L502.081 -258.085
L501.479 -259.351
L500.878 -259.075
L500.276 -258.141
L499.674 -259.264
L499.073 -259.53
L498.471 -258.563
L497.869 -258.785
L497.268 -259.801
L496.666 -259.184
L496.064 -259.272
L495.462 -259.467
L494.861 -259.01
L494.259 -258.203
L493.657 -259.192
L493.056 -259.529
L492.454 -259.42
L491.852 -259.615
L491.251 -259.244
L490.649 -259.036
L490.047 -259.762
L489.445 -260.214
L488.844 -258.983
L488.242 -259.409
L487.64 -259.09
L487.039 -259.381
L486.437 -260.419
L485.835 -260.441
L485.233 -259.595
L484.632 -259.979
L484.03 -259.706
L483.428 -260.215
L482.826 -259.851
L482.225 -259.367
L481.623 -260.216
L481.021 -260.189
L480.419 -259.515
L479.818 -260.4
L479.216 -259.557
L478.614 -259.215
L478.012 -260.577
L477.411 -259.581
L476.809 -259.739
L476.207 -259.654
L475.605 -259.56
L475.004 -259.344
L474.402 -259.29
L473.8 -259.366
L473.198 -257.882
L472.596 -258.189
L471.995 -258.459
L471.393 -258.233
L470.791 -257.516
L470.189 -257.005
L469.587 -256.724
L468.986 -256.81
L468.384 -256.449
L467.782 -256.628
L467.18 -256.854
L466.578 -255.9
L465.976 -255.757
L465.375 -256.425
L464.773 -255.607
L464.171 -255.749
L463.569 -255.786
L462.967 -255.356
L462.365 -255.331
L461.764 -255.011
L461.162 -254.879
L460.56 -255.102
L459.958 -254.62
L459.356 -254.935
L458.754 -254.255
L458.153 -254.619
L457.551 -254.164
L456.949 -253.953
L456.347 -253.933
L455.745 -254.289
L455.143 -253.73
L454.541 -253.06
L453.939 -253.212
L453.338 -253.391
L452.736 -253.575
L452.134 -253.248
L451.532 -253.183
L450.93 -252.664
L450.328 -252.598
L449.726 -252.457
L449.124 -252.709
L448.523 -252.466
L447.921 -252.53
L447.319 -252.279
L446.717 -251.996
L446.115 -251.935
L445.513 -251.918
L444.911 -251.759
L444.309 -252.141
L443.707 -252.017
L443.105 -252.21
L442.503 -251.456
L441.901 -251.957
L441.3 -251.711
L440.698 -251.546
L440.096 -251.069
L439.494 -251.529
L438.892 -251.061
L438.29 -251.502
L437.688 -250.952
L437.086 -251.072
L436.484 -250.771
L435.882 -250.805
L435.28 -250.27
L434.678 -249.909
L434.076 -249.794
L433.474 -249.932
L432.872 -249.941
L432.27 -249.969
L431.668 -249.776
L431.066 -250.273
L430.464 -250.139
L429.862 -249.972
L429.26 -250.274
L428.658 -249.821
L428.056 -249.873
L427.454 -250.187
L426.853 -250.267
L426.251 -250.288
L425.649 -250.536
L425.047 -250.262
L424.445 -250.749
L423.843 -250.407
L423.241 -250.604
L422.639 -250.571
L422.037 -250.546
L421.435 -250.708
L420.832 -250.53
L420.23 -250.501
L419.628 -250.833
L419.026 -250.729
L418.424 -250.958
L417.822 -251.014
L417.22 -251.04
L416.618 -250.995
L416.016 -251.188
L415.414 -251.072
L414.812 -250.982
L414.21 -251.298
L413.608 -251.249
L413.006 -251.315
L412.404 -251.136
L411.802 -251.22
L411.2 -251.265
L410.598 -251.663
L409.996 -252.191
L409.394 -252.182
L408.792 -252.276
L408.19 -252.598
L407.588 -252.768
L406.986 -253.29
L406.383 -253.696
L405.781 -254.372
L405.179 -256.111
L404.577 -258.99
L403.975 -262.712
L403.373 -271.839
L402.771 -276.285
L402.169 -278.481
L401.567 -280.42
L400.965 -280.031
L400.363 -278.041
L399.761 -275.417
L399.158 -274.55
L398.556 -271.427
L397.954 -270.12
L397.352 -268.636
L396.75 -266.737
L396.148 -265.998
L395.546 -264.802
L394.944 -263.508
L394.342 -262.827
L393.74 -261.685
L393.137 -260.529
L392.535 -260.21
L391.933 -259.582
L391.331 -258.996
L390.729 -258.742
L390.127 -258.084
L389.525 -257.115
L388.923 -256.927
L388.32 -256.69
L387.718 -256.593
L387.116 -256.09
L386.514 -255.869
L385.912 -255.284
L385.31 -255.105
L384.708 -254.862
L384.105 -254.433
L383.503 -254.426
L382.901 -253.768
L382.299 -254.007
L381.697 -253.907
L381.095 -253.311
L380.492 -253.174
L379.89 -252.927
L379.288 -253.116
L378.686 -252.572
L378.084 -252.512
L377.482 -252.528
L376.879 -252.705
L376.277 -252.411
L375.675 -252.319
L375.073 -252.197
L374.471 -252.418
L373.869 -251.948
L373.266 -251.804
L372.664 -251.564
L372.062 -251.733
L371.46 -251.368
L370.858 -251.319
L370.255 -251.167
L369.653 -251.228
L369.051 -250.977
L368.449 -250.765
L367.847 -250.756
L367.244 -250.916
L366.642 -250.558
L366.04 -250.567
L365.438 -250.337
L364.835 -250.7
L364.233 -250.338
L363.631 -250.474
L363.029 -250.486
L362.427 -250.075
L361.824 -250.187
L361.222 -250.269
L360.62 -249.902
L360.018 -249.727
L359.415 -249.906
L358.813 -250.17
L358.211 -250.027
L357.609 -250.058
L357.006 -250.14
L356.404 -250.088
L355.802 -249.857
L355.2 -249.68
L354.598 -249.228
L353.995 -249.445
L353.393 -249.849
L352.791 -249.456
L352.188 -249.661
L351.586 -248.85
L350.984 -248.963
L350.382 -249.032
L349.779 -248.848
L349.177 -248.939
L348.575 -249.084
L347.973 -249.008
L347.37 -249.063
L346.768 -248.804
L346.166 -248.769
L345.564 -248.792
L344.961 -248.772
L344.359 -248.705
L343.757 -248.722
L343.154 -248.902
L342.552 -248.846
L341.95 -248.448
L341.348 -248.685
L340.745 -248.706
L340.143 -248.602
L339.541 -248.412
L338.938 -248.505
L338.336 -248.271
L337.734 -247.933
L337.131 -247.601
L336.529 -247.442
L335.927 -247.764
L335.325 -247.693
L334.722 -247.226
L334.12 -247.061
L333.518 -247.004
L332.915 -247.277
L332.313 -247.248
L331.711 -247.003
L331.108 -246.883
L330.506 -246.807
L329.904 -246.303
L329.301 -246.377
L328.699 -246.243
L328.097 -246.189
L327.494 -245.605
L326.892 -245.783
L326.29 -245.799
L325.687 -245.583
L325.085 -245.646
L324.483 -245.284
L323.88 -245.511
L323.278 -245.307
L322.676 -245.441
L322.073 -245.271
L321.471 -245.175
L320.869 -244.915
L320.266 -245.062
L319.664 -244.987
L319.061 -244.661
L318.459 -244.851
L317.857 -244.495
L317.254 -244.737
L316.652 -244.49
L316.05 -244.464
L315.447 -244.512
L314.845 -244.293
L314.243 -244.55
L313.64 -244.433
L313.038 -244.479
L312.435 -244.141
L311.833 -244.044
L311.231 -243.839
L310.628 -243.852
L310.026 -243.93
L309.424 -243.953
L308.821 -243.674
L308.219 -243.677
L307.616 -243.687
L307.014 -243.611
L306.412 -243.27
L305.809 -243.18
L305.207 -243.159
L304.604 -243.251
L304.002 -243.08
L303.4 -242.803
L302.797 -242.605
L302.195 -242.222
L301.592 -242.162
L300.99 -242.337
L300.388 -241.818
L299.785 -242.121
L299.183 -242.173
L298.58 -242.3
L297.978 -242.264
L297.376 -242.413
L296.773 -242.098
L296.171 -241.888
L295.568 -242.1
L294.966 -242.145
L294.363 -241.99
L293.761 -242.215
L293.159 -242.282
L292.556 -242.747
L291.954 -242.473
L291.351 -242.408
L290.749 -242.165
L290.146 -242.375
L289.544 -242.272
L288.942 -242.343
L288.339 -242.221
L287.737 -242.287
L287.134 -242.057
L286.532 -242.201
L285.929 -242.258
L285.327 -242.001
L284.724 -241.899
L284.122 -242.115
L283.52 -242.172
L282.917 -242.017
L282.315 -242.119
L281.712 -241.927
L281.11 -241.62
L280.507 -241.542
L279.905 -241.175
L279.302 -241.016
L278.7 -241.434
L278.097 -241.758
L277.495 -241.336
L276.893 -241.292
L276.29 -241.477
L275.688 -241.858
L275.085 -242.001
L274.483 -242.02
L273.88 -241.969
L273.278 -241.864
L272.675 -242.053
L272.073 -242.074
L271.47 -242.53
L270.868 -242.27
L270.265 -242.634
L269.663 -242.992
L269.06 -243.254
L268.458 -243.015
L267.855 -243.152
L267.253 -242.994
L266.65 -242.874
L266.048 -243.051
L265.445 -242.907
L264.843 -242.726
L264.24 -242.823
L263.638 -242.883
L263.035 -242.491
L262.433 -242.894
L261.83 -243.012
L261.228 -243.034
L260.625 -243.141
L260.023 -243.083
L259.42 -243.281
L258.818 -243.054
L258.215 -243.136
L257.613 -242.999
L257.01 -242.858
L256.408 -242.883
L255.805 -243.14
L255.203 -243.06
L254.6 -243.082
L253.998 -242.871
L253.395 -242.934
L252.793 -243.068
L252.19 -242.663
L251.588 -242.618
L250.985 -242.742
L250.383 -242.723
L249.78 -242.549
L249.178 -242.37
L248.575 -242.423
L247.973 -242.358
L247.37 -242.5
L246.768 -242.479
L246.165 -242.356
L245.562 -242.396
L244.96 -242.665
L244.357 -243.011
L243.755 -242.587
L243.152 -242.833
L242.55 -242.862
L241.947 -242.584
L241.345 -242.757
L240.742 -242.436
L240.14 -242.748
L239.537 -242.531
L238.935 -242.627
L238.332 -242.738
L237.729 -242.597
L237.127 -242.83
L236.524 -242.62
L235.922 -242.657
L235.319 -242.821
L234.717 -242.832
L234.114 -243.086
L233.512 -243
L232.909 -242.795
L232.306 -243.128
L231.704 -242.8
L231.101 -242.867
L230.499 -243.044
L229.896 -242.968
L229.294 -243.243
L228.691 -242.821
L228.089 -243.297
L227.486 -242.78
L226.883 -243.167
L226.281 -243.027
L225.678 -243.139
L225.076 -243.138
L224.473 -242.781
L223.871 -243.122
L223.268 -242.952
L222.665 -242.923
L222.063 -242.978
L221.46 -243.164
L220.858 -243.217
L220.255 -243.007
L219.652 -243.202
L219.05 -243.309
L218.447 -243.332
L217.845 -243.22
L217.242 -243.238
L216.64 -242.995
L216.037 -242.832
L215.434 -243.094
L214.832 -243.087
L214.229 -243.325
L213.627 -242.881
L213.024 -243.129
L212.421 -243.083
L211.819 -243.252
L211.216 -243.287
L210.614 -243.276
L210.011 -243.026
L209.408 -243.121
L208.806 -243.636
L208.203 -243.492
L207.601 -243.332
L206.998 -243.289
L206.395 -243.11
L205.793 -243.421
L205.19 -243.303
L204.588 -243.36
L203.985 -243.362
L203.382 -243.327
L202.78 -243.458
L202.177 -243.413
L201.575 -243.302
L200.972 -243.354
L200.369 -243.345
L199.767 -243.625
L199.164 -243.375
L198.562 -243.373
L197.959 -243.446
L197.356 -243.39
L196.754 -243.831
L196.151 -243.648
L195.549 -243.784
L194.946 -243.551
L194.343 -243.57
L193.741 -243.556
L193.138 -243.544
L192.535 -243.329
L191.933 -243.401
L191.33 -243.458
L190.728 -243.286
L190.125 -243.241
L189.522 -243.672
L188.92 -243.709
L188.317 -243.707
L187.714 -243.79
L187.112 -243.61
L186.509 -243.592
L185.907 -243.316
L185.304 -243.303
L184.701 -243.483
L184.099 -243.478
L183.496 -243.441
L182.893 -243.652
L182.291 -243.432
L181.688 -243.452
L181.085 -243.327
L180.483 -243.444
L179.88 -243.702
L179.278 -243.635
L178.675 -243.52
L178.072 -243.798
L177.47 -243.81
L176.867 -243.704
L176.264 -243.678
L175.662 -243.762
L175.059 -243.787
L174.456 -243.223
L173.854 -243.501
L173.251 -243.398
L172.648 -243.928
L172.046 -243.417
L171.443 -243.562
L170.841 -243.427
L170.238 -243.444
L169.635 -243.429
L169.033 -242.971
L168.43 -243.879
L167.827 -243.373
L167.225 -243.448
L166.622 -244.032
L166.019 -243.34
L165.417 -243.492
L164.814 -243.575
L164.211 -243.635
L163.609 -243.5
L163.006 -243.41
L162.403 -243.403
L161.801 -243.716
L161.198 -243.791
L160.595 -243.466
L159.993 -243.602
L159.39 -243.718
L158.787 -243.418
L158.185 -243.388
L157.582 -243.524
L156.979 -243.46
L156.377 -243.605
L155.774 -243.23
L155.171 -243.325
L154.569 -243.554
L153.966 -243.147
L153.363 -242.895
L152.761 -243.27
L152.158 -242.741
L151.555 -242.724
L150.953 -243.202
L150.35 -243.272
L149.747 -242.972
L149.145 -243.423
L148.542 -243.307
L147.939 -243.74
L147.337 -243.581
L146.734 -243.275
L146.131 -243.54
L145.529 -243.404
L144.926 -243.282
L144.323 -243.615
L143.721 -243.743
L143.118 -243.598
L142.515 -243.626
L141.913 -243.615
L141.31 -243.75
L140.707 -244.077
L140.105 -244.065
L139.502 -243.794
L138.899 -243.726
L138.297 -244.255
L137.694 -244.195
L137.091 -243.811
L136.489 -243.753
L135.886 -243.741
L135.283 -243.749
L134.68 -243.58
L134.078 -244.092
L133.475 -244.147
L132.872 -243.906
L132.27 -244.082
L131.667 -243.579
L131.064 -244.325
L130.462 -244.023
L129.859 -244.165
L129.256 -244.432
L128.654 -244.227
L128.051 -244.637
L127.448 -244.277
L126.846 -243.969
L126.243 -244.191
L125.64 -243.731
L125.038 -244.137
L124.435 -243.968
L123.832 -243.823
L123.229 -244.224
L122.627 -243.734
L122.024 -243.339
L121.421 -243.598
L120.819 -243.462
L120.216 -243.559
L119.613 -243.483
L119.011 -243.559
L118.408 -243.714
L117.805 -243.964
L117.203 -243.926
L116.6 -243.635
L115.997 -243.773
L115.394 -243.857
L114.792 -243.597
L114.189 -243.828
L113.586 -243.903
L112.984 -243.433
L112.381 -243.782
L111.778 -244.194
L111.176 -244.052
L110.573 -243.544
L109.97 -243.639
L109.368 -243.846
L108.765 -243.228
L108.162 -244.063
L107.559 -243.431
L106.957 -244.003
L106.354 -244.101
L105.751 -243.377
L105.149 -243.525
L104.546 -243.748
L103.943 -243.891
L103.341 -244.024
L102.738 -243.838
L102.135 -243.63
L101.532 -244.169
L100.93 -243.547
L100.327 -243.826
L99.7243 -243.856
L99.1216 -243.358
L98.5189 -243.599
L97.9162 -243.309
L97.3135 -244.163
L96.7108 -243.653
L96.1081 -243.507
L95.5054 -243.645
L94.9027 -243.926
L94.3 -243.964
L93.6973 -243.69
L93.0946 -243.886
L92.4919 -244.647
L91.8892 -243.381
L91.2865 -243.196
L90.6838 -243.212
L90.0811 -243.601
L89.4784 -244.762
L88.8757 -244.002
L88.273 -244.117
L87.6703 -244.085
L87.0676 -243.672
L86.4649 -243.551
L85.8622 -243.947
L85.2595 -244.277
L84.6568 -244.002
L84.0541 -243.279
L83.4514 -243.109
L82.8487 -244.492
L82.246 -243.107
L81.6433 -244.075
L81.0406 -243.918
L80.4379 -243.856
L79.8352 -242.786
L79.2325 -243.076
L78.6297 -243.647
L78.027 -242.605
L77.4243 -244.228
L76.8216 -243.132
L76.2189 -243.726
L75.6162 -243.448
L75.0135 -243.888
L74.4108 -244.417
L73.8081 -244.528
L73.2054 -244.744
L72.6027 -246.21
L72 -242.57
z
" id="C1_0_7bc2811609"/>
    </defs>
    <g clip-path="url(#p7ff5b81e1d)">
     <use style="fill:#0000ff;fill-opacity:0.2;" x="0.0" xlink:href="#C1_0_7bc2811609" y="432.0"/>
    </g>
   </g>
   <g id="line2d_1">
    <path clip-path="url(#p7ff5b81e1d)" d="
M72 193.976
L72.6027 187.983
L73.2054 188.925
L74.4108 188.849
L75.6162 189.608
L76.2189 189.248
L76.8216 189.818
L77.4243 188.65
L78.027 190.258
L78.6297 189.133
L79.2325 189.703
L79.8352 189.953
L80.4379 188.854
L81.0406 188.787
L81.6433 188.574
L82.246 189.552
L82.8487 188.121
L83.4514 189.514
L84.0541 189.323
L84.6568 188.581
L85.2595 188.286
L86.4649 189.008
L87.0676 188.866
L87.6703 188.438
L88.273 188.388
L88.8757 188.507
L89.4784 187.726
L90.0811 188.896
L90.6838 189.276
L91.2865 189.279
L91.8892 189.085
L92.4919 187.808
L93.0946 188.575
L93.6973 188.756
L94.3 188.481
L94.9027 188.509
L95.5054 188.786
L96.1081 188.923
L96.7108 188.767
L97.3135 188.253
L97.9162 189.096
L98.5189 188.809
L99.1216 189.044
L99.7243 188.546
L100.327 188.564
L100.93 188.843
L101.532 188.217
L102.135 188.749
L103.341 188.345
L105.751 188.99
L106.354 188.25
L106.957 188.352
L107.559 188.918
L108.162 188.286
L108.765 189.119
L109.368 188.498
L110.573 188.794
L111.176 188.284
L111.778 188.135
L112.984 188.892
L113.586 188.422
L114.189 188.493
L114.792 188.724
L115.394 188.464
L116.6 188.681
L117.203 188.383
L117.805 188.346
L119.011 188.748
L119.613 188.821
L120.216 188.743
L120.819 188.842
L121.421 188.709
L122.024 188.969
L123.229 188.084
L123.832 188.485
L125.038 188.172
L125.64 188.577
L126.243 188.116
L126.846 188.336
L128.051 187.668
L128.654 188.077
L129.256 187.87
L129.859 188.139
L130.462 188.28
L131.064 187.975
L131.667 188.717
L132.27 188.207
L132.872 188.381
L133.475 188.137
L134.078 188.191
L134.68 188.7
L135.283 188.529
L137.091 188.471
L137.694 188.084
L138.297 188.027
L138.899 188.555
L139.502 188.488
L140.105 188.218
L140.707 188.198
L141.31 188.528
L141.913 188.663
L144.323 188.662
L144.926 188.997
L146.131 188.737
L146.734 189.005
L147.337 188.695
L147.939 188.535
L148.542 188.968
L149.145 188.853
L149.747 189.304
L150.35 189.002
L150.953 189.073
L151.555 189.548
L152.158 189.526
L152.761 188.992
L153.363 189.366
L153.966 189.109
L154.569 188.7
L155.171 188.928
L155.774 189.021
L156.377 188.644
L156.979 188.786
L157.582 188.723
L158.185 188.856
L158.787 188.826
L159.39 188.524
L160.595 188.774
L161.198 188.446
L161.801 188.523
L162.403 188.834
L163.609 188.734
L164.211 188.6
L165.417 188.74
L166.019 188.892
L166.622 188.197
L167.225 188.781
L167.827 188.854
L168.43 188.348
L169.033 189.256
L169.635 188.796
L172.046 188.804
L172.648 188.293
L173.251 188.822
L173.854 188.718
L174.456 188.996
L175.059 188.431
L176.867 188.512
L177.47 188.404
L178.072 188.417
L178.675 188.694
L179.88 188.51
L180.483 188.768
L181.085 188.885
L181.688 188.759
L182.291 188.778
L182.893 188.556
L183.496 188.768
L184.701 188.725
L185.304 188.905
L185.907 188.89
L186.509 188.613
L187.112 188.595
L187.714 188.415
L188.92 188.494
L189.522 188.53
L190.125 188.961
L190.728 188.917
L191.33 188.743
L192.535 188.871
L193.138 188.656
L194.946 188.647
L195.549 188.412
L196.151 188.548
L196.754 188.364
L197.356 188.805
L197.959 188.749
L199.164 188.819
L199.767 188.568
L200.369 188.849
L204.588 188.83
L205.19 188.887
L205.793 188.768
L206.395 189.079
L206.998 188.899
L207.601 188.856
L208.806 188.55
L209.408 189.066
L210.011 189.16
L210.614 188.909
L211.819 188.933
L212.421 189.101
L213.024 189.055
L213.627 189.303
L214.229 188.857
L214.832 189.096
L215.434 189.089
L216.037 189.351
L217.845 188.96
L218.447 188.848
L219.652 188.977
L220.255 189.172
L220.858 188.961
L221.46 189.014
L222.063 189.2
L223.268 189.225
L223.871 189.055
L224.473 189.395
L225.076 189.038
L225.678 189.037
L226.281 189.149
L226.883 189.008
L227.486 189.395
L228.089 188.877
L228.691 189.353
L229.294 188.93
L229.896 189.205
L230.499 189.129
L231.704 189.373
L232.306 189.043
L232.909 189.377
L233.512 189.17
L234.114 189.085
L234.717 189.339
L235.319 189.349
L235.922 189.514
L236.524 189.55
L237.127 189.34
L237.729 189.572
L238.332 189.431
L239.537 189.638
L240.14 189.42
L240.742 189.732
L241.345 189.411
L241.947 189.583
L242.55 189.305
L243.152 189.332
L243.755 189.58
L244.357 189.154
L245.562 189.769
L246.165 189.81
L247.37 189.664
L247.973 189.806
L248.575 189.741
L249.178 189.794
L250.383 189.443
L250.985 189.425
L251.588 189.549
L252.19 189.504
L252.793 189.098
L253.998 189.296
L254.6 189.085
L255.805 189.027
L256.408 189.284
L257.01 189.31
L258.215 189.031
L258.818 189.113
L259.42 188.886
L260.023 189.084
L260.625 189.027
L262.433 189.274
L263.035 189.676
L263.638 189.284
L264.843 189.442
L266.048 189.116
L266.65 189.294
L267.855 189.014
L268.458 189.152
L269.06 188.913
L270.265 189.535
L270.868 189.901
L271.47 189.642
L272.073 190.1
L272.675 190.121
L273.278 190.311
L274.483 190.155
L275.085 190.175
L275.688 190.319
L276.29 190.701
L276.893 190.886
L277.495 190.842
L278.097 190.419
L279.302 191.164
L279.905 191.004
L280.507 190.635
L281.11 190.555
L282.315 190.054
L282.917 190.156
L283.52 190
L284.122 190.056
L284.724 190.272
L285.327 190.17
L285.929 189.913
L287.134 190.114
L287.737 189.883
L288.339 189.948
L288.942 189.826
L289.544 189.897
L290.146 189.794
L290.749 190.004
L291.351 189.761
L291.954 189.695
L292.556 189.421
L293.159 189.887
L293.761 189.953
L294.363 190.178
L294.966 190.023
L295.568 190.068
L296.171 190.28
L297.376 189.753
L297.978 189.902
L298.58 189.866
L300.388 190.348
L300.99 189.829
L301.592 190.004
L302.195 189.944
L302.797 189.561
L304.604 188.917
L305.207 189.011
L306.412 188.9
L307.014 188.559
L308.219 188.493
L308.821 188.497
L309.424 188.217
L311.231 188.331
L313.038 187.691
L313.64 187.737
L314.243 187.62
L314.845 187.878
L315.447 187.659
L316.652 187.681
L317.254 187.433
L317.857 187.676
L318.459 187.319
L319.061 187.51
L319.664 187.184
L320.266 187.109
L320.869 187.256
L321.471 186.996
L322.676 186.729
L323.278 186.864
L323.88 186.66
L324.483 186.887
L325.085 186.525
L325.687 186.588
L326.29 186.372
L326.892 186.388
L327.494 186.566
L328.097 185.981
L329.904 185.869
L330.506 185.364
L331.711 185.169
L332.313 184.924
L332.915 184.895
L333.518 185.168
L334.722 184.947
L335.325 184.479
L335.927 184.407
L336.529 184.73
L337.131 184.571
L338.938 183.673
L339.541 183.768
L340.745 183.475
L341.348 183.497
L341.95 183.736
L342.552 183.339
L343.154 183.282
L343.757 183.464
L344.961 183.415
L346.768 183.385
L347.37 183.125
L347.973 183.182
L348.575 183.106
L349.779 183.343
L350.382 183.16
L351.586 183.344
L352.188 182.53
L352.791 182.737
L353.393 182.343
L353.995 182.749
L354.598 182.967
L355.2 182.515
L357.006 182.055
L358.211 182.169
L358.813 182.026
L360.018 182.471
L360.62 182.296
L361.222 181.929
L362.427 182.123
L363.029 181.713
L363.631 181.725
L364.233 181.861
L364.835 181.499
L365.438 181.863
L366.04 181.634
L366.642 181.643
L367.244 181.284
L367.847 181.445
L368.449 181.437
L369.653 180.973
L370.255 181.034
L372.062 180.468
L372.664 180.638
L373.869 180.254
L374.471 179.783
L375.073 180.005
L376.277 179.791
L376.879 179.497
L377.482 179.673
L378.686 179.63
L379.288 179.086
L379.89 179.274
L381.095 178.89
L381.697 178.293
L382.299 178.192
L382.901 178.434
L383.503 177.774
L384.105 177.767
L384.708 177.337
L385.912 176.916
L386.514 176.33
L387.116 176.109
L387.718 175.604
L388.32 175.508
L389.525 175.082
L390.127 174.111
L390.729 173.452
L391.331 173.197
L392.535 171.981
L393.137 171.662
L394.342 169.36
L394.944 168.676
L396.148 166.182
L396.75 165.442
L397.352 163.54
L398.556 160.744
L399.158 157.615
L399.761 156.748
L400.363 154.118
L400.965 152.126
L401.567 151.737
L402.771 155.878
L403.373 160.332
L403.975 169.475
L404.577 173.205
L405.179 176.089
L405.781 177.833
L406.383 178.51
L408.19 179.612
L408.792 179.934
L409.996 180.02
L411.2 180.948
L412.404 181.078
L413.006 180.898
L413.608 180.966
L414.21 180.917
L414.812 181.234
L416.016 181.028
L416.618 181.22
L417.822 181.202
L418.424 181.259
L419.026 181.488
L419.628 181.384
L420.23 181.717
L420.832 181.689
L421.435 181.511
L422.037 181.673
L423.241 181.615
L423.843 181.812
L424.445 181.47
L425.047 181.958
L425.649 181.684
L426.251 181.933
L427.454 182.033
L428.056 182.349
L428.658 182.402
L429.26 181.948
L429.862 182.251
L431.066 181.949
L431.668 182.448
L432.27 182.254
L434.678 182.316
L435.28 181.963
L435.882 181.432
L436.484 181.47
L437.086 181.173
L437.688 181.295
L438.29 180.747
L438.892 181.19
L439.494 180.723
L440.096 181.187
L440.698 180.711
L441.901 180.304
L442.503 180.805
L443.105 180.053
L443.707 180.248
L444.309 180.126
L444.911 180.51
L445.513 180.354
L446.717 180.281
L447.921 179.751
L448.523 179.817
L449.124 179.576
L449.726 179.831
L450.93 179.63
L451.532 179.112
L452.134 179.048
L452.736 178.723
L454.541 179.249
L455.745 178.02
L456.347 178.382
L456.949 178.365
L457.551 178.157
L458.153 177.704
L458.754 178.074
L459.356 177.392
L459.958 177.711
L460.56 177.231
L461.162 177.461
L461.764 177.329
L462.365 177.015
L462.967 176.99
L463.569 176.565
L464.773 176.753
L465.375 175.933
L465.976 176.612
L466.578 176.469
L467.18 175.518
L468.384 175.935
L468.986 175.573
L469.587 175.669
L470.189 175.388
L470.791 174.885
L471.393 174.166
L471.995 173.948
L473.198 174.54
L473.8 173.052
L474.402 173.141
L475.004 173.089
L475.605 172.877
L476.809 172.709
L477.411 172.866
L478.012 171.873
L478.614 173.246
L479.216 172.907
L479.818 172.063
L480.419 172.956
L481.021 172.284
L481.623 172.264
L482.225 173.121
L483.428 172.28
L484.03 172.799
L484.632 172.529
L485.233 172.914
L485.835 172.066
L486.437 172.089
L487.039 173.136
L487.64 173.423
L488.242 173.111
L488.844 173.536
L489.445 172.303
L490.047 172.757
L490.649 173.496
L491.251 173.293
L491.852 172.928
L492.454 173.126
L493.056 173.027
L493.657 173.374
L494.259 174.377
L494.861 173.568
L495.462 173.12
L496.666 173.424
L497.268 172.809
L497.869 173.844
L498.471 174.074
L499.073 173.115
L499.674 173.39
L500.276 174.536
L500.878 173.606
L501.479 173.346
L502.081 174.628
L502.682 174.134
L503.284 174.79
L503.886 173.789
L504.487 174.559
L505.089 175.716
L505.691 173.737
L506.292 173.868
L507.496 173.777
L508.097 175.11
L508.699 174.465
L509.3 175.318
L509.902 175.255
L510.504 175.534
L511.105 175.077
L511.707 176.302
L512.309 176.256
L512.91 173.984
L513.512 174.076
L514.113 175.458
L514.715 176.105
L515.316 174.667
L515.918 174.566
L516.52 176.623
L517.121 177.866
L517.723 185.157
L517.723 185.157" style="fill:none;stroke:#0000ff;stroke-linecap:square;"/>
   </g>
   <g id="matplotlib.axis_1">
    <g id="xtick_1">
     <g id="line2d_2">
      <defs>
       <path d="
M0 0
L0 -4" id="m93b0483c22" style="stroke:#000000;stroke-width:0.5;"/>
      </defs>
      <g>
       <use style="stroke:#000000;stroke-width:0.5;" x="72.0" xlink:href="#m93b0483c22" y="388.8"/>
      </g>
     </g>
     <g id="line2d_3">
      <defs>
       <path d="
M0 0
L0 4" id="m741efc42ff" style="stroke:#000000;stroke-width:0.5;"/>
      </defs>
      <g>
       <use style="stroke:#000000;stroke-width:0.5;" x="72.0" xlink:href="#m741efc42ff" y="43.2"/>
      </g>
     </g>
     <g id="text_1">
      <!-- 0 -->
      <defs>
       <path d="
M31.7812 66.4062
Q24.1719 66.4062 20.3281 58.9062
Q16.5 51.4219 16.5 36.375
Q16.5 21.3906 20.3281 13.8906
Q24.1719 6.39062 31.7812 6.39062
Q39.4531 6.39062 43.2812 13.8906
Q47.125 21.3906 47.125 36.375
Q47.125 51.4219 43.2812 58.9062
Q39.4531 66.4062 31.7812 66.4062
M31.7812 74.2188
Q44.0469 74.2188 50.5156 64.5156
Q56.9844 54.8281 56.9844 36.375
Q56.9844 17.9688 50.5156 8.26562
Q44.0469 -1.42188 31.7812 -1.42188
Q19.5312 -1.42188 13.0625 8.26562
Q6.59375 17.9688 6.59375 36.375
Q6.59375 54.8281 13.0625 64.5156
Q19.5312 74.2188 31.7812 74.2188" id="DejaVuSans-30"/>
      </defs>
      <g transform="translate(68.9765625 401.918125)scale(0.12 -0.12)">
       <use xlink:href="#DejaVuSans-30"/>
      </g>
     </g>
    </g>
    <g id="xtick_2">
     <g id="line2d_4">
      <g>
       <use style="stroke:#000000;stroke-width:0.5;" x="161.28" xlink:href="#m93b0483c22" y="388.8"/>
      </g>
     </g>
     <g id="line2d_5">
      <g>
       <use style="stroke:#000000;stroke-width:0.5;" x="161.28" xlink:href="#m741efc42ff" y="43.2"/>
      </g>
     </g>
     <g id="text_2">
      <!-- 1 -->
      <defs>
       <path d="
M12.4062 8.29688
L28.5156 8.29688
L28.5156 63.9219
L10.9844 60.4062
L10.9844 69.3906
L28.4219 72.9062
L38.2812 72.9062
L38.2812 8.29688
L54.3906 8.29688
L54.3906 0
L12.4062 0
z
" id="DejaVuSans-31"/>
      </defs>
      <g transform="translate(158.675625 401.918125)scale(0.12 -0.12)">
       <use xlink:href="#DejaVuSans-31"/>
      </g>
     </g>
    </g>
    <g id="xtick_3">
     <g id="line2d_6">
      <g>
       <use style="stroke:#000000;stroke-width:0.5;" x="250.56" xlink:href="#m93b0483c22" y="388.8"/>
      </g>
     </g>
     <g id="line2d_7">
      <g>
       <use style="stroke:#000000;stroke-width:0.5;" x="250.56" xlink:href="#m741efc42ff" y="43.2"/>
      </g>
     </g>
     <g id="text_3">
      <!-- 2 -->
      <defs>
       <path d="
M19.1875 8.29688
L53.6094 8.29688
L53.6094 0
L7.32812 0
L7.32812 8.29688
Q12.9375 14.1094 22.625 23.8906
Q32.3281 33.6875 34.8125 36.5312
Q39.5469 41.8438 41.4219 45.5312
Q43.3125 49.2188 43.3125 52.7812
Q43.3125 58.5938 39.2344 62.25
Q35.1562 65.9219 28.6094 65.9219
Q23.9688 65.9219 18.8125 64.3125
Q13.6719 62.7031 7.8125 59.4219
L7.8125 69.3906
Q13.7656 71.7812 18.9375 73
Q24.125 74.2188 28.4219 74.2188
Q39.75 74.2188 46.4844 68.5469
Q53.2188 62.8906 53.2188 53.4219
Q53.2188 48.9219 51.5312 44.8906
Q49.8594 40.875 45.4062 35.4062
Q44.1875 33.9844 37.6406 27.2188
Q31.1094 20.4531 19.1875 8.29688" id="DejaVuSans-32"/>
      </defs>
      <g transform="translate(247.783125 401.918125)scale(0.12 -0.12)">
       <use xlink:href="#DejaVuSans-32"/>
      </g>
     </g>
    </g>
    <g id="xtick_4">
     <g id="line2d_8">
      <g>
       <use style="stroke:#000000;stroke-width:0.5;" x="339.84" xlink:href="#m93b0483c22" y="388.8"/>
      </g>
     </g>
     <g id="line2d_9">
      <g>
       <use style="stroke:#000000;stroke-width:0.5;" x="339.84" xlink:href="#m741efc42ff" y="43.2"/>
      </g>
     </g>
     <g id="text_4">
      <!-- 3 -->
      <defs>
       <path d="
M40.5781 39.3125
Q47.6562 37.7969 51.625 33
Q55.6094 28.2188 55.6094 21.1875
Q55.6094 10.4062 48.1875 4.48438
Q40.7656 -1.42188 27.0938 -1.42188
Q22.5156 -1.42188 17.6562 -0.515625
Q12.7969 0.390625 7.625 2.20312
L7.625 11.7188
Q11.7188 9.32812 16.5938 8.10938
Q21.4844 6.89062 26.8125 6.89062
Q36.0781 6.89062 40.9375 10.5469
Q45.7969 14.2031 45.7969 21.1875
Q45.7969 27.6406 41.2812 31.2656
Q36.7656 34.9062 28.7188 34.9062
L20.2188 34.9062
L20.2188 43.0156
L29.1094 43.0156
Q36.375 43.0156 40.2344 45.9219
Q44.0938 48.8281 44.0938 54.2969
Q44.0938 59.9062 40.1094 62.9062
Q36.1406 65.9219 28.7188 65.9219
Q24.6562 65.9219 20.0156 65.0312
Q15.375 64.1562 9.8125 62.3125
L9.8125 71.0938
Q15.4375 72.6562 20.3438 73.4375
Q25.25 74.2188 29.5938 74.2188
Q40.8281 74.2188 47.3594 69.1094
Q53.9062 64.0156 53.9062 55.3281
Q53.9062 49.2656 50.4375 45.0938
Q46.9688 40.9219 40.5781 39.3125" id="DejaVuSans-33"/>
      </defs>
      <g transform="translate(336.9609375 401.918125)scale(0.12 -0.12)">
       <use xlink:href="#DejaVuSans-33"/>
      </g>
     </g>
    </g>
    <g id="xtick_5">
     <g id="line2d_10">
      <g>
       <use style="stroke:#000000;stroke-width:0.5;" x="429.12" xlink:href="#m93b0483c22" y="388.8"/>
      </g>
     </g>
     <g id="line2d_11">
      <g>
       <use style="stroke:#000000;stroke-width:0.5;" x="429.12" xlink:href="#m741efc42ff" y="43.2"/>
      </g>
     </g>
     <g id="text_5">
      <!-- 4 -->
      <defs>
       <path d="
M37.7969 64.3125
L12.8906 25.3906
L37.7969 25.3906
z

M35.2031 72.9062
L47.6094 72.9062
L47.6094 25.3906
L58.0156 25.3906
L58.0156 17.1875
L47.6094 17.1875
L47.6094 0
L37.7969 0
L37.7969 17.1875
L4.89062 17.1875
L4.89062 26.7031
z
" id="DejaVuSans-34"/>
      </defs>
      <g transform="translate(425.9325 401.918125)scale(0.12 -0.12)">
       <use xlink:href="#DejaVuSans-34"/>
      </g>
     </g>
    </g>
    <g id="xtick_6">
     <g id="line2d_12">
      <g>
       <use style="stroke:#000000;stroke-width:0.5;" x="518.4" xlink:href="#m93b0483c22" y="388.8"/>
      </g>
     </g>
     <g id="line2d_13">
      <g>
       <use style="stroke:#000000;stroke-width:0.5;" x="518.4" xlink:href="#m741efc42ff" y="43.2"/>
      </g>
     </g>
     <g id="text_6">
      <!-- 5 -->
      <defs>
       <path d="
M10.7969 72.9062
L49.5156 72.9062
L49.5156 64.5938
L19.8281 64.5938
L19.8281 46.7344
Q21.9688 47.4688 24.1094 47.8281
Q26.2656 48.1875 28.4219 48.1875
Q40.625 48.1875 47.75 41.5
Q54.8906 34.8125 54.8906 23.3906
Q54.8906 11.625 47.5625 5.09375
Q40.2344 -1.42188 26.9062 -1.42188
Q22.3125 -1.42188 17.5469 -0.640625
Q12.7969 0.140625 7.71875 1.70312
L7.71875 11.625
Q12.1094 9.23438 16.7969 8.0625
Q21.4844 6.89062 26.7031 6.89062
Q35.1562 6.89062 40.0781 11.3281
Q45.0156 15.7656 45.0156 23.3906
Q45.0156 31 40.0781 35.4375
Q35.1562 39.8906 26.7031 39.8906
Q22.75 39.8906 18.8125 39.0156
Q14.8906 38.1406 10.7969 36.2812
z
" id="DejaVuSans-35"/>
      </defs>
      <g transform="translate(515.5696875 401.918125)scale(0.12 -0.12)">
       <use xlink:href="#DejaVuSans-35"/>
      </g>
     </g>
    </g>
    <g id="text_7">
     <!-- q [1/nm] -->
     <defs>
      <path d="
M25.3906 72.9062
L33.6875 72.9062
L8.29688 -9.28125
L0 -9.28125
z
" id="DejaVuSans-2f"/>
      <path d="
M8.59375 75.9844
L29.2969 75.9844
L29.2969 69
L17.5781 69
L17.5781 -6.20312
L29.2969 -6.20312
L29.2969 -13.1875
L8.59375 -13.1875
z
" id="DejaVuSans-5b"/>
      <path d="
M52 44.1875
Q55.375 50.25 60.0625 53.125
Q64.75 56 71.0938 56
Q79.6406 56 84.2812 50.0156
Q88.9219 44.0469 88.9219 33.0156
L88.9219 0
L79.8906 0
L79.8906 32.7188
Q79.8906 40.5781 77.0938 44.375
Q74.3125 48.1875 68.6094 48.1875
Q61.625 48.1875 57.5625 43.5469
Q53.5156 38.9219 53.5156 30.9062
L53.5156 0
L44.4844 0
L44.4844 32.7188
Q44.4844 40.625 41.7031 44.4062
Q38.9219 48.1875 33.1094 48.1875
Q26.2188 48.1875 22.1562 43.5312
Q18.1094 38.875 18.1094 30.9062
L18.1094 0
L9.07812 0
L9.07812 54.6875
L18.1094 54.6875
L18.1094 46.1875
Q21.1875 51.2188 25.4844 53.6094
Q29.7812 56 35.6875 56
Q41.6562 56 45.8281 52.9688
Q50 49.9531 52 44.1875" id="DejaVuSans-6d"/>
      <path d="
M54.8906 33.0156
L54.8906 0
L45.9062 0
L45.9062 32.7188
Q45.9062 40.4844 42.875 44.3281
Q39.8438 48.1875 33.7969 48.1875
Q26.5156 48.1875 22.3125 43.5469
Q18.1094 38.9219 18.1094 30.9062
L18.1094 0
L9.07812 0
L9.07812 54.6875
L18.1094 54.6875
L18.1094 46.1875
Q21.3438 51.125 25.7031 53.5625
Q30.0781 56 35.7969 56
Q45.2188 56 50.0469 50.1719
Q54.8906 44.3438 54.8906 33.0156" id="DejaVuSans-6e"/>
      <path d="
M30.4219 75.9844
L30.4219 -13.1875
L9.71875 -13.1875
L9.71875 -6.20312
L21.3906 -6.20312
L21.3906 69
L9.71875 69
L9.71875 75.9844
z
" id="DejaVuSans-5d"/>
      <path id="DejaVuSans-20"/>
      <path d="
M14.7969 27.2969
Q14.7969 17.3906 18.875 11.75
Q22.9531 6.10938 30.0781 6.10938
Q37.2031 6.10938 41.2969 11.75
Q45.4062 17.3906 45.4062 27.2969
Q45.4062 37.2031 41.2969 42.8438
Q37.2031 48.4844 30.0781 48.4844
Q22.9531 48.4844 18.875 42.8438
Q14.7969 37.2031 14.7969 27.2969
M45.4062 8.20312
Q42.5781 3.32812 38.25 0.953125
Q33.9375 -1.42188 27.875 -1.42188
Q17.9688 -1.42188 11.7344 6.48438
Q5.51562 14.4062 5.51562 27.2969
Q5.51562 40.1875 11.7344 48.0938
Q17.9688 56 27.875 56
Q33.9375 56 38.25 53.625
Q42.5781 51.2656 45.4062 46.3906
L45.4062 54.6875
L54.3906 54.6875
L54.3906 -20.7969
L45.4062 -20.7969
z
" id="DejaVuSans-71"/>
     </defs>
     <g transform="translate(269.8321875 418.531875)scale(0.12 -0.12)">
      <use xlink:href="#DejaVuSans-71"/>
      <use x="63.4765625" xlink:href="#DejaVuSans-20"/>
      <use x="95.263671875" xlink:href="#DejaVuSans-5b"/>
      <use x="134.27734375" xlink:href="#DejaVuSans-31"/>
      <use x="197.900390625" xlink:href="#DejaVuSans-2f"/>
      <use x="231.591796875" xlink:href="#DejaVuSans-6e"/>
      <use x="294.970703125" xlink:href="#DejaVuSans-6d"/>
      <use x="392.3828125" xlink:href="#DejaVuSans-5d"/>
     </g>
    </g>
   </g>
   <g id="matplotlib.axis_2">
    <g id="ytick_1">
     <g id="line2d_14">
      <defs>
       <path d="
M0 0
L4 0" id="m728421d6d4" style="stroke:#000000;stroke-width:0.5;"/>
      </defs>
      <g>
       <use style="stroke:#000000;stroke-width:0.5;" x="72.0" xlink:href="#m728421d6d4" y="388.8"/>
      </g>
     </g>
     <g id="line2d_15">
      <defs>
       <path d="
M0 0
L-4 0" id="mcb0005524f" style="stroke:#000000;stroke-width:0.5;"/>
      </defs>
      <g>
       <use style="stroke:#000000;stroke-width:0.5;" x="518.4" xlink:href="#mcb0005524f" y="388.8"/>
      </g>
     </g>
     <g id="text_8">
      <!-- $\mathdefault{10^{0}}$ -->
      <g transform="translate(46.04 393.024375)scale(0.12 -0.12)">
       <use transform="translate(0.0 0.234375)" xlink:href="#DejaVuSans-31"/>
       <use transform="translate(63.623046875 0.234375)" xlink:href="#DejaVuSans-30"/>
       <use transform="translate(127.24609375 58.046875)scale(0.7)" xlink:href="#DejaVuSans-30"/>
      </g>
     </g>
    </g>
    <g id="ytick_2">
     <g id="line2d_16">
      <g>
       <use style="stroke:#000000;stroke-width:0.5;" x="72.0" xlink:href="#m728421d6d4" y="273.6"/>
      </g>
     </g>
     <g id="line2d_17">
      <g>
       <use style="stroke:#000000;stroke-width:0.5;" x="518.4" xlink:href="#mcb0005524f" y="273.6"/>
      </g>
     </g>
     <g id="text_9">
      <!-- $\mathdefault{10^{1}}$ -->
      <g transform="translate(46.04 277.764375)scale(0.12 -0.12)">
       <use transform="translate(0.0 0.153125)" xlink:href="#DejaVuSans-31"/>
       <use transform="translate(63.623046875 0.153125)" xlink:href="#DejaVuSans-30"/>
       <use transform="translate(127.24609375 57.965625)scale(0.7)" xlink:href="#DejaVuSans-31"/>
      </g>
     </g>
    </g>
    <g id="ytick_3">
     <g id="line2d_18">
      <g>
       <use style="stroke:#000000;stroke-width:0.5;" x="72.0" xlink:href="#m728421d6d4" y="158.4"/>
      </g>
     </g>
     <g id="line2d_19">
      <g>
       <use style="stroke:#000000;stroke-width:0.5;" x="518.4" xlink:href="#mcb0005524f" y="158.4"/>
      </g>
     </g>
     <g id="text_10">
      <!-- $\mathdefault{10^{2}}$ -->
      <g transform="translate(46.04 162.624375)scale(0.12 -0.12)">
       <use transform="translate(0.0 0.234375)" xlink:href="#DejaVuSans-31"/>
       <use transform="translate(63.623046875 0.234375)" xlink:href="#DejaVuSans-30"/>
       <use transform="translate(127.24609375 58.046875)scale(0.7)" xlink:href="#DejaVuSans-32"/>
      </g>
     </g>
    </g>
    <g id="ytick_4">
     <g id="line2d_20">
      <g>
       <use style="stroke:#000000;stroke-width:0.5;" x="72.0" xlink:href="#m728421d6d4" y="43.2"/>
      </g>
     </g>
     <g id="line2d_21">
      <g>
       <use style="stroke:#000000;stroke-width:0.5;" x="518.4" xlink:href="#mcb0005524f" y="43.2"/>
      </g>
     </g>
     <g id="text_11">
      <!-- $\mathdefault{10^{3}}$ -->
      <g transform="translate(46.04 47.424375)scale(0.12 -0.12)">
       <use transform="translate(0.0 0.234375)" xlink:href="#DejaVuSans-31"/>
       <use transform="translate(63.623046875 0.234375)" xlink:href="#DejaVuSans-30"/>
       <use transform="translate(127.24609375 58.046875)scale(0.7)" xlink:href="#DejaVuSans-33"/>
      </g>
     </g>
    </g>
    <g id="ytick_5">
     <g id="line2d_22">
      <defs>
       <path d="
M0 0
L2 0" id="mf0c55a9a47" style="stroke:#000000;stroke-width:0.5;"/>
      </defs>
      <g>
       <use style="stroke:#000000;stroke-width:0.5;" x="72.0" xlink:href="#mf0c55a9a47" y="354.1213445"/>
      </g>
     </g>
     <g id="line2d_23">
      <defs>
       <path d="
M0 0
L-2 0" id="ma4f294b3af" style="stroke:#000000;stroke-width:0.5;"/>
      </defs>
      <g>
       <use style="stroke:#000000;stroke-width:0.5;" x="518.4" xlink:href="#ma4f294b3af" y="354.1213445"/>
      </g>
     </g>
    </g>
    <g id="ytick_6">
     <g id="line2d_24">
      <g>
       <use style="stroke:#000000;stroke-width:0.5;" x="72.0" xlink:href="#mf0c55a9a47" y="333.835631456"/>
      </g>
     </g>
     <g id="line2d_25">
      <g>
       <use style="stroke:#000000;stroke-width:0.5;" x="518.4" xlink:href="#ma4f294b3af" y="333.835631456"/>
      </g>
     </g>
    </g>
    <g id="ytick_7">
     <g id="line2d_26">
      <g>
       <use style="stroke:#000000;stroke-width:0.5;" x="72.0" xlink:href="#mf0c55a9a47" y="319.442688999"/>
      </g>
     </g>
     <g id="line2d_27">
      <g>
       <use style="stroke:#000000;stroke-width:0.5;" x="518.4" xlink:href="#ma4f294b3af" y="319.442688999"/>
      </g>
     </g>
    </g>
    <g id="ytick_8">
     <g id="line2d_28">
      <g>
       <use style="stroke:#000000;stroke-width:0.5;" x="72.0" xlink:href="#mf0c55a9a47" y="308.2786555"/>
      </g>
     </g>
     <g id="line2d_29">
      <g>
       <use style="stroke:#000000;stroke-width:0.5;" x="518.4" xlink:href="#ma4f294b3af" y="308.2786555"/>
      </g>
     </g>
    </g>
    <g id="ytick_9">
     <g id="line2d_30">
      <g>
       <use style="stroke:#000000;stroke-width:0.5;" x="72.0" xlink:href="#mf0c55a9a47" y="299.156975956"/>
      </g>
     </g>
     <g id="line2d_31">
      <g>
       <use style="stroke:#000000;stroke-width:0.5;" x="518.4" xlink:href="#ma4f294b3af" y="299.156975956"/>
      </g>
     </g>
    </g>
    <g id="ytick_10">
     <g id="line2d_32">
      <g>
       <use style="stroke:#000000;stroke-width:0.5;" x="72.0" xlink:href="#mf0c55a9a47" y="291.44470579"/>
      </g>
     </g>
     <g id="line2d_33">
      <g>
       <use style="stroke:#000000;stroke-width:0.5;" x="518.4" xlink:href="#ma4f294b3af" y="291.44470579"/>
      </g>
     </g>
    </g>
    <g id="ytick_11">
     <g id="line2d_34">
      <g>
       <use style="stroke:#000000;stroke-width:0.5;" x="72.0" xlink:href="#mf0c55a9a47" y="284.764033499"/>
      </g>
     </g>
     <g id="line2d_35">
      <g>
       <use style="stroke:#000000;stroke-width:0.5;" x="518.4" xlink:href="#ma4f294b3af" y="284.764033499"/>
      </g>
     </g>
    </g>
    <g id="ytick_12">
     <g id="line2d_36">
      <g>
       <use style="stroke:#000000;stroke-width:0.5;" x="72.0" xlink:href="#mf0c55a9a47" y="278.871262913"/>
      </g>
     </g>
     <g id="line2d_37">
      <g>
       <use style="stroke:#000000;stroke-width:0.5;" x="518.4" xlink:href="#ma4f294b3af" y="278.871262913"/>
      </g>
     </g>
    </g>
    <g id="ytick_13">
     <g id="line2d_38">
      <g>
       <use style="stroke:#000000;stroke-width:0.5;" x="72.0" xlink:href="#mf0c55a9a47" y="238.9213445"/>
      </g>
     </g>
     <g id="line2d_39">
      <g>
       <use style="stroke:#000000;stroke-width:0.5;" x="518.4" xlink:href="#ma4f294b3af" y="238.9213445"/>
      </g>
     </g>
    </g>
    <g id="ytick_14">
     <g id="line2d_40">
      <g>
       <use style="stroke:#000000;stroke-width:0.5;" x="72.0" xlink:href="#mf0c55a9a47" y="218.635631456"/>
      </g>
     </g>
     <g id="line2d_41">
      <g>
       <use style="stroke:#000000;stroke-width:0.5;" x="518.4" xlink:href="#ma4f294b3af" y="218.635631456"/>
      </g>
     </g>
    </g>
    <g id="ytick_15">
     <g id="line2d_42">
      <g>
       <use style="stroke:#000000;stroke-width:0.5;" x="72.0" xlink:href="#mf0c55a9a47" y="204.242688999"/>
      </g>
     </g>
     <g id="line2d_43">
      <g>
       <use style="stroke:#000000;stroke-width:0.5;" x="518.4" xlink:href="#ma4f294b3af" y="204.242688999"/>
      </g>
     </g>
    </g>
    <g id="ytick_16">
     <g id="line2d_44">
      <g>
       <use style="stroke:#000000;stroke-width:0.5;" x="72.0" xlink:href="#mf0c55a9a47" y="193.0786555"/>
      </g>
     </g>
     <g id="line2d_45">
      <g>
       <use style="stroke:#000000;stroke-width:0.5;" x="518.4" xlink:href="#ma4f294b3af" y="193.0786555"/>
      </g>
     </g>
    </g>
    <g id="ytick_17">
     <g id="line2d_46">
      <g>
       <use style="stroke:#000000;stroke-width:0.5;" x="72.0" xlink:href="#mf0c55a9a47" y="183.956975956"/>
      </g>
     </g>
     <g id="line2d_47">
      <g>
       <use style="stroke:#000000;stroke-width:0.5;" x="518.4" xlink:href="#ma4f294b3af" y="183.956975956"/>
      </g>
     </g>
    </g>
    <g id="ytick_18">
     <g id="line2d_48">
      <g>
       <use style="stroke:#000000;stroke-width:0.5;" x="72.0" xlink:href="#mf0c55a9a47" y="176.24470579"/>
      </g>
     </g>
     <g id="line2d_49">
      <g>
       <use style="stroke:#000000;stroke-width:0.5;" x="518.4" xlink:href="#ma4f294b3af" y="176.24470579"/>
      </g>
     </g>
    </g>
    <g id="ytick_19">
     <g id="line2d_50">
      <g>
       <use style="stroke:#000000;stroke-width:0.5;" x="72.0" xlink:href="#mf0c55a9a47" y="169.564033499"/>
      </g>
     </g>
     <g id="line2d_51">
      <g>
       <use style="stroke:#000000;stroke-width:0.5;" x="518.4" xlink:href="#ma4f294b3af" y="169.564033499"/>
      </g>
     </g>
    </g>
    <g id="ytick_20">
     <g id="line2d_52">
      <g>
       <use style="stroke:#000000;stroke-width:0.5;" x="72.0" xlink:href="#mf0c55a9a47" y="163.671262913"/>
      </g>
     </g>
     <g id="line2d_53">
      <g>
       <use style="stroke:#000000;stroke-width:0.5;" x="518.4" xlink:href="#ma4f294b3af" y="163.671262913"/>
      </g>
     </g>
    </g>
    <g id="ytick_21">
     <g id="line2d_54">
      <g>
       <use style="stroke:#000000;stroke-width:0.5;" x="72.0" xlink:href="#mf0c55a9a47" y="123.7213445"/>
      </g>
     </g>
     <g id="line2d_55">
      <g>
       <use style="stroke:#000000;stroke-width:0.5;" x="518.4" xlink:href="#ma4f294b3af" y="123.7213445"/>
      </g>
     </g>
    </g>
    <g id="ytick_22">
     <g id="line2d_56">
      <g>
       <use style="stroke:#000000;stroke-width:0.5;" x="72.0" xlink:href="#mf0c55a9a47" y="103.435631456"/>
      </g>
     </g>
     <g id="line2d_57">
      <g>
       <use style="stroke:#000000;stroke-width:0.5;" x="518.4" xlink:href="#ma4f294b3af" y="103.435631456"/>
      </g>
     </g>
    </g>
    <g id="ytick_23">
     <g id="line2d_58">
      <g>
       <use style="stroke:#000000;stroke-width:0.5;" x="72.0" xlink:href="#mf0c55a9a47" y="89.042688999"/>
      </g>
     </g>
     <g id="line2d_59">
      <g>
       <use style="stroke:#000000;stroke-width:0.5;" x="518.4" xlink:href="#ma4f294b3af" y="89.042688999"/>
      </g>
     </g>
    </g>
    <g id="ytick_24">
     <g id="line2d_60">
      <g>
       <use style="stroke:#000000;stroke-width:0.5;" x="72.0" xlink:href="#mf0c55a9a47" y="77.8786555005"/>
      </g>
     </g>
     <g id="line2d_61">
      <g>
       <use style="stroke:#000000;stroke-width:0.5;" x="518.4" xlink:href="#ma4f294b3af" y="77.8786555005"/>
      </g>
     </g>
    </g>
    <g id="ytick_25">
     <g id="line2d_62">
      <g>
       <use style="stroke:#000000;stroke-width:0.5;" x="72.0" xlink:href="#mf0c55a9a47" y="68.7569759558"/>
      </g>
     </g>
     <g id="line2d_63">
      <g>
       <use style="stroke:#000000;stroke-width:0.5;" x="518.4" xlink:href="#ma4f294b3af" y="68.7569759558"/>
      </g>
     </g>
    </g>
    <g id="ytick_26">
     <g id="line2d_64">
      <g>
       <use style="stroke:#000000;stroke-width:0.5;" x="72.0" xlink:href="#mf0c55a9a47" y="61.0447057904"/>
      </g>
     </g>
     <g id="line2d_65">
      <g>
       <use style="stroke:#000000;stroke-width:0.5;" x="518.4" xlink:href="#ma4f294b3af" y="61.0447057904"/>
      </g>
     </g>
    </g>
    <g id="ytick_27">
     <g id="line2d_66">
      <g>
       <use style="stroke:#000000;stroke-width:0.5;" x="72.0" xlink:href="#mf0c55a9a47" y="54.3640334985"/>
      </g>
     </g>
     <g id="line2d_67">
      <g>
       <use style="stroke:#000000;stroke-width:0.5;" x="518.4" xlink:href="#ma4f294b3af" y="54.3640334985"/>
      </g>
     </g>
    </g>
    <g id="ytick_28">
     <g id="line2d_68">
      <g>
       <use style="stroke:#000000;stroke-width:0.5;" x="72.0" xlink:href="#mf0c55a9a47" y="48.4712629126"/>
      </g>
     </g>
     <g id="line2d_69">
      <g>
       <use style="stroke:#000000;stroke-width:0.5;" x="518.4" xlink:href="#ma4f294b3af" y="48.4712629126"/>
      </g>
     </g>
    </g>
    <g id="text_12">
     <!-- Intensity [counts/pixel] -->
     <defs>
      <path d="
M30.6094 48.3906
Q23.3906 48.3906 19.1875 42.75
Q14.9844 37.1094 14.9844 27.2969
Q14.9844 17.4844 19.1562 11.8438
Q23.3438 6.20312 30.6094 6.20312
Q37.7969 6.20312 41.9844 11.8594
Q46.1875 17.5312 46.1875 27.2969
Q46.1875 37.0156 41.9844 42.7031
Q37.7969 48.3906 30.6094 48.3906
M30.6094 56
Q42.3281 56 49.0156 48.375
Q55.7188 40.7656 55.7188 27.2969
Q55.7188 13.875 49.0156 6.21875
Q42.3281 -1.42188 30.6094 -1.42188
Q18.8438 -1.42188 12.1719 6.21875
Q5.51562 13.875 5.51562 27.2969
Q5.51562 40.7656 12.1719 48.375
Q18.8438 56 30.6094 56" id="DejaVuSans-6f"/>
      <path d="
M9.42188 75.9844
L18.4062 75.9844
L18.4062 0
L9.42188 0
z
" id="DejaVuSans-6c"/>
      <path d="
M48.7812 52.5938
L48.7812 44.1875
Q44.9688 46.2969 41.1406 47.3438
Q37.3125 48.3906 33.4062 48.3906
Q24.6562 48.3906 19.8125 42.8438
Q14.9844 37.3125 14.9844 27.2969
Q14.9844 17.2812 19.8125 11.7344
Q24.6562 6.20312 33.4062 6.20312
Q37.3125 6.20312 41.1406 7.25
Q44.9688 8.29688 48.7812 10.4062
L48.7812 2.09375
Q45.0156 0.34375 40.9844 -0.53125
Q36.9688 -1.42188 32.4219 -1.42188
Q20.0625 -1.42188 12.7812 6.34375
Q5.51562 14.1094 5.51562 27.2969
Q5.51562 40.6719 12.8594 48.3281
Q20.2188 56 33.0156 56
Q37.1562 56 41.1094 55.1406
Q45.0625 54.2969 48.7812 52.5938" id="DejaVuSans-63"/>
      <path d="
M32.1719 -5.07812
Q28.375 -14.8438 24.75 -17.8125
Q21.1406 -20.7969 15.0938 -20.7969
L7.90625 -20.7969
L7.90625 -13.2812
L13.1875 -13.2812
Q16.8906 -13.2812 18.9375 -11.5156
Q21 -9.76562 23.4844 -3.21875
L25.0938 0.875
L2.98438 54.6875
L12.5 54.6875
L29.5938 11.9219
L46.6875 54.6875
L56.2031 54.6875
z
" id="DejaVuSans-79"/>
      <path d="
M54.8906 54.6875
L35.1094 28.0781
L55.9062 0
L45.3125 0
L29.3906 21.4844
L13.4844 0
L2.875 0
L24.125 28.6094
L4.6875 54.6875
L15.2812 54.6875
L29.7812 35.2031
L44.2812 54.6875
z
" id="DejaVuSans-78"/>
      <path d="
M9.42188 54.6875
L18.4062 54.6875
L18.4062 0
L9.42188 0
z

M9.42188 75.9844
L18.4062 75.9844
L18.4062 64.5938
L9.42188 64.5938
z
" id="DejaVuSans-69"/>
      <path d="
M8.5 21.5781
L8.5 54.6875
L17.4844 54.6875
L17.4844 21.9219
Q17.4844 14.1562 20.5 10.2656
Q23.5312 6.39062 29.5938 6.39062
Q36.8594 6.39062 41.0781 11.0312
Q45.3125 15.6719 45.3125 23.6875
L45.3125 54.6875
L54.2969 54.6875
L54.2969 0
L45.3125 0
L45.3125 8.40625
Q42.0469 3.42188 37.7188 1
Q33.4062 -1.42188 27.6875 -1.42188
Q18.2656 -1.42188 13.375 4.4375
Q8.5 10.2969 8.5 21.5781
M31.1094 56
z
" id="DejaVuSans-75"/>
      <path d="
M18.3125 70.2188
L18.3125 54.6875
L36.8125 54.6875
L36.8125 47.7031
L18.3125 47.7031
L18.3125 18.0156
Q18.3125 11.3281 20.1406 9.42188
Q21.9688 7.51562 27.5938 7.51562
L36.8125 7.51562
L36.8125 0
L27.5938 0
Q17.1875 0 13.2344 3.875
Q9.28125 7.76562 9.28125 18.0156
L9.28125 47.7031
L2.6875 47.7031
L2.6875 54.6875
L9.28125 54.6875
L9.28125 70.2188
z
" id="DejaVuSans-74"/>
      <path d="
M56.2031 29.5938
L56.2031 25.2031
L14.8906 25.2031
Q15.4844 15.9219 20.4844 11.0625
Q25.4844 6.20312 34.4219 6.20312
Q39.5938 6.20312 44.4531 7.46875
Q49.3125 8.73438 54.1094 11.2812
L54.1094 2.78125
Q49.2656 0.734375 44.1875 -0.34375
Q39.1094 -1.42188 33.8906 -1.42188
Q20.7969 -1.42188 13.1562 6.1875
Q5.51562 13.8125 5.51562 26.8125
Q5.51562 40.2344 12.7656 48.1094
Q20.0156 56 32.3281 56
Q43.3594 56 49.7812 48.8906
Q56.2031 41.7969 56.2031 29.5938
M47.2188 32.2344
Q47.125 39.5938 43.0938 43.9844
Q39.0625 48.3906 32.4219 48.3906
Q24.9062 48.3906 20.3906 44.1406
Q15.875 39.8906 15.1875 32.1719
z
" id="DejaVuSans-65"/>
      <path d="
M9.8125 72.9062
L19.6719 72.9062
L19.6719 0
L9.8125 0
z
" id="DejaVuSans-49"/>
      <path d="
M44.2812 53.0781
L44.2812 44.5781
Q40.4844 46.5312 36.375 47.5
Q32.2812 48.4844 27.875 48.4844
Q21.1875 48.4844 17.8438 46.4375
Q14.5 44.3906 14.5 40.2812
Q14.5 37.1562 16.8906 35.375
Q19.2812 33.5938 26.5156 31.9844
L29.5938 31.2969
Q39.1562 29.25 43.1875 25.5156
Q47.2188 21.7812 47.2188 15.0938
Q47.2188 7.46875 41.1875 3.01562
Q35.1562 -1.42188 24.6094 -1.42188
Q20.2188 -1.42188 15.4531 -0.5625
Q10.6875 0.296875 5.42188 2
L5.42188 11.2812
Q10.4062 8.6875 15.2344 7.39062
Q20.0625 6.10938 24.8125 6.10938
Q31.1562 6.10938 34.5625 8.28125
Q37.9844 10.4531 37.9844 14.4062
Q37.9844 18.0625 35.5156 20.0156
Q33.0625 21.9688 24.7031 23.7812
L21.5781 24.5156
Q13.2344 26.2656 9.51562 29.9062
Q5.8125 33.5469 5.8125 39.8906
Q5.8125 47.6094 11.2812 51.7969
Q16.75 56 26.8125 56
Q31.7812 56 36.1719 55.2656
Q40.5781 54.5469 44.2812 53.0781" id="DejaVuSans-73"/>
      <path d="
M18.1094 8.20312
L18.1094 -20.7969
L9.07812 -20.7969
L9.07812 54.6875
L18.1094 54.6875
L18.1094 46.3906
Q20.9531 51.2656 25.2656 53.625
Q29.5938 56 35.5938 56
Q45.5625 56 51.7812 48.0938
Q58.0156 40.1875 58.0156 27.2969
Q58.0156 14.4062 51.7812 6.48438
Q45.5625 -1.42188 35.5938 -1.42188
Q29.5938 -1.42188 25.2656 0.953125
Q20.9531 3.32812 18.1094 8.20312
M48.6875 27.2969
Q48.6875 37.2031 44.6094 42.8438
Q40.5312 48.4844 33.4062 48.4844
Q26.2656 48.4844 22.1875 42.8438
Q18.1094 37.2031 18.1094 27.2969
Q18.1094 17.3906 22.1875 11.75
Q26.2656 6.10938 33.4062 6.10938
Q40.5312 6.10938 44.6094 11.75
Q48.6875 17.3906 48.6875 27.2969" id="DejaVuSans-70"/>
     </defs>
     <g transform="translate(38.544375 284.4609375)rotate(-90.0)scale(0.12 -0.12)">
      <use xlink:href="#DejaVuSans-49"/>
      <use x="29.4921875" xlink:href="#DejaVuSans-6e"/>
      <use x="92.87109375" xlink:href="#DejaVuSans-74"/>
      <use x="132.080078125" xlink:href="#DejaVuSans-65"/>
      <use x="193.603515625" xlink:href="#DejaVuSans-6e"/>
      <use x="256.982421875" xlink:href="#DejaVuSans-73"/>
      <use x="309.08203125" xlink:href="#DejaVuSans-69"/>
      <use x="336.865234375" xlink:href="#DejaVuSans-74"/>
      <use x="376.07421875" xlink:href="#DejaVuSans-79"/>
      <use x="435.25390625" xlink:href="#DejaVuSans-20"/>
      <use x="467.041015625" xlink:href="#DejaVuSans-5b"/>
      <use x="506.0546875" xlink:href="#DejaVuSans-63"/>
      <use x="561.03515625" xlink:href="#DejaVuSans-6f"/>
      <use x="622.216796875" xlink:href="#DejaVuSans-75"/>
      <use x="685.595703125" xlink:href="#DejaVuSans-6e"/>
      <use x="748.974609375" xlink:href="#DejaVuSans-74"/>
      <use x="788.18359375" xlink:href="#DejaVuSans-73"/>
      <use x="840.283203125" xlink:href="#DejaVuSans-2f"/>
      <use x="873.974609375" xlink:href="#DejaVuSans-70"/>
      <use x="937.451171875" xlink:href="#DejaVuSans-69"/>
      <use x="965.234375" xlink:href="#DejaVuSans-78"/>
      <use x="1021.2890625" xlink:href="#DejaVuSans-65"/>
      <use x="1082.8125" xlink:href="#DejaVuSans-6c"/>
      <use x="1110.59570312" xlink:href="#DejaVuSans-5d"/>
     </g>
    </g>
   </g>
   <g id="patch_3">
    <path d="
M72 43.2
L518.4 43.2" style="fill:none;stroke:#000000;"/>
   </g>
   <g id="patch_4">
    <path d="
M518.4 388.8
L518.4 43.2" style="fill:none;stroke:#000000;"/>
   </g>
   <g id="patch_5">
    <path d="
M72 388.8
L518.4 388.8" style="fill:none;stroke:#000000;"/>
   </g>
   <g id="patch_6">
    <path d="
M72 388.8
L72 43.2" style="fill:none;stroke:#000000;"/>
   </g>
   <g id="text_13">
    <!-- bad.svg -->
    <defs>
     <path d="
M10.6875 12.4062
L21 12.4062
L21 0
L10.6875 0
z
" id="DejaVuSans-2e"/>
     <path d="
M45.4062 27.9844
Q45.4062 37.75 41.375 43.1094
Q37.3594 48.4844 30.0781 48.4844
Q22.8594 48.4844 18.8281 43.1094
Q14.7969 37.75 14.7969 27.9844
Q14.7969 18.2656 18.8281 12.8906
Q22.8594 7.51562 30.0781 7.51562
Q37.3594 7.51562 41.375 12.8906
Q45.4062 18.2656 45.4062 27.9844
M54.3906 6.78125
Q54.3906 -7.17188 48.1875 -13.9844
Q42 -20.7969 29.2031 -20.7969
Q24.4688 -20.7969 20.2656 -20.0938
Q16.0625 -19.3906 12.1094 -17.9219
L12.1094 -9.1875
Q16.0625 -11.3281 19.9219 -12.3438
Q23.7812 -13.375 27.7812 -13.375
Q36.625 -13.375 41.0156 -8.76562
Q45.4062 -4.15625 45.4062 5.17188
L45.4062 9.625
Q42.625 4.78125 38.2812 2.39062
Q33.9375 0 27.875 0
Q17.8281 0 11.6719 7.65625
Q5.51562 15.3281 5.51562 27.9844
Q5.51562 40.6719 11.6719 48.3281
Q17.8281 56 27.875 56
Q33.9375 56 38.2812 53.6094
Q42.625 51.2188 45.4062 46.3906
L45.4062 54.6875
L54.3906 54.6875
z
" id="DejaVuSans-67"/>
     <path d="
M45.4062 46.3906
L45.4062 75.9844
L54.3906 75.9844
L54.3906 0
L45.4062 0
L45.4062 8.20312
Q42.5781 3.32812 38.25 0.953125
Q33.9375 -1.42188 27.875 -1.42188
Q17.9688 -1.42188 11.7344 6.48438
Q5.51562 14.4062 5.51562 27.2969
Q5.51562 40.1875 11.7344 48.0938
Q17.9688 56 27.875 56
Q33.9375 56 38.25 53.625
Q42.5781 51.2656 45.4062 46.3906
M14.7969 27.2969
Q14.7969 17.3906 18.875 11.75
Q22.9531 6.10938 30.0781 6.10938
Q37.2031 6.10938 41.2969 11.75
Q45.4062 17.3906 45.4062 27.2969
Q45.4062 37.2031 41.2969 42.8438
Q37.2031 48.4844 30.0781 48.4844
Q22.9531 48.4844 18.875 42.8438
Q14.7969 37.2031 14.7969 27.2969" id="DejaVuSans-64"/>
     <path d="
M2.98438 54.6875
L12.5 54.6875
L29.5938 8.79688
L46.6875 54.6875
L56.2031 54.6875
L35.6875 0
L23.4844 0
z
" id="DejaVuSans-76"/>
     <path d="
M48.6875 27.2969
Q48.6875 37.2031 44.6094 42.8438
Q40.5312 48.4844 33.4062 48.4844
Q26.2656 48.4844 22.1875 42.8438
Q18.1094 37.2031 18.1094 27.2969
Q18.1094 17.3906 22.1875 11.75
Q26.2656 6.10938 33.4062 6.10938
Q40.5312 6.10938 44.6094 11.75
Q48.6875 17.3906 48.6875 27.2969
M18.1094 46.3906
Q20.9531 51.2656 25.2656 53.625
Q29.5938 56 35.5938 56
Q45.5625 56 51.7812 48.0938
Q58.0156 40.1875 58.0156 27.2969
Q58.0156 14.4062 51.7812 6.48438
Q45.5625 -1.42188 35.5938 -1.42188
Q29.5938 -1.42188 25.2656 0.953125
Q20.9531 3.32812 18.1094 8.20312
L18.1094 0
L9.07812 0
L9.07812 75.9844
L18.1094 75.9844
z
" id="DejaVuSans-62"/>
     <path d="
M34.2812 27.4844
Q23.3906 27.4844 19.1875 25
Q14.9844 22.5156 14.9844 16.5
Q14.9844 11.7188 18.1406 8.90625
Q21.2969 6.10938 26.7031 6.10938
Q34.1875 6.10938 38.7031 11.4062
Q43.2188 16.7031 43.2188 25.4844
L43.2188 27.4844
z

M52.2031 31.2031
L52.2031 0
L43.2188 0
L43.2188 8.29688
Q40.1406 3.32812 35.5469 0.953125
Q30.9531 -1.42188 24.3125 -1.42188
Q15.9219 -1.42188 10.9531 3.29688
Q6 8.01562 6 15.9219
Q6 25.1406 12.1719 29.8281
Q18.3594 34.5156 30.6094 34.5156
L43.2188 34.5156
L43.2188 35.4062
Q43.2188 41.6094 39.1406 45
Q35.0625 48.3906 27.6875 48.3906
Q23 48.3906 18.5469 47.2656
Q14.1094 46.1406 10.0156 43.8906
L10.0156 52.2031
Q14.9375 54.1094 19.5781 55.0469
Q24.2188 56 28.6094 56
Q40.4844 56 46.3438 49.8438
Q52.2031 43.7031 52.2031 31.2031" id="DejaVuSans-61"/>
    </defs>
    <g transform="translate(268.083 38.2)scale(0.144 -0.144)">
     <use xlink:href="#DejaVuSans-62"/>
     <use x="63.4765625" xlink:href="#DejaVuSans-61"/>
     <use x="124.755859375" xlink:href="#DejaVuSans-64"/>
     <use x="188.232421875" xlink:href="#DejaVuSans-2e"/>
     <use x="220.01953125" xlink:href="#DejaVuSans-73"/>
     <use x="272.119140625" xlink:href="#DejaVuSans-76"/>
     <use x="331.298828125" xlink:href="#DejaVuSans-67"/>
    </g>
   </g>
  </g>
 </g>
 <defs>
  <clipPath id="p7ff5b81e1d">
   <rect height="345.6" width="446.4" x="72.0" y="43.2"/>
  </clipPath>
 </defs>
</svg>
