<?xml version="1.0" encoding="utf-8" standalone="no"?>
<!DOCTYPE svg PUBLIC "-//W3C//DTD SVG 1.1//EN"
  "http://www.w3.org/Graphics/SVG/1.1/DTD/svg11.dtd">
<!-- Created with matplotlib (http://matplotlib.org/) -->
<svg height="432pt" version="1.1" viewBox="0 0 576 432" width="576pt" xmlns="http://www.w3.org/2000/svg" xmlns:xlink="http://www.w3.org/1999/xlink">
 <defs>
  <style type="text/css">
*{stroke-linecap:butt;stroke-linejoin:round;}
  </style>
 </defs>
 <g id="figure_1">
  <g id="patch_1">
   <path d="
M0 432
L576 432
L576 0
L0 0
z
" style="fill:#ffffff;"/>
  </g>
  <g id="axes_1">
   <g id="patch_2">
    <path d="
M72 388.8
L518.4 388.8
L518.4 43.2
L72 43.2
z
" style="fill:#ffffff;"/>
   </g>
   <g id="PolyCollection_1">
    <defs>
     <path d="
M72 -244.068
L72 -231.149
L72.6021 -237.822
L73.2041 -234.432
L73.8062 -236.362
L74.4083 -235.973
L75.0104 -236.363
L75.6124 -235.712
L76.2145 -235.637
L76.8166 -234.188
L77.4186 -235.003
L78.0207 -234.056
L78.6228 -236.024
L79.2248 -234.788
L79.8269 -234.673
L80.429 -236.458
L81.0311 -236.215
L81.6331 -236.226
L82.2352 -234.931
L82.8373 -237.037
L83.4393 -235.28
L84.0414 -235.756
L84.6435 -236.282
L85.2456 -236.535
L85.8476 -236.78
L86.4497 -235.55
L87.0518 -235.978
L87.6538 -236.448
L88.2559 -237.097
L88.858 -236.592
L89.46 -237.001
L90.0621 -236.062
L90.6642 -235.129
L91.2663 -235.734
L91.8683 -235.673
L92.4704 -237.74
L93.0725 -236.526
L93.6745 -235.384
L94.2766 -236.936
L94.8787 -236.124
L95.4807 -236.27
L96.0828 -235.876
L96.6849 -235.557
L97.287 -237.038
L97.889 -235.519
L98.4911 -236.396
L99.0932 -235.906
L99.6952 -235.877
L100.297 -236.153
L100.899 -236.095
L101.501 -236.58
L102.104 -235.704
L102.706 -235.888
L103.308 -236.368
L103.91 -236.205
L104.512 -236.343
L105.114 -235.858
L105.716 -235.916
L106.318 -236.746
L106.92 -236.264
L107.522 -235.682
L108.124 -236.506
L108.726 -236.115
L109.328 -236.453
L109.93 -236.268
L110.533 -235.563
L111.135 -235.843
L111.737 -236.474
L112.339 -235.551
L112.941 -235.017
L113.543 -236.383
L114.145 -236.452
L114.747 -235.964
L115.349 -236.349
L115.951 -236.4
L116.553 -236.45
L117.155 -236.723
L117.757 -236.654
L118.359 -235.99
L118.961 -235.98
L119.564 -235.816
L120.166 -235.851
L120.768 -236.098
L121.37 -236.157
L121.972 -235.55
L122.574 -236.068
L123.176 -236.586
L123.778 -236.295
L124.38 -236.335
L124.982 -236.33
L125.584 -235.898
L126.186 -236.478
L126.788 -235.952
L127.39 -236.467
L127.993 -236.905
L128.595 -236.295
L129.197 -236.93
L129.799 -236.799
L130.401 -236.176
L131.003 -236.799
L131.605 -235.642
L132.207 -236.213
L132.809 -236.291
L133.411 -236.52
L134.013 -236.538
L134.615 -236.026
L135.217 -236.18
L135.819 -236.231
L136.422 -236.305
L137.024 -236.117
L137.626 -236.674
L138.228 -236.608
L138.83 -235.793
L139.432 -236.027
L140.034 -235.714
L140.636 -235.82
L141.238 -236.226
L141.84 -236.032
L142.442 -236.143
L143.044 -235.848
L143.646 -235.657
L144.248 -235.775
L144.851 -235.812
L145.453 -235.451
L146.055 -235.384
L146.657 -235.809
L147.259 -235.795
L147.861 -235.724
L148.463 -235.161
L149.065 -235.671
L149.667 -235.318
L150.269 -235.02
L150.871 -235.47
L151.473 -234.37
L152.075 -234.425
L152.677 -235.213
L153.28 -234.81
L153.882 -234.624
L154.484 -235.55
L155.086 -235.824
L155.688 -235.259
L156.29 -235.512
L156.892 -234.924
L157.494 -235.231
L158.096 -235.305
L158.698 -235.283
L159.3 -235.461
L159.902 -235.289
L160.504 -235.139
L161.106 -235.698
L161.709 -235.772
L162.311 -235.703
L162.913 -235.111
L163.515 -235.27
L164.117 -234.902
L164.719 -235.35
L165.321 -235.384
L165.923 -235.056
L166.525 -235.7
L167.127 -235.208
L167.729 -235.163
L168.331 -235.499
L168.933 -234.635
L169.535 -235.006
L170.137 -235.196
L170.74 -235.137
L171.342 -234.922
L171.944 -234.472
L172.546 -235.536
L173.148 -235.009
L173.75 -234.569
L174.352 -234.541
L174.954 -234.681
L175.556 -235.066
L176.158 -234.748
L176.76 -235.13
L177.362 -235.168
L177.964 -235.298
L178.566 -234.822
L179.169 -234.914
L179.771 -234.913
L180.373 -234.58
L180.975 -234.468
L181.577 -234.644
L182.179 -234.596
L182.781 -235.16
L183.383 -234.761
L183.985 -234.862
L184.587 -234.675
L185.189 -234.471
L185.791 -234.228
L186.393 -234.605
L186.995 -234.644
L187.598 -234.908
L188.2 -234.982
L188.802 -234.713
L189.404 -234.43
L190.006 -234.275
L190.608 -234.146
L191.21 -234.374
L191.812 -234.131
L192.414 -234.31
L193.016 -234.802
L193.618 -234.707
L194.22 -234.781
L194.822 -234.461
L195.424 -234.517
L196.027 -234.847
L196.629 -234.587
L197.231 -234.457
L197.833 -234.388
L198.435 -234.259
L199.037 -234.152
L199.639 -234.137
L200.241 -234.153
L200.843 -234.34
L201.445 -234.114
L202.047 -234.086
L202.649 -234.369
L203.251 -233.894
L203.853 -234.098
L204.456 -234.174
L205.058 -233.78
L205.66 -233.996
L206.262 -233.687
L206.864 -233.906
L207.466 -234.091
L208.068 -234.069
L208.67 -234.297
L209.272 -233.684
L209.874 -233.247
L210.476 -233.958
L211.078 -233.976
L211.68 -233.903
L212.282 -233.726
L212.884 -233.72
L213.487 -233.147
L214.089 -233.568
L214.691 -233.899
L215.293 -232.946
L215.895 -233.18
L216.497 -233.065
L217.099 -233.495
L217.701 -233.533
L218.303 -233.402
L218.905 -233.623
L219.507 -233.585
L220.109 -233.298
L220.711 -233.393
L221.313 -233.475
L221.916 -233.008
L222.518 -232.962
L223.12 -233.099
L223.722 -233.127
L224.324 -232.945
L224.926 -232.982
L225.528 -233.197
L226.13 -233.109
L226.732 -233.487
L227.334 -232.883
L227.936 -232.951
L228.538 -232.875
L229.14 -233.107
L229.742 -232.841
L230.345 -232.795
L230.947 -232.849
L231.549 -232.563
L232.151 -232.986
L232.753 -232.053
L233.355 -232.725
L233.957 -232.647
L234.559 -232.571
L235.161 -232.382
L235.763 -232.364
L236.365 -232.387
L236.967 -232.357
L237.569 -232.116
L238.171 -232.147
L238.774 -231.721
L239.376 -231.528
L239.978 -231.967
L240.58 -231.786
L241.182 -231.942
L241.784 -232.125
L242.386 -231.755
L242.988 -232.202
L243.59 -231.651
L244.192 -231.988
L244.794 -232.02
L245.396 -231.629
L245.998 -231.488
L246.6 -231.59
L247.203 -231.44
L247.805 -231.267
L248.407 -231.399
L249.009 -231.138
L249.611 -231.192
L250.213 -231.323
L250.815 -231.193
L251.417 -231.409
L252.019 -231.232
L252.621 -231.401
L253.223 -231.342
L253.825 -231.244
L254.427 -231.71
L255.029 -231.791
L255.631 -231.557
L256.234 -231.343
L256.836 -231.355
L257.438 -231.856
L258.04 -231.403
L258.642 -231.296
L259.244 -231.336
L259.846 -231.266
L260.448 -231.181
L261.05 -231.335
L261.652 -231.317
L262.254 -231.14
L262.856 -230.764
L263.458 -230.859
L264.06 -231.017
L264.663 -230.515
L265.265 -231.04
L265.867 -231.186
L266.469 -230.871
L267.071 -230.586
L267.673 -231.012
L268.275 -230.671
L268.877 -231.202
L269.479 -230.919
L270.081 -230.497
L270.683 -230.002
L271.285 -230.357
L271.887 -229.717
L272.489 -229.616
L273.092 -229.513
L273.694 -229.65
L274.296 -229.589
L274.898 -229.7
L275.5 -229.819
L276.102 -229.103
L276.704 -228.933
L277.306 -228.709
L277.908 -228.681
L278.51 -229.017
L279.112 -228.168
L279.714 -228.537
L280.316 -228.57
L280.918 -228.575
L281.521 -228.912
L282.123 -228.963
L282.725 -228.776
L283.327 -228.893
L283.929 -228.909
L284.531 -228.782
L285.133 -228.456
L285.735 -228.692
L286.337 -228.772
L286.939 -228.459
L287.541 -228.952
L288.143 -228.548
L288.745 -228.521
L289.347 -228.315
L289.95 -228.193
L290.552 -228.246
L291.154 -228.384
L291.756 -227.931
L292.358 -228.146
L292.96 -228.075
L293.562 -227.653
L294.164 -227.35
L294.766 -226.957
L295.368 -227.464
L295.97 -227.005
L296.572 -227.152
L297.174 -227.254
L297.776 -227.251
L298.379 -227.093
L298.981 -227.006
L299.583 -226.781
L300.185 -226.467
L300.787 -226.834
L301.389 -226.618
L301.991 -226.527
L302.593 -226.758
L303.195 -227.722
L303.797 -227.705
L304.399 -228.122
L305.001 -227.556
L305.603 -227.945
L306.205 -228.066
L306.807 -228.4
L307.41 -228.58
L308.012 -228.583
L308.614 -228.365
L309.216 -228.395
L309.818 -228.711
L310.42 -228.357
L311.022 -228.61
L311.624 -228.685
L312.226 -228.954
L312.828 -229.009
L313.43 -228.972
L314.032 -228.999
L314.634 -228.507
L315.236 -229.104
L315.839 -228.966
L316.441 -228.927
L317.043 -229.235
L317.645 -229.513
L318.247 -229.296
L318.849 -229.165
L319.451 -229.023
L320.053 -229.644
L320.655 -229.351
L321.257 -229.704
L321.859 -229.826
L322.461 -229.485
L323.063 -229.896
L323.665 -229.557
L324.268 -229.507
L324.87 -229.88
L325.472 -229.807
L326.074 -229.807
L326.676 -229.992
L327.278 -229.312
L327.88 -230.259
L328.482 -230.511
L329.084 -230.722
L329.686 -230.848
L330.288 -231.125
L330.89 -231.448
L331.492 -232.106
L332.094 -232.322
L332.697 -232.429
L333.299 -232.425
L333.901 -231.591
L334.503 -231.618
L335.105 -232.379
L335.707 -232.941
L336.309 -232.456
L336.911 -232.457
L337.513 -233.272
L338.115 -233.462
L338.717 -233.821
L339.319 -234.06
L339.921 -233.867
L340.523 -233.953
L341.126 -233.908
L341.728 -233.654
L342.33 -233.603
L342.932 -234.523
L343.534 -234
L344.136 -233.354
L344.738 -233.322
L345.34 -233.578
L345.942 -232.968
L346.544 -232.759
L347.146 -233.302
L347.748 -233.371
L348.35 -233.354
L348.952 -233.453
L349.554 -233.441
L350.157 -233.132
L350.759 -233.773
L351.361 -233.084
L351.963 -233.376
L352.565 -233.702
L353.167 -233.494
L353.769 -233.69
L354.371 -233.467
L354.973 -233.861
L355.575 -234.032
L356.177 -233.443
L356.779 -233.826
L357.381 -233.628
L357.983 -233.877
L358.586 -233.86
L359.188 -234.11
L359.79 -233.557
L360.392 -233.285
L360.994 -234.139
L361.596 -233.668
L362.198 -233.8
L362.8 -233.972
L363.402 -234.186
L364.004 -233.793
L364.606 -234.202
L365.208 -233.941
L365.81 -233.039
L366.412 -233.558
L367.015 -234.009
L367.617 -234.503
L368.219 -234.022
L368.821 -234.029
L369.423 -234.14
L370.025 -234.2
L370.627 -234.284
L371.229 -234.667
L371.831 -234.598
L372.433 -234.462
L373.035 -234.592
L373.637 -234.623
L374.239 -235.14
L374.841 -235.13
L375.444 -234.367
L376.046 -234.66
L376.648 -234.504
L377.25 -234.165
L377.852 -233.429
L378.454 -233.392
L379.056 -233.406
L379.658 -233.045
L380.26 -233.095
L380.862 -232.887
L381.464 -233.163
L382.066 -232.076
L382.668 -231.806
L383.27 -231.122
L383.873 -230.58
L384.475 -230.239
L385.077 -229.92
L385.679 -228.876
L386.281 -228.241
L386.883 -226.944
L387.485 -225.736
L388.087 -224.584
L388.689 -221.064
L389.291 -219.54
L389.893 -216.609
L390.495 -213.469
L391.097 -210.412
L391.699 -207.443
L392.302 -201.017
L392.904 -190.629
L393.506 -176.668
L394.108 -160.002
L394.71 -127.037
L395.312 -43.2
L395.914 -43.2
L396.516 -43.2
L397.118 -43.2
L397.72 -43.2
L398.322 -43.2
L398.924 -43.2
L399.526 -43.2
L400.128 -43.2
L400.73 -43.2
L401.333 -43.2
L401.935 -43.2
L402.537 -43.2
L403.139 -43.2
L403.741 -43.2
L404.343 -43.2
L404.945 -179.611
L405.547 -216.696
L406.149 -227.452
L406.751 -232.054
L407.353 -232.979
L407.955 -234.815
L408.557 -234.531
L409.159 -235.168
L409.762 -235.128
L410.364 -235.277
L410.966 -235.457
L411.568 -234.945
L412.17 -235.342
L412.772 -235.849
L413.374 -235.633
L413.976 -235.61
L414.578 -235.381
L415.18 -235.562
L415.782 -236.192
L416.384 -235.843
L416.986 -235.864
L417.588 -235.688
L418.191 -235.854
L418.793 -235.739
L419.395 -235.31
L419.997 -235.322
L420.599 -235.214
L421.201 -235.78
L421.803 -235.463
L422.405 -235.508
L423.007 -235.722
L423.609 -235.165
L424.211 -235.951
L424.813 -235.439
L425.415 -235.664
L426.017 -235.498
L426.62 -235.04
L427.222 -235.668
L427.824 -235.377
L428.426 -234.676
L429.028 -235.151
L429.63 -235.554
L430.232 -235.223
L430.834 -235.271
L431.436 -235.123
L432.038 -235.026
L432.64 -234.669
L433.242 -235.384
L433.844 -235.23
L434.446 -235.39
L435.049 -235.89
L435.651 -235.181
L436.253 -235.649
L436.855 -236.525
L437.457 -236.318
L438.059 -236.231
L438.661 -236.235
L439.263 -236.695
L439.865 -236.427
L440.467 -236.869
L441.069 -237.072
L441.671 -237.013
L442.273 -236.782
L442.875 -237.125
L443.477 -237.063
L444.08 -236.31
L444.682 -237.375
L445.284 -236.477
L445.886 -237.013
L446.488 -236.894
L447.09 -237.282
L447.692 -237.411
L448.294 -237.929
L448.896 -237.659
L449.498 -237.614
L450.1 -237.552
L450.702 -237.985
L451.304 -238.883
L451.906 -239.015
L452.509 -239.188
L453.111 -238.636
L453.713 -238.4
L454.315 -238.865
L454.917 -239.373
L455.519 -240.499
L456.121 -239.879
L456.723 -239.998
L457.325 -239.783
L457.927 -240.4
L458.529 -240.869
L459.131 -241.006
L459.733 -240.742
L460.335 -240.828
L460.938 -241.621
L461.54 -241.704
L462.142 -241.571
L462.744 -241.958
L463.346 -242.623
L463.948 -242.67
L464.55 -242.712
L465.152 -243.658
L465.754 -243.547
L466.356 -243.643
L466.958 -244.423
L467.56 -245.137
L468.162 -243.792
L468.764 -244.811
L469.367 -246.201
L469.969 -245.786
L470.571 -246.334
L471.173 -247.357
L471.775 -247.581
L472.377 -247.706
L472.979 -248.329
L473.581 -249.341
L474.183 -250.135
L474.785 -251.024
L475.387 -251.328
L475.989 -252.041
L476.591 -251.731
L477.193 -251.392
L477.796 -252.406
L478.398 -250.969
L479 -250.913
L479.602 -251.821
L480.204 -251.192
L480.806 -253.208
L481.408 -251.777
L482.01 -252.033
L482.612 -252.426
L483.214 -252.674
L483.816 -251.634
L484.418 -252.612
L485.02 -251.984
L485.622 -252.38
L486.224 -253.233
L486.827 -252.533
L487.429 -251.474
L488.031 -252.585
L488.633 -252.487
L489.235 -252.609
L489.837 -253.158
L490.439 -252.549
L491.041 -252.12
L491.643 -252.529
L492.245 -252.582
L492.847 -252.585
L493.449 -252.517
L494.051 -250.911
L494.653 -250.701
L495.256 -252.301
L495.858 -252.258
L496.46 -252.554
L497.062 -253.664
L497.664 -252.444
L498.266 -251.159
L498.868 -251.925
L499.47 -252.01
L500.072 -251.174
L500.674 -251.261
L501.276 -251.752
L501.878 -251.907
L502.48 -250.871
L503.082 -251.588
L503.685 -251.403
L504.287 -251.401
L504.889 -249.909
L505.491 -251.491
L506.093 -252.216
L506.695 -252.181
L507.297 -252.743
L507.899 -251.964
L508.501 -252.575
L509.103 -251.716
L509.705 -251.672
L510.307 -248.447
L510.909 -251.342
L511.511 -250.839
L512.114 -248.927
L512.716 -252.049
L513.318 -252.351
L513.92 -250.985
L514.522 -251.545
L515.124 -252.096
L515.726 -253.299
L516.328 -253.86
L516.93 -249.251
L516.93 -258.347
L516.93 -258.347
L516.328 -259.687
L515.726 -260.79
L515.124 -261.749
L514.522 -259.921
L513.92 -261.954
L513.318 -263.303
L512.716 -262.75
L512.114 -259.937
L511.511 -261.532
L510.909 -262.168
L510.307 -263.017
L509.705 -261.525
L509.103 -261.59
L508.501 -261.693
L507.899 -262.016
L507.297 -263.475
L506.695 -263.278
L506.093 -263.456
L505.491 -263.337
L504.889 -262.166
L504.287 -263.453
L503.685 -263.762
L503.082 -262.814
L502.48 -263.24
L501.878 -263.572
L501.276 -264.416
L500.674 -263.937
L500.072 -263.758
L499.47 -265.114
L498.868 -264.418
L498.266 -263.396
L497.664 -264.007
L497.062 -264.167
L496.46 -263.894
L495.858 -264.426
L495.256 -264.576
L494.653 -264.558
L494.051 -263.735
L493.449 -264.574
L492.847 -264.777
L492.245 -264.649
L491.643 -264.458
L491.041 -264.341
L490.439 -264.241
L489.837 -265.202
L489.235 -264.84
L488.633 -264.303
L488.031 -264.063
L487.429 -264.804
L486.827 -265.364
L486.224 -266.026
L485.622 -265.943
L485.02 -265.214
L484.418 -265.825
L483.816 -265.477
L483.214 -266.037
L482.612 -265.103
L482.01 -265.456
L481.408 -266.116
L480.806 -265.85
L480.204 -265.991
L479.602 -266.593
L479 -265.738
L478.398 -266.116
L477.796 -266.73
L477.193 -265.634
L476.591 -265.71
L475.989 -265.687
L475.387 -265.442
L474.785 -265.975
L474.183 -266.531
L473.581 -266.086
L472.979 -264.973
L472.377 -266.59
L471.775 -266.622
L471.173 -265.982
L470.571 -265.711
L469.969 -265.105
L469.367 -264.945
L468.764 -265.795
L468.162 -265.627
L467.56 -265.942
L466.958 -265.517
L466.356 -264.84
L465.754 -265.496
L465.152 -265.599
L464.55 -265.303
L463.948 -265.555
L463.346 -265.312
L462.744 -265.526
L462.142 -265.359
L461.54 -264.68
L460.938 -264.95
L460.335 -265.166
L459.733 -265.304
L459.131 -265.164
L458.529 -264.494
L457.927 -264.705
L457.325 -264.701
L456.723 -264.047
L456.121 -264.684
L455.519 -264.546
L454.917 -264.114
L454.315 -263.475
L453.713 -263.869
L453.111 -264.718
L452.509 -263.959
L451.906 -263.826
L451.304 -263.893
L450.702 -263.197
L450.1 -263.391
L449.498 -263.802
L448.896 -263.515
L448.294 -263.4
L447.692 -263.731
L447.09 -262.884
L446.488 -263.216
L445.886 -263.028
L445.284 -262.885
L444.682 -262.827
L444.08 -263.561
L443.477 -263.578
L442.875 -262.901
L442.273 -262.443
L441.671 -262.863
L441.069 -262.582
L440.467 -262.403
L439.865 -262.074
L439.263 -262.316
L438.661 -262.215
L438.059 -262.539
L437.457 -261.883
L436.855 -261.969
L436.253 -261.822
L435.651 -261.973
L435.049 -260.973
L434.446 -260.425
L433.844 -260.948
L433.242 -260.993
L432.64 -261.087
L432.038 -261.084
L431.436 -260.793
L430.834 -261.464
L430.232 -261.247
L429.63 -261.014
L429.028 -261.418
L428.426 -260.781
L427.824 -261.116
L427.222 -261.156
L426.62 -261.473
L426.017 -261.563
L425.415 -261.387
L424.813 -261.738
L424.211 -261.637
L423.609 -261.585
L423.007 -261.76
L422.405 -261.89
L421.803 -261.764
L421.201 -261.899
L420.599 -261.756
L419.997 -262.006
L419.395 -262.409
L418.793 -261.967
L418.191 -262.199
L417.588 -262.424
L416.986 -262.229
L416.384 -262.509
L415.782 -262.357
L415.18 -262.36
L414.578 -262.658
L413.976 -263.13
L413.374 -262.456
L412.772 -262.969
L412.17 -262.601
L411.568 -263.294
L410.966 -263.128
L410.364 -264.132
L409.762 -264.276
L409.159 -264.528
L408.557 -265.528
L407.955 -265.334
L407.353 -266.967
L406.751 -267.934
L406.149 -271.013
L405.547 -276.111
L404.945 -285.772
L404.343 -301.092
L403.741 -326.228
L403.139 -344.422
L402.537 -349.284
L401.935 -351.465
L401.333 -350.524
L400.73 -345.482
L400.128 -338.619
L399.526 -332.148
L398.924 -327.766
L398.322 -320.759
L397.72 -315.751
L397.118 -311.142
L396.516 -307.02
L395.914 -303.147
L395.312 -299.443
L394.71 -296.126
L394.108 -293.364
L393.506 -291.022
L392.904 -288.252
L392.302 -285.879
L391.699 -284.07
L391.097 -282.679
L390.495 -281.758
L389.893 -279.54
L389.291 -278.124
L388.689 -277.155
L388.087 -275.715
L387.485 -274.967
L386.883 -274.129
L386.281 -273.003
L385.679 -271.941
L385.077 -271.434
L384.475 -270.651
L383.873 -270.319
L383.27 -269.545
L382.668 -268.819
L382.066 -268.731
L381.464 -268.074
L380.862 -267.207
L380.26 -267.18
L379.658 -266.905
L379.056 -266.635
L378.454 -265.924
L377.852 -266.027
L377.25 -265.653
L376.648 -265.806
L376.046 -264.943
L375.444 -264.875
L374.841 -264.935
L374.239 -264.769
L373.637 -264.225
L373.035 -264.245
L372.433 -264.096
L371.831 -263.836
L371.229 -263.666
L370.627 -263.581
L370.025 -263.634
L369.423 -263.267
L368.821 -263.252
L368.219 -262.827
L367.617 -262.812
L367.015 -263.097
L366.412 -262.934
L365.81 -262.983
L365.208 -262.582
L364.606 -262.737
L364.004 -262.277
L363.402 -262.589
L362.8 -262.338
L362.198 -262.148
L361.596 -262.215
L360.994 -262.064
L360.392 -261.828
L359.79 -261.693
L359.188 -261.836
L358.586 -261.903
L357.983 -262.051
L357.381 -262.021
L356.779 -262.221
L356.177 -261.918
L355.575 -261.644
L354.973 -261.014
L354.371 -260.971
L353.769 -261.589
L353.167 -261.422
L352.565 -261.305
L351.963 -261.26
L351.361 -260.244
L350.759 -260.677
L350.157 -260.334
L349.554 -260.576
L348.952 -260.399
L348.35 -260.753
L347.748 -260.752
L347.146 -260.568
L346.544 -260.647
L345.942 -260.329
L345.34 -260.043
L344.738 -260.334
L344.136 -260.059
L343.534 -260.015
L342.932 -259.85
L342.33 -259.899
L341.728 -259.601
L341.126 -259.883
L340.523 -259.711
L339.921 -259.628
L339.319 -259.399
L338.717 -259.347
L338.115 -259.145
L337.513 -258.843
L336.911 -258.791
L336.309 -258.813
L335.707 -259.077
L335.105 -258.73
L334.503 -258.716
L333.901 -258.509
L333.299 -258.258
L332.697 -258.415
L332.094 -258.285
L331.492 -258.125
L330.89 -258.372
L330.288 -258.224
L329.686 -257.871
L329.084 -257.855
L328.482 -257.802
L327.88 -257.936
L327.278 -257.407
L326.676 -257.693
L326.074 -257.484
L325.472 -257.354
L324.87 -257.13
L324.268 -256.985
L323.665 -257.289
L323.063 -257.014
L322.461 -256.994
L321.859 -256.831
L321.257 -256.535
L320.655 -256.473
L320.053 -256.73
L319.451 -256.398
L318.849 -256.386
L318.247 -256.242
L317.645 -255.895
L317.043 -256.031
L316.441 -256.18
L315.839 -255.979
L315.236 -256.049
L314.634 -255.887
L314.032 -256.158
L313.43 -256.058
L312.828 -255.793
L312.226 -255.428
L311.624 -255.317
L311.022 -255.376
L310.42 -255.356
L309.818 -255.392
L309.216 -255.327
L308.614 -254.936
L308.012 -255.079
L307.41 -255.03
L306.807 -254.858
L306.205 -254.462
L305.603 -254.653
L305.001 -254.772
L304.399 -254.587
L303.797 -254.32
L303.195 -254.046
L302.593 -254.037
L301.991 -253.895
L301.389 -253.883
L300.787 -253.647
L300.185 -253.321
L299.583 -253.627
L298.981 -253.548
L298.379 -253.773
L297.776 -253.653
L297.174 -253.448
L296.572 -253.187
L295.97 -253.154
L295.368 -253.336
L294.766 -253.325
L294.164 -253.128
L293.562 -253.243
L292.96 -253.34
L292.358 -253.673
L291.756 -253.347
L291.154 -253.006
L290.552 -252.896
L289.95 -252.939
L289.347 -253.086
L288.745 -252.869
L288.143 -252.602
L287.541 -252.621
L286.939 -252.347
L286.337 -252.632
L285.735 -252.505
L285.133 -252.313
L284.531 -252.149
L283.929 -252.271
L283.327 -252.316
L282.725 -252.143
L282.123 -252.275
L281.521 -251.779
L280.918 -251.665
L280.316 -251.309
L279.714 -250.925
L279.112 -251.004
L278.51 -251.355
L277.908 -251.635
L277.306 -251.024
L276.704 -250.936
L276.102 -251.148
L275.5 -251.524
L274.898 -251.594
L274.296 -251.771
L273.694 -251.392
L273.092 -251.511
L272.489 -251.814
L271.887 -251.805
L271.285 -252.075
L270.683 -251.817
L270.081 -252.304
L269.479 -252.655
L268.877 -252.692
L268.275 -252.56
L267.673 -252.697
L267.071 -252.398
L266.469 -252.481
L265.867 -252.321
L265.265 -252.179
L264.663 -252.193
L264.06 -252.269
L263.458 -252.033
L262.856 -251.903
L262.254 -252.231
L261.652 -252.12
L261.05 -252.393
L260.448 -252.436
L259.846 -252.446
L259.244 -252.59
L258.642 -252.297
L258.04 -252.239
L257.438 -251.836
L256.836 -251.893
L256.234 -252.138
L255.631 -252.235
L255.029 -251.794
L254.427 -252.036
L253.825 -252.131
L253.223 -252.073
L252.621 -252.059
L252.019 -251.715
L251.417 -251.508
L250.815 -251.798
L250.213 -251.784
L249.611 -251.265
L249.009 -251.327
L248.407 -251.123
L247.805 -251.186
L247.203 -251.226
L246.6 -251.172
L245.998 -250.941
L245.396 -251.165
L244.794 -251.304
L244.192 -251.617
L243.59 -251.256
L242.988 -251.568
L242.386 -251.355
L241.784 -251.056
L241.182 -251.252
L240.58 -250.973
L239.978 -251.363
L239.376 -251.278
L238.774 -251.212
L238.171 -251.159
L237.569 -251.188
L236.967 -251.097
L236.365 -250.9
L235.763 -250.776
L235.161 -251.286
L234.559 -251.186
L233.957 -251.346
L233.355 -251.364
L232.753 -251.315
L232.151 -251.133
L231.549 -250.905
L230.947 -251.306
L230.345 -251.166
L229.742 -251.158
L229.14 -251.108
L228.538 -251.131
L227.936 -251.253
L227.334 -250.921
L226.732 -251.138
L226.13 -250.752
L225.528 -251.249
L224.926 -251.209
L224.324 -250.677
L223.722 -251.157
L223.12 -250.816
L222.518 -250.926
L221.916 -251.012
L221.313 -251.252
L220.711 -250.915
L220.109 -250.871
L219.507 -250.981
L218.905 -251.251
L218.303 -251.209
L217.701 -251.024
L217.099 -251.061
L216.497 -250.689
L215.895 -250.897
L215.293 -250.937
L214.691 -251.011
L214.089 -250.914
L213.487 -250.693
L212.884 -250.783
L212.282 -250.661
L211.68 -250.896
L211.078 -250.783
L210.476 -250.76
L209.874 -250.79
L209.272 -250.805
L208.67 -251.343
L208.068 -251.043
L207.466 -250.8
L206.864 -250.734
L206.262 -250.79
L205.66 -251.001
L205.058 -250.986
L204.456 -250.857
L203.853 -250.779
L203.251 -250.932
L202.649 -250.925
L202.047 -250.831
L201.445 -250.696
L200.843 -250.783
L200.241 -250.805
L199.639 -251.139
L199.037 -250.82
L198.435 -250.753
L197.833 -250.9
L197.231 -250.685
L196.629 -251.159
L196.027 -250.966
L195.424 -251.081
L194.822 -250.995
L194.22 -250.603
L193.618 -250.78
L193.016 -250.677
L192.414 -250.628
L191.812 -250.785
L191.21 -250.857
L190.608 -250.446
L190.006 -250.78
L189.404 -251.218
L188.802 -250.895
L188.2 -250.9
L187.598 -250.832
L186.995 -250.863
L186.393 -250.673
L185.791 -250.698
L185.189 -250.643
L184.587 -250.487
L183.985 -250.469
L183.383 -250.477
L182.781 -250.607
L182.179 -250.583
L181.577 -250.586
L180.975 -250.449
L180.373 -250.568
L179.771 -250.88
L179.169 -250.683
L178.566 -250.734
L177.964 -250.588
L177.362 -250.848
L176.76 -250.56
L176.158 -251.039
L175.556 -250.718
L174.954 -250.849
L174.352 -250.31
L173.75 -250.645
L173.148 -250.544
L172.546 -250.528
L171.944 -250.633
L171.342 -250.47
L170.74 -250.037
L170.137 -250.267
L169.535 -250.009
L168.933 -249.978
L168.331 -250.625
L167.729 -250.033
L167.127 -250.188
L166.525 -250.63
L165.923 -250.137
L165.321 -250.024
L164.719 -250.425
L164.117 -250.482
L163.515 -250.156
L162.913 -250.014
L162.311 -249.815
L161.709 -250.164
L161.106 -250.3
L160.504 -250.226
L159.902 -250.237
L159.3 -250.373
L158.698 -250.043
L158.096 -250.069
L157.494 -250.109
L156.892 -250.229
L156.29 -250.104
L155.688 -249.472
L155.086 -249.87
L154.484 -249.74
L153.882 -249.8
L153.28 -249.525
L152.677 -249.695
L152.075 -249.277
L151.473 -249.61
L150.871 -249.493
L150.269 -249.661
L149.667 -249.271
L149.065 -249.726
L148.463 -249.818
L147.861 -250.261
L147.259 -249.694
L146.657 -249.457
L146.055 -249.869
L145.453 -249.737
L144.851 -249.356
L144.248 -249.984
L143.646 -250.425
L143.044 -249.634
L142.442 -249.569
L141.84 -249.711
L141.238 -249.937
L140.636 -250.678
L140.034 -250.66
L139.432 -250.041
L138.83 -250.225
L138.228 -250.446
L137.626 -249.966
L137.024 -249.938
L136.422 -250.036
L135.819 -249.612
L135.217 -249.767
L134.615 -249.807
L134.013 -250.199
L133.411 -250.233
L132.809 -249.826
L132.207 -250.426
L131.605 -250.014
L131.003 -250.273
L130.401 -250.283
L129.799 -250.156
L129.197 -250.444
L128.595 -250.479
L127.993 -250.755
L127.39 -250.536
L126.788 -250.366
L126.186 -250.266
L125.584 -249.95
L124.982 -250.372
L124.38 -250.046
L123.778 -249.861
L123.176 -250.291
L122.574 -249.71
L121.972 -249.438
L121.37 -249.626
L120.768 -249.353
L120.166 -249.651
L119.564 -249.75
L118.961 -249.622
L118.359 -249.755
L117.757 -249.889
L117.155 -249.671
L116.553 -249.251
L115.951 -249.757
L115.349 -249.794
L114.747 -249.629
L114.145 -249.84
L113.543 -249.764
L112.941 -249.982
L112.339 -250.312
L111.737 -250.305
L111.135 -250.52
L110.533 -249.793
L109.93 -249.471
L109.328 -249.571
L108.726 -249.007
L108.124 -249.8
L107.522 -249.552
L106.92 -250.26
L106.318 -249.762
L105.716 -249.209
L105.114 -249.489
L104.512 -249.771
L103.91 -249.658
L103.308 -250.194
L102.706 -249.992
L102.104 -249.87
L101.501 -250.052
L100.899 -249.254
L100.297 -249.832
L99.6952 -250.035
L99.0932 -249.049
L98.4911 -249.52
L97.889 -249.004
L97.287 -249.73
L96.6849 -249.826
L96.0828 -249.35
L95.4807 -249.339
L94.8787 -249.948
L94.2766 -249.308
L93.6745 -249.982
L93.0725 -249.628
L92.4704 -249.944
L91.8683 -249.143
L91.2663 -248.808
L90.6642 -249.204
L90.0621 -249.39
L89.46 -250.745
L88.858 -249.477
L88.2559 -249.422
L87.6538 -249.789
L87.0518 -249.37
L86.4497 -249.477
L85.8476 -249.383
L85.2456 -249.888
L84.6435 -249.698
L84.0414 -248.62
L83.4393 -248.931
L82.8373 -249.833
L82.2352 -248.95
L81.6331 -249.748
L81.0311 -249.351
L80.429 -249.172
L79.8269 -248.282
L79.2248 -248.825
L78.6228 -248.887
L78.0207 -248.424
L77.4186 -250.504
L76.8166 -249.074
L76.2145 -249.072
L75.6124 -248.132
L75.0104 -248.351
L74.4083 -249.427
L73.8062 -248.981
L73.2041 -250.442
L72.6021 -249.529
L72 -244.068
z
" id="C0_0_6e21871460"/>
    </defs>
    <g clip-path="url(#p7ff5b81e1d)">
     <use style="fill:#ffff00;fill-opacity:0.5;" x="0.0" xlink:href="#C0_0_6e21871460" y="432.0"/>
    </g>
   </g>
   <g id="PolyCollection_2">
    <defs>
     <path d="
M72 -242.57
L72 -233.023
L72.6021 -241.724
L73.2041 -241.348
L73.8062 -241.565
L74.4083 -241.852
L75.0104 -241.515
L75.6124 -241.199
L76.2145 -241.832
L76.8166 -241.214
L77.4186 -242.455
L78.0207 -240.88
L78.6228 -242.076
L79.2248 -241.506
L79.8269 -241.18
L80.429 -242.506
L81.0311 -242.497
L81.6331 -242.778
L82.2352 -241.762
L82.8373 -243.221
L83.4393 -241.937
L84.0414 -241.991
L84.6435 -242.848
L85.2456 -243.075
L85.8476 -242.922
L86.4497 -242.432
L87.0518 -242.58
L87.6538 -243.033
L88.2559 -243.118
L88.858 -242.94
L89.46 -243.844
L90.0621 -242.67
L90.6642 -242.164
L91.2663 -242.216
L91.8683 -242.384
L92.4704 -243.755
L93.0725 -243.042
L93.6745 -242.761
L94.2766 -243.062
L94.8787 -243.068
L95.4807 -242.799
L96.0828 -242.627
L96.6849 -242.779
L97.287 -243.366
L97.889 -242.297
L98.4911 -242.978
L99.0932 -242.493
L99.6952 -243.058
L100.297 -243.06
L100.899 -242.717
L101.501 -243.379
L102.104 -242.9
L102.706 -243.056
L103.308 -243.379
L103.91 -243.013
L104.512 -243.134
L105.114 -242.769
L105.716 -242.635
L106.318 -243.318
L106.92 -243.391
L107.522 -242.741
L108.124 -243.244
L108.726 -242.621
L109.328 -243.099
L109.93 -242.96
L110.533 -242.844
L111.135 -243.379
L111.737 -243.531
L112.339 -243.144
L112.941 -242.724
L113.543 -243.195
L114.145 -243.267
L114.747 -242.938
L115.349 -243.201
L115.951 -243.206
L116.553 -242.944
L117.155 -243.299
L117.757 -243.396
L118.359 -243.033
L118.961 -242.958
L119.564 -242.959
L120.166 -242.921
L120.768 -242.857
L121.37 -243.035
L121.972 -242.664
L122.574 -243.04
L123.176 -243.6
L123.778 -243.223
L124.38 -243.351
L124.982 -243.533
L125.584 -243.106
L126.186 -243.537
L126.788 -243.363
L127.39 -243.69
L127.993 -244
L128.595 -243.583
L129.197 -243.835
L129.799 -243.617
L130.401 -243.419
L131.003 -243.685
L131.605 -243.047
L132.207 -243.531
L132.809 -243.225
L133.411 -243.557
L134.013 -243.552
L134.615 -243.106
L135.217 -243.152
L135.819 -243.089
L136.422 -243.36
L137.024 -243.222
L137.626 -243.476
L138.228 -243.723
L138.83 -243.242
L139.432 -243.237
L140.034 -243.461
L140.636 -243.519
L141.238 -243.273
L141.84 -243.054
L142.442 -243.025
L143.044 -242.933
L143.646 -243.305
L144.248 -243.102
L144.851 -242.759
L145.453 -242.822
L146.055 -242.869
L146.657 -242.819
L147.259 -242.948
L147.861 -243.242
L148.463 -242.746
L149.065 -242.914
L149.667 -242.503
L150.269 -242.597
L150.871 -242.695
L151.473 -242.293
L152.075 -242.132
L152.677 -242.712
L153.28 -242.445
L153.882 -242.526
L154.484 -242.889
L155.086 -243.085
L155.688 -242.615
L156.29 -243.09
L156.892 -242.91
L157.494 -242.975
L158.096 -242.983
L158.698 -242.962
L159.3 -243.228
L159.902 -243.076
L160.504 -243.008
L161.106 -243.289
L161.709 -243.245
L162.311 -243.016
L162.913 -242.877
L163.515 -243.027
L164.117 -243.06
L164.719 -243.22
L165.321 -243.004
L165.923 -242.931
L166.525 -243.488
L167.127 -243.027
L167.729 -242.919
L168.331 -243.404
L168.933 -242.665
L169.535 -242.841
L170.137 -243.072
L170.74 -242.914
L171.342 -243.075
L171.944 -242.979
L172.546 -243.37
L173.148 -243.157
L173.75 -243.029
L174.352 -242.825
L174.954 -243.196
L175.556 -243.284
L176.158 -243.336
L176.76 -243.22
L177.362 -243.404
L177.964 -243.309
L178.566 -243.193
L179.169 -243.202
L179.771 -243.317
L180.373 -242.996
L180.975 -242.881
L181.577 -243.035
L182.179 -243.014
L182.781 -243.268
L183.383 -243.023
L183.985 -243.063
L184.587 -242.994
L185.189 -243
L185.791 -242.929
L186.393 -243.075
L186.995 -243.202
L187.598 -243.296
L188.2 -243.368
L188.802 -243.251
L189.404 -243.322
L190.006 -243.002
L190.608 -242.753
L191.21 -243.089
L191.812 -242.946
L192.414 -242.931
L193.016 -243.167
L193.618 -243.187
L194.22 -243.115
L194.822 -243.21
L195.424 -243.283
L196.027 -243.357
L196.629 -243.36
L197.231 -243.03
L197.833 -243.126
L198.435 -242.987
L199.037 -242.982
L199.639 -243.163
L200.241 -242.975
L200.843 -243.041
L201.445 -242.895
L202.047 -242.963
L202.649 -243.137
L203.251 -242.943
L203.853 -242.94
L204.456 -243.017
L205.058 -242.929
L205.66 -243.028
L206.262 -242.776
L206.864 -242.835
L207.466 -242.951
L208.068 -243.085
L208.67 -243.356
L209.272 -242.786
L209.874 -242.596
L210.476 -242.875
L211.078 -242.896
L211.68 -242.932
L212.282 -242.721
L212.884 -242.791
L213.487 -242.501
L214.089 -242.805
L214.691 -243
L215.293 -242.563
L215.895 -242.636
L216.497 -242.466
L217.099 -242.864
L217.701 -242.858
L218.303 -242.913
L218.905 -243.03
L219.507 -242.855
L220.109 -242.672
L220.711 -242.738
L221.313 -242.97
L221.916 -242.637
L222.518 -242.568
L223.12 -242.56
L223.722 -242.772
L224.324 -242.415
L224.926 -242.744
L225.528 -242.856
L226.13 -242.528
L226.732 -242.912
L227.334 -242.535
L227.936 -242.76
L228.538 -242.657
L229.14 -242.738
L229.742 -242.66
L230.345 -242.645
L230.947 -242.751
L231.549 -242.396
L232.151 -242.705
L232.753 -242.433
L233.355 -242.736
L233.957 -242.694
L234.559 -242.568
L235.161 -242.551
L235.763 -242.241
L236.365 -242.324
L236.967 -242.429
L237.569 -242.386
L238.171 -242.381
L238.774 -242.24
L239.376 -242.202
L239.978 -242.43
L240.58 -242.125
L241.182 -242.355
L241.784 -242.313
L242.386 -242.341
L242.988 -242.65
L243.59 -242.241
L244.192 -242.593
L244.794 -242.42
L245.396 -242.178
L245.998 -241.988
L246.6 -242.168
L247.203 -242.14
L247.805 -242.046
L248.407 -242.062
L249.009 -242.079
L249.611 -242.063
L250.213 -242.426
L250.815 -242.382
L251.417 -242.294
L252.019 -242.347
L252.621 -242.622
L253.223 -242.606
L253.825 -242.602
L254.427 -242.731
L255.029 -242.618
L255.631 -242.789
L256.234 -242.645
L256.836 -242.502
L257.438 -242.668
L258.04 -242.73
L258.642 -242.722
L259.244 -242.916
L259.846 -242.8
L260.448 -242.761
L261.05 -242.796
L261.652 -242.624
L262.254 -242.621
L262.856 -242.273
L263.458 -242.39
L264.06 -242.595
L264.663 -242.351
L265.265 -242.55
L265.867 -242.694
L266.469 -242.667
L267.071 -242.504
L267.673 -242.854
L268.275 -242.636
L268.877 -242.925
L269.479 -242.791
L270.081 -242.41
L270.683 -241.917
L271.285 -242.213
L271.887 -241.797
L272.489 -241.762
L273.092 -241.536
L273.694 -241.517
L274.296 -241.724
L274.898 -241.659
L275.5 -241.662
L276.102 -241.152
L276.704 -240.956
L277.306 -240.921
L277.908 -241.284
L278.51 -241.243
L279.112 -240.697
L279.714 -240.792
L280.316 -241.042
L280.918 -241.264
L281.521 -241.466
L282.123 -241.791
L282.725 -241.638
L283.327 -241.79
L283.929 -241.769
L284.531 -241.645
L285.133 -241.621
L285.735 -241.83
L286.337 -241.94
L286.939 -241.644
L287.541 -242.003
L288.143 -241.837
L288.745 -241.992
L289.347 -242.048
L289.95 -241.911
L290.552 -241.905
L291.154 -242.025
L291.756 -242.067
L292.358 -242.352
L292.96 -242.117
L293.562 -241.898
L294.164 -241.712
L294.766 -241.69
L295.368 -241.886
L295.97 -241.6
L296.572 -241.676
L297.174 -241.879
L297.776 -242.007
L298.379 -242.024
L298.981 -241.849
L299.583 -241.816
L300.185 -241.507
L300.787 -241.848
L301.389 -241.919
L301.991 -241.892
L302.593 -242.067
L303.195 -242.428
L303.797 -242.593
L304.399 -242.915
L305.001 -242.823
L305.603 -242.89
L306.205 -242.814
L306.807 -243.188
L307.41 -243.362
L308.012 -243.394
L308.614 -243.223
L309.216 -243.481
L309.818 -243.639
L310.42 -243.485
L311.022 -243.592
L311.624 -243.581
L312.226 -243.751
L312.828 -244.001
L313.43 -244.155
L314.032 -244.229
L314.634 -243.876
L315.236 -244.198
L315.839 -244.102
L316.441 -244.216
L317.043 -244.235
L317.645 -244.252
L318.247 -244.39
L318.849 -244.433
L319.451 -244.388
L320.053 -244.827
L320.655 -244.556
L321.257 -244.725
L321.859 -244.958
L322.461 -244.936
L323.063 -245.099
L323.665 -245.149
L324.268 -244.938
L324.87 -245.166
L325.472 -245.282
L326.074 -245.364
L326.676 -245.565
L327.278 -245.134
L327.88 -245.816
L328.482 -245.823
L329.084 -245.935
L329.686 -245.99
L330.288 -246.316
L330.89 -246.528
L331.492 -246.615
L332.094 -246.797
L332.697 -246.918
L333.299 -246.818
L333.901 -246.666
L334.503 -246.806
L335.105 -247.097
L335.707 -247.525
L336.309 -247.178
L336.911 -247.165
L337.513 -247.501
L338.115 -247.758
L338.717 -248.017
L339.319 -248.136
L339.921 -248.207
L340.523 -248.289
L341.126 -248.38
L341.728 -248.107
L342.33 -248.274
L342.932 -248.587
L343.534 -248.494
L344.136 -248.28
L344.738 -248.441
L345.34 -248.352
L345.942 -248.307
L346.544 -248.432
L347.146 -248.58
L347.748 -248.722
L348.35 -248.715
L348.952 -248.527
L349.554 -248.634
L350.157 -248.366
L350.759 -248.82
L351.361 -248.291
L351.963 -249.043
L352.565 -249.19
L353.167 -249.189
L353.769 -249.365
L354.371 -248.891
L354.973 -249.062
L355.575 -249.525
L356.177 -249.484
L356.779 -249.816
L357.381 -249.615
L357.983 -249.725
L358.586 -249.625
L359.188 -249.672
L359.79 -249.379
L360.392 -249.366
L360.994 -249.827
L361.596 -249.751
L362.198 -249.756
L362.8 -249.939
L363.402 -250.178
L364.004 -249.835
L364.606 -250.277
L365.208 -250.083
L365.81 -250.017
L366.412 -250.171
L367.015 -250.437
L367.617 -250.432
L368.219 -250.267
L368.821 -250.543
L369.423 -250.591
L370.025 -250.85
L370.627 -250.845
L371.229 -251.037
L371.831 -251.12
L372.433 -251.24
L373.035 -251.381
L373.637 -251.379
L374.239 -251.915
L374.841 -252.017
L375.444 -251.708
L376.046 -251.855
L376.648 -252.362
L377.25 -252.144
L377.852 -252.135
L378.454 -252.053
L379.056 -252.528
L379.658 -252.583
L380.26 -252.784
L380.862 -252.732
L381.464 -253.403
L382.066 -253.487
L382.668 -253.458
L383.27 -253.733
L383.873 -254.094
L384.475 -254.218
L385.077 -254.665
L385.679 -254.705
L386.281 -255.269
L386.883 -255.705
L387.485 -255.978
L388.087 -256.218
L388.689 -256.392
L389.291 -256.761
L389.893 -257.181
L390.495 -258.264
L391.097 -258.401
L391.699 -258.991
L392.302 -259.432
L392.904 -260.029
L393.506 -261
L394.108 -261.862
L394.71 -262.938
L395.312 -263.789
L395.914 -265.307
L396.516 -266.237
L397.118 -267.38
L397.72 -269.031
L398.322 -270.639
L398.924 -273.122
L399.526 -274.503
L400.128 -276.628
L400.73 -279.189
L401.333 -280.433
L401.935 -278.993
L402.537 -276.608
L403.139 -273.663
L403.741 -266.071
L404.343 -259.729
L404.945 -256.555
L405.547 -254.545
L406.149 -253.625
L406.751 -252.935
L407.353 -252.596
L407.955 -252.156
L408.557 -252.183
L409.159 -251.759
L409.762 -251.584
L410.364 -251.543
L410.966 -250.968
L411.568 -250.887
L412.17 -250.59
L412.772 -251.009
L413.374 -250.606
L413.976 -251.024
L414.578 -250.639
L415.18 -250.517
L415.782 -250.75
L416.384 -250.715
L416.986 -250.547
L417.588 -250.603
L418.191 -250.523
L418.793 -250.334
L419.395 -250.454
L419.997 -250.203
L420.599 -250.005
L421.201 -250.306
L421.803 -250.102
L422.405 -250.199
L423.007 -250.196
L423.609 -249.878
L424.211 -250.204
L424.813 -250.077
L425.415 -249.939
L426.017 -249.988
L426.62 -249.76
L427.222 -249.797
L427.824 -249.66
L428.426 -249.188
L429.028 -249.766
L429.63 -249.664
L430.232 -249.685
L430.834 -249.84
L431.436 -249.362
L432.038 -249.508
L432.64 -249.377
L433.242 -249.586
L433.844 -249.499
L434.446 -249.233
L435.049 -249.756
L435.651 -250.113
L436.253 -250.187
L436.855 -250.604
L437.457 -250.469
L438.059 -250.845
L438.661 -250.642
L439.263 -250.875
L439.865 -250.62
L440.467 -250.99
L441.069 -251.177
L441.671 -251.328
L442.273 -250.977
L442.875 -251.391
L443.477 -251.792
L444.08 -251.502
L444.682 -251.433
L445.284 -251.131
L445.886 -251.418
L446.488 -251.488
L447.09 -251.423
L447.692 -252.001
L448.294 -251.985
L448.896 -251.953
L449.498 -252.114
L450.1 -251.829
L450.702 -251.867
L451.304 -252.641
L451.906 -252.645
L452.509 -252.792
L453.111 -253.056
L453.713 -252.431
L454.315 -252.357
L454.917 -252.947
L455.519 -253.642
L456.121 -253.489
L456.723 -253.133
L457.325 -253.457
L457.927 -253.688
L458.529 -253.738
L459.131 -254.2
L459.733 -254.185
L460.335 -254.126
L460.938 -254.295
L461.54 -254.155
L462.142 -254.522
L462.744 -254.767
L463.346 -254.893
L463.948 -255.054
L464.55 -254.913
L465.152 -255.458
L465.754 -255.351
L466.356 -254.983
L466.958 -255.702
L467.56 -256.236
L468.162 -255.507
L468.764 -256.009
L469.367 -256.056
L469.969 -255.974
L470.571 -256.554
L471.173 -257.129
L471.775 -257.595
L472.377 -257.621
L472.979 -256.918
L473.581 -257.987
L474.183 -258.575
L474.785 -258.618
L475.387 -258.441
L475.989 -258.882
L476.591 -258.763
L477.193 -258.564
L477.796 -259.627
L478.398 -258.653
L479 -258.406
L479.602 -259.283
L480.204 -258.663
L480.806 -259.45
L481.408 -258.975
L482.01 -258.707
L482.612 -258.669
L483.214 -259.301
L483.816 -258.529
L484.418 -259.144
L485.02 -258.517
L485.622 -259.105
L486.224 -259.528
L486.827 -258.841
L487.429 -258.06
L488.031 -258.127
L488.633 -258.223
L489.235 -258.573
L489.837 -259.016
L490.439 -258.202
L491.041 -258.065
L491.643 -258.302
L492.245 -258.427
L492.847 -258.491
L493.449 -258.345
L494.051 -257.15
L494.653 -257.52
L495.256 -258.219
L495.858 -258.115
L496.46 -257.934
L497.062 -258.572
L497.664 -257.926
L498.266 -257.01
L498.868 -257.911
L499.47 -258.327
L500.072 -257.183
L500.674 -257.314
L501.276 -257.783
L501.878 -257.358
L502.48 -256.708
L503.082 -256.772
L503.685 -257.196
L504.287 -257.003
L504.889 -255.605
L505.491 -256.946
L506.093 -257.303
L506.695 -257.17
L507.297 -257.518
L507.899 -256.308
L508.501 -256.393
L509.103 -255.901
L509.705 -255.804
L510.307 -255.185
L510.909 -255.929
L511.511 -255.298
L512.114 -253.451
L512.716 -256.381
L513.318 -256.768
L513.92 -255.23
L514.522 -254.208
L515.124 -255.385
L515.726 -255.021
L516.328 -254.208
L516.93 -250.642
L517.532 -243.204
L517.532 -255.942
L517.532 -255.942
L516.93 -257.157
L516.328 -259.375
L515.726 -259.259
L515.124 -258.864
L514.522 -257.553
L513.92 -258.263
L513.318 -259.448
L512.716 -258.957
L512.114 -255.985
L511.511 -257.617
L510.909 -258.141
L510.307 -257.314
L509.705 -257.856
L509.103 -257.872
L508.501 -258.273
L507.899 -258.159
L507.297 -259.259
L506.695 -258.889
L506.093 -258.985
L505.491 -258.568
L504.889 -257.207
L504.287 -258.562
L503.685 -258.719
L503.082 -258.247
L502.48 -258.155
L501.878 -258.789
L501.276 -259.174
L500.674 -258.675
L500.072 -258.529
L499.47 -259.644
L498.868 -259.202
L498.266 -258.283
L497.664 -259.184
L497.062 -259.801
L496.46 -259.148
L495.858 -259.3
L495.256 -259.402
L494.653 -258.688
L494.051 -258.308
L493.449 -259.464
L492.847 -259.606
L492.245 -259.523
L491.643 -259.388
L491.041 -259.136
L490.439 -259.264
L489.837 -260.063
L489.235 -259.616
L488.633 -259.259
L488.031 -259.172
L487.429 -259.098
L486.827 -259.872
L486.224 -260.541
L485.622 -260.13
L485.02 -259.548
L484.418 -260.158
L483.816 -259.531
L483.214 -260.295
L482.612 -259.656
L482.01 -259.675
L481.408 -259.937
L480.806 -260.4
L480.204 -259.606
L479.602 -260.213
L479 -259.334
L478.398 -259.57
L477.796 -260.528
L477.193 -259.468
L476.591 -259.648
L475.989 -259.769
L475.387 -259.318
L474.785 -259.49
L474.183 -259.425
L473.581 -258.832
L472.979 -257.758
L472.377 -258.443
L471.775 -258.407
L471.173 -257.93
L470.571 -257.352
L469.969 -256.768
L469.367 -256.832
L468.764 -256.779
L468.162 -256.272
L467.56 -256.988
L466.958 -256.442
L466.356 -255.726
L465.754 -256.078
L465.152 -256.182
L464.55 -255.628
L463.948 -255.762
L463.346 -255.59
L462.744 -255.464
L462.142 -255.207
L461.54 -254.842
L460.938 -254.969
L460.335 -254.797
L459.733 -254.844
L459.131 -254.856
L458.529 -254.387
L457.927 -254.339
L457.325 -254.096
L456.723 -253.772
L456.121 -254.116
L455.519 -254.263
L454.917 -253.566
L454.315 -252.978
L453.713 -253.042
L453.111 -253.659
L452.509 -253.389
L451.906 -253.239
L451.304 -253.227
L450.702 -252.456
L450.1 -252.413
L449.498 -252.689
L448.896 -252.523
L448.294 -252.55
L447.692 -252.561
L447.09 -251.983
L446.488 -252.043
L445.886 -251.966
L445.284 -251.675
L444.682 -251.971
L444.08 -252.034
L443.477 -252.321
L442.875 -251.917
L442.273 -251.502
L441.671 -251.849
L441.069 -251.694
L440.467 -251.503
L439.865 -251.131
L439.263 -251.379
L438.661 -251.142
L438.059 -251.343
L437.457 -250.962
L436.855 -251.089
L436.253 -250.668
L435.651 -250.585
L435.049 -250.217
L434.446 -249.682
L433.844 -249.947
L433.242 -250.032
L432.64 -249.826
L432.038 -249.955
L431.436 -249.809
L430.834 -250.284
L430.232 -250.131
L429.63 -250.108
L429.028 -250.211
L428.426 -249.635
L427.824 -250.106
L427.222 -250.238
L426.62 -250.204
L426.017 -250.428
L425.415 -250.382
L424.813 -250.517
L424.211 -250.644
L423.609 -250.319
L423.007 -250.635
L422.405 -250.636
L421.803 -250.542
L421.201 -250.744
L420.599 -250.443
L419.997 -250.64
L419.395 -250.889
L418.793 -250.769
L418.191 -250.958
L417.588 -251.038
L416.986 -250.979
L416.384 -251.148
L415.782 -251.18
L415.18 -250.95
L414.578 -251.071
L413.976 -251.453
L413.374 -251.035
L412.772 -251.439
L412.17 -251.02
L411.568 -251.315
L410.966 -251.395
L410.364 -251.969
L409.762 -252.006
L409.159 -252.182
L408.557 -252.602
L407.955 -252.576
L407.353 -253.013
L406.751 -253.351
L406.149 -254.035
L405.547 -254.953
L404.945 -256.953
L404.343 -260.115
L403.741 -266.433
L403.139 -273.998
L402.537 -276.933
L401.935 -279.309
L401.333 -280.746
L400.73 -279.505
L400.128 -276.953
L399.526 -274.833
L398.924 -273.458
L398.322 -270.982
L397.72 -269.381
L397.118 -267.735
L396.516 -266.597
L395.914 -265.669
L395.312 -264.158
L394.71 -263.308
L394.108 -262.237
L393.506 -261.378
L392.904 -260.412
L392.302 -259.816
L391.699 -259.376
L391.097 -258.789
L390.495 -258.653
L389.893 -257.575
L389.291 -257.153
L388.689 -256.788
L388.087 -256.613
L387.485 -256.376
L386.883 -256.103
L386.281 -255.668
L385.679 -255.105
L385.077 -255.065
L384.475 -254.618
L383.873 -254.495
L383.27 -254.135
L382.668 -253.86
L382.066 -253.888
L381.464 -253.805
L380.862 -253.136
L380.26 -253.187
L379.658 -252.988
L379.056 -252.93
L378.454 -252.46
L377.852 -252.539
L377.25 -252.549
L376.648 -252.765
L376.046 -252.261
L375.444 -252.113
L374.841 -252.422
L374.239 -252.318
L373.637 -251.784
L373.035 -251.785
L372.433 -251.643
L371.831 -251.524
L371.229 -251.44
L370.627 -251.248
L370.025 -251.252
L369.423 -250.996
L368.821 -250.946
L368.219 -250.672
L367.617 -250.834
L367.015 -250.838
L366.412 -250.572
L365.81 -250.419
L365.208 -250.484
L364.606 -250.676
L364.004 -250.234
L363.402 -250.575
L362.8 -250.338
L362.198 -250.154
L361.596 -250.149
L360.994 -250.222
L360.392 -249.764
L359.79 -249.775
L359.188 -250.066
L358.586 -250.017
L357.983 -250.117
L357.381 -250.008
L356.779 -250.206
L356.177 -249.874
L355.575 -249.914
L354.973 -249.452
L354.371 -249.28
L353.769 -249.752
L353.167 -249.575
L352.565 -249.576
L351.963 -249.428
L351.361 -248.678
L350.759 -249.204
L350.157 -248.751
L349.554 -249.017
L348.952 -248.908
L348.35 -249.096
L347.748 -249.101
L347.146 -248.959
L346.544 -248.81
L345.942 -248.684
L345.34 -248.728
L344.738 -248.816
L344.136 -248.654
L343.534 -248.865
L342.932 -248.956
L342.33 -248.643
L341.728 -248.475
L341.126 -248.745
L340.523 -248.653
L339.921 -248.568
L339.319 -248.497
L338.717 -248.372
L338.115 -248.109
L337.513 -247.846
L336.911 -247.509
L336.309 -247.522
L335.707 -247.867
L335.105 -247.441
L334.503 -247.152
L333.901 -247.011
L333.299 -247.162
L332.697 -247.263
L332.094 -247.141
L331.492 -246.961
L330.89 -246.871
L330.288 -246.658
L329.686 -246.334
L329.084 -246.277
L328.482 -246.166
L327.88 -246.158
L327.278 -245.478
L326.676 -245.906
L326.074 -245.707
L325.472 -245.624
L324.87 -245.509
L324.268 -245.28
L323.665 -245.491
L323.063 -245.441
L322.461 -245.278
L321.859 -245.3
L321.257 -245.068
L320.655 -244.899
L320.053 -245.168
L319.451 -244.731
L318.849 -244.775
L318.247 -244.733
L317.645 -244.593
L317.043 -244.576
L316.441 -244.557
L315.839 -244.444
L315.236 -244.54
L314.634 -244.218
L314.032 -244.57
L313.43 -244.496
L312.828 -244.343
L312.226 -244.093
L311.624 -243.924
L311.022 -243.932
L310.42 -243.826
L309.818 -243.98
L309.216 -243.822
L308.614 -243.565
L308.012 -243.735
L307.41 -243.703
L306.807 -243.527
L306.205 -243.156
L305.603 -243.23
L305.001 -243.162
L304.399 -243.252
L303.797 -242.93
L303.195 -242.763
L302.593 -242.4
L301.991 -242.226
L301.389 -242.251
L300.787 -242.182
L300.185 -241.841
L299.583 -242.15
L298.981 -242.184
L298.379 -242.357
L297.776 -242.341
L297.174 -242.213
L296.572 -242.012
L295.97 -241.937
L295.368 -242.222
L294.766 -242.027
L294.164 -242.049
L293.562 -242.235
L292.96 -242.454
L292.358 -242.688
L291.756 -242.405
L291.154 -242.363
L290.552 -242.243
L289.95 -242.25
L289.347 -242.387
L288.745 -242.332
L288.143 -242.176
L287.541 -242.343
L286.939 -241.986
L286.337 -242.282
L285.735 -242.173
L285.133 -241.965
L284.531 -241.989
L283.929 -242.113
L283.327 -242.135
L282.725 -241.985
L282.123 -242.138
L281.521 -241.815
L280.918 -241.616
L280.316 -241.398
L279.714 -241.153
L279.112 -241.058
L278.51 -241.601
L277.908 -241.641
L277.306 -241.279
L276.704 -241.313
L276.102 -241.507
L275.5 -242.015
L274.898 -242.011
L274.296 -242.074
L273.694 -241.868
L273.092 -241.886
L272.489 -242.11
L271.887 -242.143
L271.285 -242.556
L270.683 -242.26
L270.081 -242.748
L269.479 -243.125
L268.877 -243.258
L268.275 -242.97
L267.673 -243.187
L267.071 -242.839
L266.469 -243.001
L265.867 -243.028
L265.265 -242.885
L264.663 -242.686
L264.06 -242.931
L263.458 -242.725
L262.856 -242.61
L262.254 -242.956
L261.652 -242.959
L261.05 -243.131
L260.448 -243.096
L259.846 -243.136
L259.244 -243.25
L258.642 -243.058
L258.04 -243.065
L257.438 -243.005
L256.836 -242.838
L256.234 -242.981
L255.631 -243.124
L255.029 -242.953
L254.427 -243.066
L253.825 -242.937
L253.223 -242.941
L252.621 -242.955
L252.019 -242.682
L251.417 -242.628
L250.815 -242.715
L250.213 -242.758
L249.611 -242.394
L249.009 -242.408
L248.407 -242.391
L247.805 -242.376
L247.203 -242.469
L246.6 -242.498
L245.998 -242.32
L245.396 -242.51
L244.794 -242.751
L244.192 -242.925
L243.59 -242.574
L242.988 -242.982
L242.386 -242.676
L241.784 -242.648
L241.182 -242.69
L240.58 -242.462
L239.978 -242.767
L239.376 -242.539
L238.774 -242.579
L238.171 -242.72
L237.569 -242.724
L236.967 -242.769
L236.365 -242.665
L235.763 -242.583
L235.161 -242.891
L234.559 -242.91
L233.957 -243.036
L233.355 -243.079
L232.753 -242.777
L232.151 -243.05
L231.549 -242.742
L230.947 -243.096
L230.345 -242.992
L229.742 -243.006
L229.14 -243.086
L228.538 -243.005
L227.936 -243.109
L227.334 -242.886
L226.732 -243.262
L226.13 -242.88
L225.528 -243.208
L224.926 -243.097
L224.324 -242.77
L223.722 -243.127
L223.12 -242.916
L222.518 -242.924
L221.916 -242.993
L221.313 -243.327
L220.711 -243.096
L220.109 -243.032
L219.507 -243.215
L218.905 -243.389
L218.303 -243.274
L217.701 -243.219
L217.099 -243.226
L216.497 -242.832
L215.895 -243
L215.293 -242.929
L214.691 -243.365
L214.089 -243.172
L213.487 -242.87
L212.884 -243.159
L212.282 -243.091
L211.68 -243.302
L211.078 -243.267
L210.476 -243.247
L209.874 -242.97
L209.272 -243.159
L208.67 -243.729
L208.068 -243.459
L207.466 -243.327
L206.864 -243.212
L206.262 -243.154
L205.66 -243.406
L205.058 -243.308
L204.456 -243.398
L203.853 -243.321
L203.251 -243.326
L202.649 -243.52
L202.047 -243.348
L201.445 -243.281
L200.843 -243.426
L200.241 -243.362
L199.639 -243.55
L199.037 -243.371
L198.435 -243.377
L197.833 -243.518
L197.231 -243.422
L196.629 -243.751
L196.027 -243.749
L195.424 -243.679
L194.822 -243.606
L194.22 -243.513
L193.618 -243.584
L193.016 -243.566
L192.414 -243.332
L191.812 -243.349
L191.21 -243.492
L190.608 -243.159
L190.006 -243.407
L189.404 -243.727
L188.802 -243.659
L188.2 -243.775
L187.598 -243.705
L186.995 -243.612
L186.393 -243.487
L185.791 -243.345
L185.189 -243.415
L184.587 -243.411
L183.985 -243.479
L183.383 -243.444
L182.781 -243.687
L182.179 -243.436
L181.577 -243.458
L180.975 -243.306
L180.373 -243.423
L179.771 -243.743
L179.169 -243.631
L178.566 -243.622
L177.964 -243.739
L177.362 -243.835
L176.76 -243.654
L176.158 -243.771
L175.556 -243.717
L174.954 -243.634
L174.352 -243.263
L173.75 -243.47
L173.148 -243.597
L172.546 -243.812
L171.944 -243.424
L171.342 -243.52
L170.74 -243.364
L170.137 -243.521
L169.535 -243.294
L168.933 -243.119
L168.331 -243.858
L167.729 -243.377
L167.127 -243.486
L166.525 -243.951
L165.923 -243.394
L165.321 -243.471
L164.719 -243.686
L164.117 -243.531
L163.515 -243.5
L162.913 -243.352
L162.311 -243.493
L161.709 -243.721
L161.106 -243.77
L160.504 -243.489
L159.902 -243.56
L159.3 -243.712
L158.698 -243.448
L158.096 -243.475
L157.494 -243.467
L156.892 -243.407
L156.29 -243.585
L155.688 -243.12
L155.086 -243.59
L154.484 -243.403
L153.882 -243.043
L153.28 -242.967
L152.677 -243.239
L152.075 -242.666
L151.473 -242.842
L150.871 -243.245
L150.269 -243.15
L149.667 -243.054
L149.065 -243.465
L148.463 -243.302
L147.861 -243.794
L147.259 -243.502
L146.657 -243.374
L146.055 -243.428
L145.453 -243.38
L144.851 -243.32
L144.248 -243.661
L143.646 -243.861
L143.044 -243.494
L142.442 -243.584
L141.84 -243.619
L141.238 -243.824
L140.636 -244.077
L140.034 -244.023
L139.432 -243.807
L138.83 -243.811
L138.228 -244.283
L137.626 -244.043
L137.024 -243.782
L136.422 -243.919
L135.819 -243.645
L135.217 -243.714
L134.615 -243.671
L134.013 -244.113
L133.411 -244.131
L132.809 -243.803
L132.207 -244.112
L131.605 -243.636
L131.003 -244.289
L130.401 -244.028
L129.799 -244.225
L129.197 -244.447
L128.595 -244.191
L127.993 -244.613
L127.39 -244.297
L126.788 -243.987
L126.186 -244.151
L125.584 -243.724
L124.982 -244.149
L124.38 -243.965
L123.778 -243.848
L123.176 -244.211
L122.574 -243.663
L121.972 -243.283
L121.37 -243.65
L120.768 -243.468
L120.166 -243.528
L119.564 -243.572
L118.961 -243.569
L118.359 -243.653
L117.757 -244.018
L117.155 -243.928
L116.553 -243.572
L115.951 -243.838
L115.349 -243.84
L114.747 -243.583
L114.145 -243.916
L113.543 -243.843
L112.941 -243.388
L112.339 -243.801
L111.737 -244.198
L111.135 -244.054
L110.533 -243.519
L109.93 -243.645
L109.328 -243.78
L108.726 -243.326
L108.124 -243.94
L107.522 -243.448
L106.92 -244.106
L106.318 -244.031
L105.716 -243.367
L105.114 -243.5
L104.512 -243.876
L103.91 -243.749
L103.308 -244.132
L102.706 -243.812
L102.104 -243.67
L101.501 -244.154
L100.899 -243.491
L100.297 -243.854
L99.6952 -243.849
L99.0932 -243.319
L98.4911 -243.793
L97.889 -243.128
L97.287 -244.202
L96.6849 -243.614
L96.0828 -243.499
L95.4807 -243.657
L94.8787 -243.953
L94.2766 -243.941
L93.6745 -243.662
L93.0725 -243.963
L92.4704 -244.667
L91.8683 -243.331
L91.2663 -243.173
L90.6642 -243.15
L90.0621 -243.662
L89.46 -244.838
L88.858 -243.951
L88.2559 -244.153
L87.6538 -244.085
L87.0518 -243.656
L86.4497 -243.556
L85.8476 -244.026
L85.2456 -244.229
L84.6435 -244.021
L84.0414 -243.202
L83.4393 -243.194
L82.8373 -244.456
L82.2352 -243.089
L81.6331 -244.098
L81.0311 -243.918
L80.429 -243.92
L79.8269 -242.687
L79.2248 -243.076
L78.6228 -243.647
L78.0207 -242.613
L77.4186 -244.233
L76.8166 -243.132
L76.2145 -243.758
L75.6124 -243.39
L75.0104 -243.888
L74.4083 -244.417
L73.8062 -244.528
L73.2041 -244.744
L72.6021 -246.21
L72 -242.57
z
" id="C1_0_e09363b2ca"/>
    </defs>
    <g clip-path="url(#p7ff5b81e1d)">
     <use style="fill:#0000ff;fill-opacity:0.2;" x="0.0" xlink:href="#C1_0_e09363b2ca" y="432.0"/>
    </g>
   </g>
   <g id="line2d_1">
    <path clip-path="url(#p7ff5b81e1d)" d="
M72 193.976
L72.6021 187.983
L73.2041 188.925
L74.4083 188.849
L75.6124 189.694
L76.2145 189.196
L76.8166 189.818
L77.4186 188.648
L78.0207 190.246
L78.6228 189.133
L79.2248 189.703
L79.8269 190.061
L80.429 188.782
L81.0311 188.787
L81.6331 188.558
L82.2352 189.57
L82.8373 188.157
L83.4393 189.431
L84.0414 189.4
L84.6435 188.562
L85.2456 188.345
L85.8476 188.523
L86.4497 189.003
L87.0518 188.879
L87.6538 188.438
L88.2559 188.362
L88.858 188.552
L89.46 187.657
L90.0621 188.832
L90.6642 189.34
L91.2663 189.303
L91.8683 189.14
L92.4704 187.787
L93.0725 188.496
L93.6745 188.786
L94.2766 188.497
L94.8787 188.488
L96.0828 188.935
L96.6849 188.802
L97.287 188.215
L97.889 189.286
L98.4911 188.613
L99.0932 189.092
L99.6952 188.545
L100.297 188.541
L100.899 188.894
L101.501 188.232
L102.104 188.714
L102.706 188.564
L103.308 188.243
L103.91 188.618
L104.512 188.494
L105.114 188.864
L105.716 188.998
L106.318 188.324
L106.92 188.25
L107.522 188.904
L108.124 188.407
L108.726 189.025
L109.328 188.56
L110.533 188.818
L111.135 188.282
L111.737 188.134
L112.941 188.943
L113.543 188.48
L114.145 188.407
L114.747 188.739
L115.349 188.478
L115.951 188.477
L116.553 188.741
L117.155 188.386
L117.757 188.292
L118.359 188.656
L119.564 188.734
L120.768 188.836
L121.37 188.656
L121.972 189.025
L122.574 188.648
L123.176 188.094
L123.778 188.464
L124.982 188.158
L125.584 188.584
L126.186 188.155
L126.788 188.324
L127.993 187.692
L128.595 188.112
L129.197 187.858
L130.401 188.275
L131.003 188.012
L131.605 188.657
L132.207 188.178
L132.809 188.485
L133.411 188.155
L134.013 188.167
L134.615 188.61
L135.819 188.632
L136.422 188.36
L137.024 188.497
L138.228 187.996
L138.83 188.472
L139.432 188.477
L140.034 188.257
L140.636 188.201
L141.84 188.662
L143.044 188.786
L143.646 188.416
L144.248 188.618
L144.851 188.959
L146.055 188.851
L146.657 188.903
L147.259 188.774
L147.861 188.481
L148.463 188.976
L149.065 188.81
L149.667 189.221
L150.871 189.029
L151.473 189.432
L152.075 189.6
L152.677 189.024
L153.28 189.293
L153.882 189.215
L154.484 188.853
L155.086 188.662
L155.688 189.132
L156.29 188.662
L156.892 188.841
L158.096 188.77
L158.698 188.795
L159.3 188.529
L160.504 188.751
L161.106 188.47
L161.709 188.516
L162.913 188.885
L163.515 188.736
L164.117 188.704
L164.719 188.547
L165.321 188.762
L165.923 188.837
L166.525 188.28
L167.127 188.743
L167.729 188.852
L168.331 188.368
L168.933 189.108
L170.137 188.703
L170.74 188.86
L171.342 188.702
L171.944 188.798
L172.546 188.409
L174.352 188.955
L174.954 188.584
L176.158 188.446
L176.76 188.562
L177.362 188.38
L179.169 188.583
L179.771 188.469
L180.373 188.79
L180.975 188.906
L181.577 188.753
L182.179 188.774
L182.781 188.523
L183.383 188.766
L184.587 188.797
L186.393 188.719
L188.2 188.428
L188.802 188.545
L189.404 188.475
L190.608 189.043
L191.21 188.709
L191.812 188.852
L192.414 188.868
L193.016 188.633
L196.629 188.444
L197.231 188.774
L197.833 188.678
L198.435 188.817
L199.037 188.823
L199.639 188.643
L200.241 188.831
L200.843 188.766
L201.445 188.911
L202.649 188.671
L203.251 188.865
L205.66 188.783
L206.262 189.034
L207.466 188.86
L208.068 188.728
L208.67 188.457
L209.272 189.027
L209.874 189.216
L210.476 188.939
L211.68 188.883
L212.282 189.094
L212.884 189.025
L213.487 189.315
L214.691 188.817
L215.293 189.254
L215.895 189.181
L216.497 189.351
L217.099 188.955
L218.303 188.906
L218.905 188.791
L220.109 189.148
L220.711 189.083
L221.313 188.851
L221.916 189.185
L223.12 189.262
L223.722 189.05
L224.324 189.407
L224.926 189.079
L225.528 188.967
L226.13 189.295
L226.732 188.913
L227.334 189.289
L227.936 189.065
L228.538 189.169
L229.14 189.088
L230.345 189.181
L230.947 189.076
L231.549 189.43
L232.151 189.122
L232.753 189.395
L233.355 189.092
L235.161 189.279
L235.763 189.588
L237.569 189.445
L238.171 189.45
L239.376 189.629
L239.978 189.401
L240.58 189.706
L241.182 189.477
L242.386 189.491
L242.988 189.184
L243.59 189.592
L244.192 189.241
L245.998 189.846
L246.6 189.667
L249.611 189.771
L250.213 189.408
L252.019 189.485
L252.621 189.211
L253.825 189.231
L254.427 189.102
L255.029 189.214
L255.631 189.044
L256.836 189.33
L258.04 189.102
L258.642 189.109
L259.244 188.917
L260.448 189.071
L261.05 189.036
L261.652 189.208
L262.254 189.211
L262.856 189.558
L264.06 189.237
L264.663 189.481
L265.867 189.139
L266.469 189.166
L267.071 189.329
L267.673 188.979
L268.275 189.197
L268.877 188.908
L269.479 189.042
L270.683 189.911
L271.285 189.615
L271.887 190.03
L272.489 190.064
L273.092 190.289
L273.694 190.307
L274.296 190.101
L275.5 190.161
L276.102 190.67
L276.704 190.865
L277.306 190.9
L277.908 190.537
L278.51 190.578
L279.112 191.122
L279.714 191.027
L282.123 190.035
L282.725 190.188
L283.327 190.037
L285.133 190.207
L286.337 189.889
L286.939 190.184
L287.541 189.827
L288.143 189.993
L289.347 189.782
L289.95 189.919
L290.552 189.926
L292.358 189.48
L294.164 190.119
L294.766 190.141
L295.368 189.946
L295.97 190.231
L296.572 190.156
L297.776 189.826
L298.379 189.809
L298.981 189.983
L299.583 190.017
L300.185 190.325
L300.787 189.985
L302.593 189.766
L303.195 189.404
L303.797 189.238
L304.399 188.916
L305.001 189.008
L305.603 188.94
L306.205 189.015
L306.807 188.642
L307.41 188.467
L308.012 188.435
L308.614 188.606
L309.818 188.191
L310.42 188.344
L311.022 188.238
L311.624 188.247
L314.032 187.601
L314.634 187.953
L315.236 187.631
L315.839 187.726
L317.043 187.594
L317.645 187.577
L318.849 187.396
L319.451 187.44
L320.053 187.002
L320.655 187.272
L321.859 186.871
L322.461 186.893
L323.665 186.679
L324.268 186.891
L325.472 186.547
L326.074 186.465
L326.676 186.264
L327.278 186.694
L327.88 186.013
L329.084 185.894
L329.686 185.838
L330.89 185.3
L332.094 185.031
L332.697 184.909
L333.901 185.161
L334.503 185.021
L335.105 184.73
L335.707 184.304
L336.309 184.65
L336.911 184.663
L338.115 184.066
L338.717 183.805
L340.523 183.529
L341.126 183.437
L341.728 183.709
L342.33 183.541
L342.932 183.228
L343.534 183.32
L344.136 183.533
L344.738 183.371
L345.942 183.504
L348.35 183.094
L348.952 183.282
L349.554 183.174
L350.157 183.441
L350.759 182.988
L351.361 183.515
L351.963 182.764
L352.565 182.617
L353.167 182.618
L353.769 182.441
L354.371 182.914
L354.973 182.743
L355.575 182.28
L356.177 182.321
L356.779 181.988
L357.381 182.188
L357.983 182.079
L358.586 182.179
L359.188 182.131
L359.79 182.422
L360.392 182.435
L360.994 181.975
L362.198 182.044
L363.402 181.623
L364.004 181.965
L364.606 181.523
L365.208 181.716
L365.81 181.781
L367.617 181.367
L368.219 181.53
L368.821 181.255
L369.423 181.206
L370.025 180.949
L370.627 180.953
L371.831 180.677
L373.637 180.418
L374.239 179.883
L374.841 179.78
L375.444 180.089
L376.046 179.942
L376.648 179.436
L377.25 179.653
L378.454 179.743
L379.056 179.27
L379.658 179.214
L380.26 179.014
L380.862 179.066
L381.464 178.396
L383.27 178.065
L383.873 177.705
L384.475 177.581
L385.077 177.135
L385.679 177.094
L386.883 176.096
L388.087 175.584
L388.689 175.41
L389.893 174.621
L390.495 173.541
L391.097 173.404
L392.904 171.779
L395.312 168.026
L395.914 166.511
L396.516 165.583
L397.118 164.442
L398.322 161.189
L398.924 158.709
L399.526 157.331
L400.128 155.209
L400.73 152.653
L401.333 151.41
L401.935 152.849
L402.537 155.229
L403.139 158.169
L404.343 172.077
L404.945 175.246
L405.547 177.251
L406.149 178.17
L406.751 178.856
L407.955 179.633
L408.557 179.607
L409.159 180.029
L409.762 180.204
L410.364 180.244
L410.966 180.818
L411.568 180.899
L412.17 181.194
L412.772 180.776
L413.374 181.179
L413.976 180.761
L414.578 181.144
L415.18 181.266
L415.782 181.035
L416.384 181.068
L416.986 181.236
L417.588 181.179
L419.997 181.578
L420.599 181.775
L421.201 181.475
L421.803 181.677
L423.007 181.584
L423.609 181.901
L424.211 181.576
L425.415 181.839
L426.017 181.791
L426.62 182.017
L427.222 181.982
L427.824 182.116
L428.426 182.588
L429.028 182.011
L429.63 182.114
L430.232 182.092
L430.834 181.937
L431.436 182.414
L432.038 182.268
L432.64 182.398
L433.242 182.191
L433.844 182.277
L434.446 182.542
L435.049 182.013
L435.651 181.651
L436.253 181.572
L436.855 181.153
L437.457 181.284
L438.059 180.906
L438.661 181.108
L439.263 180.872
L439.865 181.124
L440.467 180.753
L441.671 180.411
L442.273 180.76
L443.477 179.943
L444.08 180.231
L444.682 180.297
L445.284 180.596
L445.886 180.307
L446.488 180.233
L447.09 180.297
L447.692 179.718
L448.896 179.761
L449.498 179.598
L450.1 179.878
L450.702 179.837
L451.304 179.065
L451.906 179.057
L452.509 178.909
L453.111 178.642
L453.713 179.262
L454.315 179.332
L455.519 178.047
L456.121 178.197
L456.723 178.546
L457.927 177.985
L458.529 177.937
L459.131 177.471
L460.335 177.537
L460.938 177.367
L461.54 177.5
L462.744 176.883
L463.948 176.591
L464.55 176.728
L465.152 176.179
L465.754 176.284
L466.356 176.644
L466.958 175.927
L467.56 175.387
L468.162 176.109
L468.764 175.605
L469.367 175.554
L469.969 175.628
L471.775 173.998
L472.377 173.966
L472.979 174.66
L473.581 173.589
L474.183 172.998
L474.785 172.944
L475.387 173.119
L475.989 172.672
L477.193 172.982
L477.796 171.921
L478.398 172.887
L479 173.128
L479.602 172.25
L480.204 172.863
L480.806 172.073
L481.408 172.542
L482.01 172.807
L482.612 172.835
L483.214 172.2
L483.816 172.967
L484.418 172.347
L485.02 172.965
L485.622 172.38
L486.224 171.963
L487.429 173.418
L488.633 173.257
L489.837 172.458
L490.439 173.264
L491.041 173.397
L492.245 173.022
L492.847 172.949
L493.449 173.092
L494.051 174.267
L494.653 173.893
L495.256 173.186
L496.46 173.455
L497.062 172.81
L497.664 173.441
L498.266 174.349
L498.868 173.439
L499.47 173.01
L500.072 174.14
L500.674 174.001
L501.276 173.517
L501.878 173.921
L502.48 174.563
L503.082 174.485
L503.685 174.037
L504.287 174.211
L504.889 175.588
L505.491 174.236
L506.093 173.849
L506.695 173.964
L507.297 173.604
L507.899 174.758
L508.501 174.658
L509.103 175.104
L509.705 175.159
L510.307 175.739
L510.909 174.953
L511.511 175.529
L512.114 177.266
L512.716 174.315
L513.318 173.874
L513.92 175.231
L514.522 176.092
L515.124 174.845
L515.726 174.815
L516.328 175.141
L516.93 177.995
L517.532 182.023
L517.532 182.023" style="fill:none;stroke:#0000ff;stroke-linecap:square;"/>
   </g>
   <g id="matplotlib.axis_1">
    <g id="xtick_1">
     <g id="line2d_2">
      <defs>
       <path d="
M0 0
L0 -4" id="m93b0483c22" style="stroke:#000000;stroke-width:0.5;"/>
      </defs>
      <g>
       <use style="stroke:#000000;stroke-width:0.5;" x="72.0" xlink:href="#m93b0483c22" y="388.8"/>
      </g>
     </g>
     <g id="line2d_3">
      <defs>
       <path d="
M0 0
L0 4" id="m741efc42ff" style="stroke:#000000;stroke-width:0.5;"/>
      </defs>
      <g>
       <use style="stroke:#000000;stroke-width:0.5;" x="72.0" xlink:href="#m741efc42ff" y="43.2"/>
      </g>
     </g>
     <g id="text_1">
      <!-- 0 -->
      <defs>
       <path d="
M31.7812 66.4062
Q24.1719 66.4062 20.3281 58.9062
Q16.5 51.4219 16.5 36.375
Q16.5 21.3906 20.3281 13.8906
Q24.1719 6.39062 31.7812 6.39062
Q39.4531 6.39062 43.2812 13.8906
Q47.125 21.3906 47.125 36.375
Q47.125 51.4219 43.2812 58.9062
Q39.4531 66.4062 31.7812 66.4062
M31.7812 74.2188
Q44.0469 74.2188 50.5156 64.5156
Q56.9844 54.8281 56.9844 36.375
Q56.9844 17.9688 50.5156 8.26562
Q44.0469 -1.42188 31.7812 -1.42188
Q19.5312 -1.42188 13.0625 8.26562
Q6.59375 17.9688 6.59375 36.375
Q6.59375 54.8281 13.0625 64.5156
Q19.5312 74.2188 31.7812 74.2188" id="DejaVuSans-30"/>
      </defs>
      <g transform="translate(68.9765625 401.918125)scale(0.12 -0.12)">
       <use xlink:href="#DejaVuSans-30"/>
      </g>
     </g>
    </g>
    <g id="xtick_2">
     <g id="line2d_4">
      <g>
       <use style="stroke:#000000;stroke-width:0.5;" x="161.28" xlink:href="#m93b0483c22" y="388.8"/>
      </g>
     </g>
     <g id="line2d_5">
      <g>
       <use style="stroke:#000000;stroke-width:0.5;" x="161.28" xlink:href="#m741efc42ff" y="43.2"/>
      </g>
     </g>
     <g id="text_2">
      <!-- 1 -->
      <defs>
       <path d="
M12.4062 8.29688
L28.5156 8.29688
L28.5156 63.9219
L10.9844 60.4062
L10.9844 69.3906
L28.4219 72.9062
L38.2812 72.9062
L38.2812 8.29688
L54.3906 8.29688
L54.3906 0
L12.4062 0
z
" id="DejaVuSans-31"/>
      </defs>
      <g transform="translate(158.675625 401.918125)scale(0.12 -0.12)">
       <use xlink:href="#DejaVuSans-31"/>
      </g>
     </g>
    </g>
    <g id="xtick_3">
     <g id="line2d_6">
      <g>
       <use style="stroke:#000000;stroke-width:0.5;" x="250.56" xlink:href="#m93b0483c22" y="388.8"/>
      </g>
     </g>
     <g id="line2d_7">
      <g>
       <use style="stroke:#000000;stroke-width:0.5;" x="250.56" xlink:href="#m741efc42ff" y="43.2"/>
      </g>
     </g>
     <g id="text_3">
      <!-- 2 -->
      <defs>
       <path d="
M19.1875 8.29688
L53.6094 8.29688
L53.6094 0
L7.32812 0
L7.32812 8.29688
Q12.9375 14.1094 22.625 23.8906
Q32.3281 33.6875 34.8125 36.5312
Q39.5469 41.8438 41.4219 45.5312
Q43.3125 49.2188 43.3125 52.7812
Q43.3125 58.5938 39.2344 62.25
Q35.1562 65.9219 28.6094 65.9219
Q23.9688 65.9219 18.8125 64.3125
Q13.6719 62.7031 7.8125 59.4219
L7.8125 69.3906
Q13.7656 71.7812 18.9375 73
Q24.125 74.2188 28.4219 74.2188
Q39.75 74.2188 46.4844 68.5469
Q53.2188 62.8906 53.2188 53.4219
Q53.2188 48.9219 51.5312 44.8906
Q49.8594 40.875 45.4062 35.4062
Q44.1875 33.9844 37.6406 27.2188
Q31.1094 20.4531 19.1875 8.29688" id="DejaVuSans-32"/>
      </defs>
      <g transform="translate(247.783125 401.918125)scale(0.12 -0.12)">
       <use xlink:href="#DejaVuSans-32"/>
      </g>
     </g>
    </g>
    <g id="xtick_4">
     <g id="line2d_8">
      <g>
       <use style="stroke:#000000;stroke-width:0.5;" x="339.84" xlink:href="#m93b0483c22" y="388.8"/>
      </g>
     </g>
     <g id="line2d_9">
      <g>
       <use style="stroke:#000000;stroke-width:0.5;" x="339.84" xlink:href="#m741efc42ff" y="43.2"/>
      </g>
     </g>
     <g id="text_4">
      <!-- 3 -->
      <defs>
       <path d="
M40.5781 39.3125
Q47.6562 37.7969 51.625 33
Q55.6094 28.2188 55.6094 21.1875
Q55.6094 10.4062 48.1875 4.48438
Q40.7656 -1.42188 27.0938 -1.42188
Q22.5156 -1.42188 17.6562 -0.515625
Q12.7969 0.390625 7.625 2.20312
L7.625 11.7188
Q11.7188 9.32812 16.5938 8.10938
Q21.4844 6.89062 26.8125 6.89062
Q36.0781 6.89062 40.9375 10.5469
Q45.7969 14.2031 45.7969 21.1875
Q45.7969 27.6406 41.2812 31.2656
Q36.7656 34.9062 28.7188 34.9062
L20.2188 34.9062
L20.2188 43.0156
L29.1094 43.0156
Q36.375 43.0156 40.2344 45.9219
Q44.0938 48.8281 44.0938 54.2969
Q44.0938 59.9062 40.1094 62.9062
Q36.1406 65.9219 28.7188 65.9219
Q24.6562 65.9219 20.0156 65.0312
Q15.375 64.1562 9.8125 62.3125
L9.8125 71.0938
Q15.4375 72.6562 20.3438 73.4375
Q25.25 74.2188 29.5938 74.2188
Q40.8281 74.2188 47.3594 69.1094
Q53.9062 64.0156 53.9062 55.3281
Q53.9062 49.2656 50.4375 45.0938
Q46.9688 40.9219 40.5781 39.3125" id="DejaVuSans-33"/>
      </defs>
      <g transform="translate(336.9609375 401.918125)scale(0.12 -0.12)">
       <use xlink:href="#DejaVuSans-33"/>
      </g>
     </g>
    </g>
    <g id="xtick_5">
     <g id="line2d_10">
      <g>
       <use style="stroke:#000000;stroke-width:0.5;" x="429.12" xlink:href="#m93b0483c22" y="388.8"/>
      </g>
     </g>
     <g id="line2d_11">
      <g>
       <use style="stroke:#000000;stroke-width:0.5;" x="429.12" xlink:href="#m741efc42ff" y="43.2"/>
      </g>
     </g>
     <g id="text_5">
      <!-- 4 -->
      <defs>
       <path d="
M37.7969 64.3125
L12.8906 25.3906
L37.7969 25.3906
z

M35.2031 72.9062
L47.6094 72.9062
L47.6094 25.3906
L58.0156 25.3906
L58.0156 17.1875
L47.6094 17.1875
L47.6094 0
L37.7969 0
L37.7969 17.1875
L4.89062 17.1875
L4.89062 26.7031
z
" id="DejaVuSans-34"/>
      </defs>
      <g transform="translate(425.9325 401.918125)scale(0.12 -0.12)">
       <use xlink:href="#DejaVuSans-34"/>
      </g>
     </g>
    </g>
    <g id="xtick_6">
     <g id="line2d_12">
      <g>
       <use style="stroke:#000000;stroke-width:0.5;" x="518.4" xlink:href="#m93b0483c22" y="388.8"/>
      </g>
     </g>
     <g id="line2d_13">
      <g>
       <use style="stroke:#000000;stroke-width:0.5;" x="518.4" xlink:href="#m741efc42ff" y="43.2"/>
      </g>
     </g>
     <g id="text_6">
      <!-- 5 -->
      <defs>
       <path d="
M10.7969 72.9062
L49.5156 72.9062
L49.5156 64.5938
L19.8281 64.5938
L19.8281 46.7344
Q21.9688 47.4688 24.1094 47.8281
Q26.2656 48.1875 28.4219 48.1875
Q40.625 48.1875 47.75 41.5
Q54.8906 34.8125 54.8906 23.3906
Q54.8906 11.625 47.5625 5.09375
Q40.2344 -1.42188 26.9062 -1.42188
Q22.3125 -1.42188 17.5469 -0.640625
Q12.7969 0.140625 7.71875 1.70312
L7.71875 11.625
Q12.1094 9.23438 16.7969 8.0625
Q21.4844 6.89062 26.7031 6.89062
Q35.1562 6.89062 40.0781 11.3281
Q45.0156 15.7656 45.0156 23.3906
Q45.0156 31 40.0781 35.4375
Q35.1562 39.8906 26.7031 39.8906
Q22.75 39.8906 18.8125 39.0156
Q14.8906 38.1406 10.7969 36.2812
z
" id="DejaVuSans-35"/>
      </defs>
      <g transform="translate(515.5696875 401.918125)scale(0.12 -0.12)">
       <use xlink:href="#DejaVuSans-35"/>
      </g>
     </g>
    </g>
    <g id="text_7">
     <!-- q [1/nm] -->
     <defs>
      <path d="
M25.3906 72.9062
L33.6875 72.9062
L8.29688 -9.28125
L0 -9.28125
z
" id="DejaVuSans-2f"/>
      <path d="
M8.59375 75.9844
L29.2969 75.9844
L29.2969 69
L17.5781 69
L17.5781 -6.20312
L29.2969 -6.20312
L29.2969 -13.1875
L8.59375 -13.1875
z
" id="DejaVuSans-5b"/>
      <path d="
M52 44.1875
Q55.375 50.25 60.0625 53.125
Q64.75 56 71.0938 56
Q79.6406 56 84.2812 50.0156
Q88.9219 44.0469 88.9219 33.0156
L88.9219 0
L79.8906 0
L79.8906 32.7188
Q79.8906 40.5781 77.0938 44.375
Q74.3125 48.1875 68.6094 48.1875
Q61.625 48.1875 57.5625 43.5469
Q53.5156 38.9219 53.5156 30.9062
L53.5156 0
L44.4844 0
L44.4844 32.7188
Q44.4844 40.625 41.7031 44.4062
Q38.9219 48.1875 33.1094 48.1875
Q26.2188 48.1875 22.1562 43.5312
Q18.1094 38.875 18.1094 30.9062
L18.1094 0
L9.07812 0
L9.07812 54.6875
L18.1094 54.6875
L18.1094 46.1875
Q21.1875 51.2188 25.4844 53.6094
Q29.7812 56 35.6875 56
Q41.6562 56 45.8281 52.9688
Q50 49.9531 52 44.1875" id="DejaVuSans-6d"/>
      <path d="
M54.8906 33.0156
L54.8906 0
L45.9062 0
L45.9062 32.7188
Q45.9062 40.4844 42.875 44.3281
Q39.8438 48.1875 33.7969 48.1875
Q26.5156 48.1875 22.3125 43.5469
Q18.1094 38.9219 18.1094 30.9062
L18.1094 0
L9.07812 0
L9.07812 54.6875
L18.1094 54.6875
L18.1094 46.1875
Q21.3438 51.125 25.7031 53.5625
Q30.0781 56 35.7969 56
Q45.2188 56 50.0469 50.1719
Q54.8906 44.3438 54.8906 33.0156" id="DejaVuSans-6e"/>
      <path d="
M30.4219 75.9844
L30.4219 -13.1875
L9.71875 -13.1875
L9.71875 -6.20312
L21.3906 -6.20312
L21.3906 69
L9.71875 69
L9.71875 75.9844
z
" id="DejaVuSans-5d"/>
      <path id="DejaVuSans-20"/>
      <path d="
M14.7969 27.2969
Q14.7969 17.3906 18.875 11.75
Q22.9531 6.10938 30.0781 6.10938
Q37.2031 6.10938 41.2969 11.75
Q45.4062 17.3906 45.4062 27.2969
Q45.4062 37.2031 41.2969 42.8438
Q37.2031 48.4844 30.0781 48.4844
Q22.9531 48.4844 18.875 42.8438
Q14.7969 37.2031 14.7969 27.2969
M45.4062 8.20312
Q42.5781 3.32812 38.25 0.953125
Q33.9375 -1.42188 27.875 -1.42188
Q17.9688 -1.42188 11.7344 6.48438
Q5.51562 14.4062 5.51562 27.2969
Q5.51562 40.1875 11.7344 48.0938
Q17.9688 56 27.875 56
Q33.9375 56 38.25 53.625
Q42.5781 51.2656 45.4062 46.3906
L45.4062 54.6875
L54.3906 54.6875
L54.3906 -20.7969
L45.4062 -20.7969
z
" id="DejaVuSans-71"/>
     </defs>
     <g transform="translate(269.8321875 418.531875)scale(0.12 -0.12)">
      <use xlink:href="#DejaVuSans-71"/>
      <use x="63.4765625" xlink:href="#DejaVuSans-20"/>
      <use x="95.263671875" xlink:href="#DejaVuSans-5b"/>
      <use x="134.27734375" xlink:href="#DejaVuSans-31"/>
      <use x="197.900390625" xlink:href="#DejaVuSans-2f"/>
      <use x="231.591796875" xlink:href="#DejaVuSans-6e"/>
      <use x="294.970703125" xlink:href="#DejaVuSans-6d"/>
      <use x="392.3828125" xlink:href="#DejaVuSans-5d"/>
     </g>
    </g>
   </g>
   <g id="matplotlib.axis_2">
    <g id="ytick_1">
     <g id="line2d_14">
      <defs>
       <path d="
M0 0
L4 0" id="m728421d6d4" style="stroke:#000000;stroke-width:0.5;"/>
      </defs>
      <g>
       <use style="stroke:#000000;stroke-width:0.5;" x="72.0" xlink:href="#m728421d6d4" y="388.8"/>
      </g>
     </g>
     <g id="line2d_15">
      <defs>
       <path d="
M0 0
L-4 0" id="mcb0005524f" style="stroke:#000000;stroke-width:0.5;"/>
      </defs>
      <g>
       <use style="stroke:#000000;stroke-width:0.5;" x="518.4" xlink:href="#mcb0005524f" y="388.8"/>
      </g>
     </g>
     <g id="text_8">
      <!-- $\mathdefault{10^{0}}$ -->
      <g transform="translate(46.04 393.024375)scale(0.12 -0.12)">
       <use transform="translate(0.0 0.234375)" xlink:href="#DejaVuSans-31"/>
       <use transform="translate(63.623046875 0.234375)" xlink:href="#DejaVuSans-30"/>
       <use transform="translate(127.24609375 58.046875)scale(0.7)" xlink:href="#DejaVuSans-30"/>
      </g>
     </g>
    </g>
    <g id="ytick_2">
     <g id="line2d_16">
      <g>
       <use style="stroke:#000000;stroke-width:0.5;" x="72.0" xlink:href="#m728421d6d4" y="273.6"/>
      </g>
     </g>
     <g id="line2d_17">
      <g>
       <use style="stroke:#000000;stroke-width:0.5;" x="518.4" xlink:href="#mcb0005524f" y="273.6"/>
      </g>
     </g>
     <g id="text_9">
      <!-- $\mathdefault{10^{1}}$ -->
      <g transform="translate(46.04 277.764375)scale(0.12 -0.12)">
       <use transform="translate(0.0 0.153125)" xlink:href="#DejaVuSans-31"/>
       <use transform="translate(63.623046875 0.153125)" xlink:href="#DejaVuSans-30"/>
       <use transform="translate(127.24609375 57.965625)scale(0.7)" xlink:href="#DejaVuSans-31"/>
      </g>
     </g>
    </g>
    <g id="ytick_3">
     <g id="line2d_18">
      <g>
       <use style="stroke:#000000;stroke-width:0.5;" x="72.0" xlink:href="#m728421d6d4" y="158.4"/>
      </g>
     </g>
     <g id="line2d_19">
      <g>
       <use style="stroke:#000000;stroke-width:0.5;" x="518.4" xlink:href="#mcb0005524f" y="158.4"/>
      </g>
     </g>
     <g id="text_10">
      <!-- $\mathdefault{10^{2}}$ -->
      <g transform="translate(46.04 162.624375)scale(0.12 -0.12)">
       <use transform="translate(0.0 0.234375)" xlink:href="#DejaVuSans-31"/>
       <use transform="translate(63.623046875 0.234375)" xlink:href="#DejaVuSans-30"/>
       <use transform="translate(127.24609375 58.046875)scale(0.7)" xlink:href="#DejaVuSans-32"/>
      </g>
     </g>
    </g>
    <g id="ytick_4">
     <g id="line2d_20">
      <g>
       <use style="stroke:#000000;stroke-width:0.5;" x="72.0" xlink:href="#m728421d6d4" y="43.2"/>
      </g>
     </g>
     <g id="line2d_21">
      <g>
       <use style="stroke:#000000;stroke-width:0.5;" x="518.4" xlink:href="#mcb0005524f" y="43.2"/>
      </g>
     </g>
     <g id="text_11">
      <!-- $\mathdefault{10^{3}}$ -->
      <g transform="translate(46.04 47.424375)scale(0.12 -0.12)">
       <use transform="translate(0.0 0.234375)" xlink:href="#DejaVuSans-31"/>
       <use transform="translate(63.623046875 0.234375)" xlink:href="#DejaVuSans-30"/>
       <use transform="translate(127.24609375 58.046875)scale(0.7)" xlink:href="#DejaVuSans-33"/>
      </g>
     </g>
    </g>
    <g id="ytick_5">
     <g id="line2d_22">
      <defs>
       <path d="
M0 0
L2 0" id="mf0c55a9a47" style="stroke:#000000;stroke-width:0.5;"/>
      </defs>
      <g>
       <use style="stroke:#000000;stroke-width:0.5;" x="72.0" xlink:href="#mf0c55a9a47" y="354.1213445"/>
      </g>
     </g>
     <g id="line2d_23">
      <defs>
       <path d="
M0 0
L-2 0" id="ma4f294b3af" style="stroke:#000000;stroke-width:0.5;"/>
      </defs>
      <g>
       <use style="stroke:#000000;stroke-width:0.5;" x="518.4" xlink:href="#ma4f294b3af" y="354.1213445"/>
      </g>
     </g>
    </g>
    <g id="ytick_6">
     <g id="line2d_24">
      <g>
       <use style="stroke:#000000;stroke-width:0.5;" x="72.0" xlink:href="#mf0c55a9a47" y="333.835631456"/>
      </g>
     </g>
     <g id="line2d_25">
      <g>
       <use style="stroke:#000000;stroke-width:0.5;" x="518.4" xlink:href="#ma4f294b3af" y="333.835631456"/>
      </g>
     </g>
    </g>
    <g id="ytick_7">
     <g id="line2d_26">
      <g>
       <use style="stroke:#000000;stroke-width:0.5;" x="72.0" xlink:href="#mf0c55a9a47" y="319.442688999"/>
      </g>
     </g>
     <g id="line2d_27">
      <g>
       <use style="stroke:#000000;stroke-width:0.5;" x="518.4" xlink:href="#ma4f294b3af" y="319.442688999"/>
      </g>
     </g>
    </g>
    <g id="ytick_8">
     <g id="line2d_28">
      <g>
       <use style="stroke:#000000;stroke-width:0.5;" x="72.0" xlink:href="#mf0c55a9a47" y="308.2786555"/>
      </g>
     </g>
     <g id="line2d_29">
      <g>
       <use style="stroke:#000000;stroke-width:0.5;" x="518.4" xlink:href="#ma4f294b3af" y="308.2786555"/>
      </g>
     </g>
    </g>
    <g id="ytick_9">
     <g id="line2d_30">
      <g>
       <use style="stroke:#000000;stroke-width:0.5;" x="72.0" xlink:href="#mf0c55a9a47" y="299.156975956"/>
      </g>
     </g>
     <g id="line2d_31">
      <g>
       <use style="stroke:#000000;stroke-width:0.5;" x="518.4" xlink:href="#ma4f294b3af" y="299.156975956"/>
      </g>
     </g>
    </g>
    <g id="ytick_10">
     <g id="line2d_32">
      <g>
       <use style="stroke:#000000;stroke-width:0.5;" x="72.0" xlink:href="#mf0c55a9a47" y="291.44470579"/>
      </g>
     </g>
     <g id="line2d_33">
      <g>
       <use style="stroke:#000000;stroke-width:0.5;" x="518.4" xlink:href="#ma4f294b3af" y="291.44470579"/>
      </g>
     </g>
    </g>
    <g id="ytick_11">
     <g id="line2d_34">
      <g>
       <use style="stroke:#000000;stroke-width:0.5;" x="72.0" xlink:href="#mf0c55a9a47" y="284.764033499"/>
      </g>
     </g>
     <g id="line2d_35">
      <g>
       <use style="stroke:#000000;stroke-width:0.5;" x="518.4" xlink:href="#ma4f294b3af" y="284.764033499"/>
      </g>
     </g>
    </g>
    <g id="ytick_12">
     <g id="line2d_36">
      <g>
       <use style="stroke:#000000;stroke-width:0.5;" x="72.0" xlink:href="#mf0c55a9a47" y="278.871262913"/>
      </g>
     </g>
     <g id="line2d_37">
      <g>
       <use style="stroke:#000000;stroke-width:0.5;" x="518.4" xlink:href="#ma4f294b3af" y="278.871262913"/>
      </g>
     </g>
    </g>
    <g id="ytick_13">
     <g id="line2d_38">
      <g>
       <use style="stroke:#000000;stroke-width:0.5;" x="72.0" xlink:href="#mf0c55a9a47" y="238.9213445"/>
      </g>
     </g>
     <g id="line2d_39">
      <g>
       <use style="stroke:#000000;stroke-width:0.5;" x="518.4" xlink:href="#ma4f294b3af" y="238.9213445"/>
      </g>
     </g>
    </g>
    <g id="ytick_14">
     <g id="line2d_40">
      <g>
       <use style="stroke:#000000;stroke-width:0.5;" x="72.0" xlink:href="#mf0c55a9a47" y="218.635631456"/>
      </g>
     </g>
     <g id="line2d_41">
      <g>
       <use style="stroke:#000000;stroke-width:0.5;" x="518.4" xlink:href="#ma4f294b3af" y="218.635631456"/>
      </g>
     </g>
    </g>
    <g id="ytick_15">
     <g id="line2d_42">
      <g>
       <use style="stroke:#000000;stroke-width:0.5;" x="72.0" xlink:href="#mf0c55a9a47" y="204.242688999"/>
      </g>
     </g>
     <g id="line2d_43">
      <g>
       <use style="stroke:#000000;stroke-width:0.5;" x="518.4" xlink:href="#ma4f294b3af" y="204.242688999"/>
      </g>
     </g>
    </g>
    <g id="ytick_16">
     <g id="line2d_44">
      <g>
       <use style="stroke:#000000;stroke-width:0.5;" x="72.0" xlink:href="#mf0c55a9a47" y="193.0786555"/>
      </g>
     </g>
     <g id="line2d_45">
      <g>
       <use style="stroke:#000000;stroke-width:0.5;" x="518.4" xlink:href="#ma4f294b3af" y="193.0786555"/>
      </g>
     </g>
    </g>
    <g id="ytick_17">
     <g id="line2d_46">
      <g>
       <use style="stroke:#000000;stroke-width:0.5;" x="72.0" xlink:href="#mf0c55a9a47" y="183.956975956"/>
      </g>
     </g>
     <g id="line2d_47">
      <g>
       <use style="stroke:#000000;stroke-width:0.5;" x="518.4" xlink:href="#ma4f294b3af" y="183.956975956"/>
      </g>
     </g>
    </g>
    <g id="ytick_18">
     <g id="line2d_48">
      <g>
       <use style="stroke:#000000;stroke-width:0.5;" x="72.0" xlink:href="#mf0c55a9a47" y="176.24470579"/>
      </g>
     </g>
     <g id="line2d_49">
      <g>
       <use style="stroke:#000000;stroke-width:0.5;" x="518.4" xlink:href="#ma4f294b3af" y="176.24470579"/>
      </g>
     </g>
    </g>
    <g id="ytick_19">
     <g id="line2d_50">
      <g>
       <use style="stroke:#000000;stroke-width:0.5;" x="72.0" xlink:href="#mf0c55a9a47" y="169.564033499"/>
      </g>
     </g>
     <g id="line2d_51">
      <g>
       <use style="stroke:#000000;stroke-width:0.5;" x="518.4" xlink:href="#ma4f294b3af" y="169.564033499"/>
      </g>
     </g>
    </g>
    <g id="ytick_20">
     <g id="line2d_52">
      <g>
       <use style="stroke:#000000;stroke-width:0.5;" x="72.0" xlink:href="#mf0c55a9a47" y="163.671262913"/>
      </g>
     </g>
     <g id="line2d_53">
      <g>
       <use style="stroke:#000000;stroke-width:0.5;" x="518.4" xlink:href="#ma4f294b3af" y="163.671262913"/>
      </g>
     </g>
    </g>
    <g id="ytick_21">
     <g id="line2d_54">
      <g>
       <use style="stroke:#000000;stroke-width:0.5;" x="72.0" xlink:href="#mf0c55a9a47" y="123.7213445"/>
      </g>
     </g>
     <g id="line2d_55">
      <g>
       <use style="stroke:#000000;stroke-width:0.5;" x="518.4" xlink:href="#ma4f294b3af" y="123.7213445"/>
      </g>
     </g>
    </g>
    <g id="ytick_22">
     <g id="line2d_56">
      <g>
       <use style="stroke:#000000;stroke-width:0.5;" x="72.0" xlink:href="#mf0c55a9a47" y="103.435631456"/>
      </g>
     </g>
     <g id="line2d_57">
      <g>
       <use style="stroke:#000000;stroke-width:0.5;" x="518.4" xlink:href="#ma4f294b3af" y="103.435631456"/>
      </g>
     </g>
    </g>
    <g id="ytick_23">
     <g id="line2d_58">
      <g>
       <use style="stroke:#000000;stroke-width:0.5;" x="72.0" xlink:href="#mf0c55a9a47" y="89.042688999"/>
      </g>
     </g>
     <g id="line2d_59">
      <g>
       <use style="stroke:#000000;stroke-width:0.5;" x="518.4" xlink:href="#ma4f294b3af" y="89.042688999"/>
      </g>
     </g>
    </g>
    <g id="ytick_24">
     <g id="line2d_60">
      <g>
       <use style="stroke:#000000;stroke-width:0.5;" x="72.0" xlink:href="#mf0c55a9a47" y="77.8786555005"/>
      </g>
     </g>
     <g id="line2d_61">
      <g>
       <use style="stroke:#000000;stroke-width:0.5;" x="518.4" xlink:href="#ma4f294b3af" y="77.8786555005"/>
      </g>
     </g>
    </g>
    <g id="ytick_25">
     <g id="line2d_62">
      <g>
       <use style="stroke:#000000;stroke-width:0.5;" x="72.0" xlink:href="#mf0c55a9a47" y="68.7569759558"/>
      </g>
     </g>
     <g id="line2d_63">
      <g>
       <use style="stroke:#000000;stroke-width:0.5;" x="518.4" xlink:href="#ma4f294b3af" y="68.7569759558"/>
      </g>
     </g>
    </g>
    <g id="ytick_26">
     <g id="line2d_64">
      <g>
       <use style="stroke:#000000;stroke-width:0.5;" x="72.0" xlink:href="#mf0c55a9a47" y="61.0447057904"/>
      </g>
     </g>
     <g id="line2d_65">
      <g>
       <use style="stroke:#000000;stroke-width:0.5;" x="518.4" xlink:href="#ma4f294b3af" y="61.0447057904"/>
      </g>
     </g>
    </g>
    <g id="ytick_27">
     <g id="line2d_66">
      <g>
       <use style="stroke:#000000;stroke-width:0.5;" x="72.0" xlink:href="#mf0c55a9a47" y="54.3640334985"/>
      </g>
     </g>
     <g id="line2d_67">
      <g>
       <use style="stroke:#000000;stroke-width:0.5;" x="518.4" xlink:href="#ma4f294b3af" y="54.3640334985"/>
      </g>
     </g>
    </g>
    <g id="ytick_28">
     <g id="line2d_68">
      <g>
       <use style="stroke:#000000;stroke-width:0.5;" x="72.0" xlink:href="#mf0c55a9a47" y="48.4712629126"/>
      </g>
     </g>
     <g id="line2d_69">
      <g>
       <use style="stroke:#000000;stroke-width:0.5;" x="518.4" xlink:href="#ma4f294b3af" y="48.4712629126"/>
      </g>
     </g>
    </g>
    <g id="text_12">
     <!-- Intensity [counts/pixel] -->
     <defs>
      <path d="
M30.6094 48.3906
Q23.3906 48.3906 19.1875 42.75
Q14.9844 37.1094 14.9844 27.2969
Q14.9844 17.4844 19.1562 11.8438
Q23.3438 6.20312 30.6094 6.20312
Q37.7969 6.20312 41.9844 11.8594
Q46.1875 17.5312 46.1875 27.2969
Q46.1875 37.0156 41.9844 42.7031
Q37.7969 48.3906 30.6094 48.3906
M30.6094 56
Q42.3281 56 49.0156 48.375
Q55.7188 40.7656 55.7188 27.2969
Q55.7188 13.875 49.0156 6.21875
Q42.3281 -1.42188 30.6094 -1.42188
Q18.8438 -1.42188 12.1719 6.21875
Q5.51562 13.875 5.51562 27.2969
Q5.51562 40.7656 12.1719 48.375
Q18.8438 56 30.6094 56" id="DejaVuSans-6f"/>
      <path d="
M9.42188 75.9844
L18.4062 75.9844
L18.4062 0
L9.42188 0
z
" id="DejaVuSans-6c"/>
      <path d="
M48.7812 52.5938
L48.7812 44.1875
Q44.9688 46.2969 41.1406 47.3438
Q37.3125 48.3906 33.4062 48.3906
Q24.6562 48.3906 19.8125 42.8438
Q14.9844 37.3125 14.9844 27.2969
Q14.9844 17.2812 19.8125 11.7344
Q24.6562 6.20312 33.4062 6.20312
Q37.3125 6.20312 41.1406 7.25
Q44.9688 8.29688 48.7812 10.4062
L48.7812 2.09375
Q45.0156 0.34375 40.9844 -0.53125
Q36.9688 -1.42188 32.4219 -1.42188
Q20.0625 -1.42188 12.7812 6.34375
Q5.51562 14.1094 5.51562 27.2969
Q5.51562 40.6719 12.8594 48.3281
Q20.2188 56 33.0156 56
Q37.1562 56 41.1094 55.1406
Q45.0625 54.2969 48.7812 52.5938" id="DejaVuSans-63"/>
      <path d="
M32.1719 -5.07812
Q28.375 -14.8438 24.75 -17.8125
Q21.1406 -20.7969 15.0938 -20.7969
L7.90625 -20.7969
L7.90625 -13.2812
L13.1875 -13.2812
Q16.8906 -13.2812 18.9375 -11.5156
Q21 -9.76562 23.4844 -3.21875
L25.0938 0.875
L2.98438 54.6875
L12.5 54.6875
L29.5938 11.9219
L46.6875 54.6875
L56.2031 54.6875
z
" id="DejaVuSans-79"/>
      <path d="
M54.8906 54.6875
L35.1094 28.0781
L55.9062 0
L45.3125 0
L29.3906 21.4844
L13.4844 0
L2.875 0
L24.125 28.6094
L4.6875 54.6875
L15.2812 54.6875
L29.7812 35.2031
L44.2812 54.6875
z
" id="DejaVuSans-78"/>
      <path d="
M9.42188 54.6875
L18.4062 54.6875
L18.4062 0
L9.42188 0
z

M9.42188 75.9844
L18.4062 75.9844
L18.4062 64.5938
L9.42188 64.5938
z
" id="DejaVuSans-69"/>
      <path d="
M8.5 21.5781
L8.5 54.6875
L17.4844 54.6875
L17.4844 21.9219
Q17.4844 14.1562 20.5 10.2656
Q23.5312 6.39062 29.5938 6.39062
Q36.8594 6.39062 41.0781 11.0312
Q45.3125 15.6719 45.3125 23.6875
L45.3125 54.6875
L54.2969 54.6875
L54.2969 0
L45.3125 0
L45.3125 8.40625
Q42.0469 3.42188 37.7188 1
Q33.4062 -1.42188 27.6875 -1.42188
Q18.2656 -1.42188 13.375 4.4375
Q8.5 10.2969 8.5 21.5781
M31.1094 56
z
" id="DejaVuSans-75"/>
      <path d="
M18.3125 70.2188
L18.3125 54.6875
L36.8125 54.6875
L36.8125 47.7031
L18.3125 47.7031
L18.3125 18.0156
Q18.3125 11.3281 20.1406 9.42188
Q21.9688 7.51562 27.5938 7.51562
L36.8125 7.51562
L36.8125 0
L27.5938 0
Q17.1875 0 13.2344 3.875
Q9.28125 7.76562 9.28125 18.0156
L9.28125 47.7031
L2.6875 47.7031
L2.6875 54.6875
L9.28125 54.6875
L9.28125 70.2188
z
" id="DejaVuSans-74"/>
      <path d="
M56.2031 29.5938
L56.2031 25.2031
L14.8906 25.2031
Q15.4844 15.9219 20.4844 11.0625
Q25.4844 6.20312 34.4219 6.20312
Q39.5938 6.20312 44.4531 7.46875
Q49.3125 8.73438 54.1094 11.2812
L54.1094 2.78125
Q49.2656 0.734375 44.1875 -0.34375
Q39.1094 -1.42188 33.8906 -1.42188
Q20.7969 -1.42188 13.1562 6.1875
Q5.51562 13.8125 5.51562 26.8125
Q5.51562 40.2344 12.7656 48.1094
Q20.0156 56 32.3281 56
Q43.3594 56 49.7812 48.8906
Q56.2031 41.7969 56.2031 29.5938
M47.2188 32.2344
Q47.125 39.5938 43.0938 43.9844
Q39.0625 48.3906 32.4219 48.3906
Q24.9062 48.3906 20.3906 44.1406
Q15.875 39.8906 15.1875 32.1719
z
" id="DejaVuSans-65"/>
      <path d="
M9.8125 72.9062
L19.6719 72.9062
L19.6719 0
L9.8125 0
z
" id="DejaVuSans-49"/>
      <path d="
M44.2812 53.0781
L44.2812 44.5781
Q40.4844 46.5312 36.375 47.5
Q32.2812 48.4844 27.875 48.4844
Q21.1875 48.4844 17.8438 46.4375
Q14.5 44.3906 14.5 40.2812
Q14.5 37.1562 16.8906 35.375
Q19.2812 33.5938 26.5156 31.9844
L29.5938 31.2969
Q39.1562 29.25 43.1875 25.5156
Q47.2188 21.7812 47.2188 15.0938
Q47.2188 7.46875 41.1875 3.01562
Q35.1562 -1.42188 24.6094 -1.42188
Q20.2188 -1.42188 15.4531 -0.5625
Q10.6875 0.296875 5.42188 2
L5.42188 11.2812
Q10.4062 8.6875 15.2344 7.39062
Q20.0625 6.10938 24.8125 6.10938
Q31.1562 6.10938 34.5625 8.28125
Q37.9844 10.4531 37.9844 14.4062
Q37.9844 18.0625 35.5156 20.0156
Q33.0625 21.9688 24.7031 23.7812
L21.5781 24.5156
Q13.2344 26.2656 9.51562 29.9062
Q5.8125 33.5469 5.8125 39.8906
Q5.8125 47.6094 11.2812 51.7969
Q16.75 56 26.8125 56
Q31.7812 56 36.1719 55.2656
Q40.5781 54.5469 44.2812 53.0781" id="DejaVuSans-73"/>
      <path d="
M18.1094 8.20312
L18.1094 -20.7969
L9.07812 -20.7969
L9.07812 54.6875
L18.1094 54.6875
L18.1094 46.3906
Q20.9531 51.2656 25.2656 53.625
Q29.5938 56 35.5938 56
Q45.5625 56 51.7812 48.0938
Q58.0156 40.1875 58.0156 27.2969
Q58.0156 14.4062 51.7812 6.48438
Q45.5625 -1.42188 35.5938 -1.42188
Q29.5938 -1.42188 25.2656 0.953125
Q20.9531 3.32812 18.1094 8.20312
M48.6875 27.2969
Q48.6875 37.2031 44.6094 42.8438
Q40.5312 48.4844 33.4062 48.4844
Q26.2656 48.4844 22.1875 42.8438
Q18.1094 37.2031 18.1094 27.2969
Q18.1094 17.3906 22.1875 11.75
Q26.2656 6.10938 33.4062 6.10938
Q40.5312 6.10938 44.6094 11.75
Q48.6875 17.3906 48.6875 27.2969" id="DejaVuSans-70"/>
     </defs>
     <g transform="translate(38.544375 284.4609375)rotate(-90.0)scale(0.12 -0.12)">
      <use xlink:href="#DejaVuSans-49"/>
      <use x="29.4921875" xlink:href="#DejaVuSans-6e"/>
      <use x="92.87109375" xlink:href="#DejaVuSans-74"/>
      <use x="132.080078125" xlink:href="#DejaVuSans-65"/>
      <use x="193.603515625" xlink:href="#DejaVuSans-6e"/>
      <use x="256.982421875" xlink:href="#DejaVuSans-73"/>
      <use x="309.08203125" xlink:href="#DejaVuSans-69"/>
      <use x="336.865234375" xlink:href="#DejaVuSans-74"/>
      <use x="376.07421875" xlink:href="#DejaVuSans-79"/>
      <use x="435.25390625" xlink:href="#DejaVuSans-20"/>
      <use x="467.041015625" xlink:href="#DejaVuSans-5b"/>
      <use x="506.0546875" xlink:href="#DejaVuSans-63"/>
      <use x="561.03515625" xlink:href="#DejaVuSans-6f"/>
      <use x="622.216796875" xlink:href="#DejaVuSans-75"/>
      <use x="685.595703125" xlink:href="#DejaVuSans-6e"/>
      <use x="748.974609375" xlink:href="#DejaVuSans-74"/>
      <use x="788.18359375" xlink:href="#DejaVuSans-73"/>
      <use x="840.283203125" xlink:href="#DejaVuSans-2f"/>
      <use x="873.974609375" xlink:href="#DejaVuSans-70"/>
      <use x="937.451171875" xlink:href="#DejaVuSans-69"/>
      <use x="965.234375" xlink:href="#DejaVuSans-78"/>
      <use x="1021.2890625" xlink:href="#DejaVuSans-65"/>
      <use x="1082.8125" xlink:href="#DejaVuSans-6c"/>
      <use x="1110.59570312" xlink:href="#DejaVuSans-5d"/>
     </g>
    </g>
   </g>
   <g id="patch_3">
    <path d="
M72 43.2
L518.4 43.2" style="fill:none;stroke:#000000;"/>
   </g>
   <g id="patch_4">
    <path d="
M518.4 388.8
L518.4 43.2" style="fill:none;stroke:#000000;"/>
   </g>
   <g id="patch_5">
    <path d="
M72 388.8
L518.4 388.8" style="fill:none;stroke:#000000;"/>
   </g>
   <g id="patch_6">
    <path d="
M72 388.8
L72 43.2" style="fill:none;stroke:#000000;"/>
   </g>
   <g id="text_13">
    <!-- bad.svg -->
    <defs>
     <path d="
M10.6875 12.4062
L21 12.4062
L21 0
L10.6875 0
z
" id="DejaVuSans-2e"/>
     <path d="
M45.4062 27.9844
Q45.4062 37.75 41.375 43.1094
Q37.3594 48.4844 30.0781 48.4844
Q22.8594 48.4844 18.8281 43.1094
Q14.7969 37.75 14.7969 27.9844
Q14.7969 18.2656 18.8281 12.8906
Q22.8594 7.51562 30.0781 7.51562
Q37.3594 7.51562 41.375 12.8906
Q45.4062 18.2656 45.4062 27.9844
M54.3906 6.78125
Q54.3906 -7.17188 48.1875 -13.9844
Q42 -20.7969 29.2031 -20.7969
Q24.4688 -20.7969 20.2656 -20.0938
Q16.0625 -19.3906 12.1094 -17.9219
L12.1094 -9.1875
Q16.0625 -11.3281 19.9219 -12.3438
Q23.7812 -13.375 27.7812 -13.375
Q36.625 -13.375 41.0156 -8.76562
Q45.4062 -4.15625 45.4062 5.17188
L45.4062 9.625
Q42.625 4.78125 38.2812 2.39062
Q33.9375 0 27.875 0
Q17.8281 0 11.6719 7.65625
Q5.51562 15.3281 5.51562 27.9844
Q5.51562 40.6719 11.6719 48.3281
Q17.8281 56 27.875 56
Q33.9375 56 38.2812 53.6094
Q42.625 51.2188 45.4062 46.3906
L45.4062 54.6875
L54.3906 54.6875
z
" id="DejaVuSans-67"/>
     <path d="
M45.4062 46.3906
L45.4062 75.9844
L54.3906 75.9844
L54.3906 0
L45.4062 0
L45.4062 8.20312
Q42.5781 3.32812 38.25 0.953125
Q33.9375 -1.42188 27.875 -1.42188
Q17.9688 -1.42188 11.7344 6.48438
Q5.51562 14.4062 5.51562 27.2969
Q5.51562 40.1875 11.7344 48.0938
Q17.9688 56 27.875 56
Q33.9375 56 38.25 53.625
Q42.5781 51.2656 45.4062 46.3906
M14.7969 27.2969
Q14.7969 17.3906 18.875 11.75
Q22.9531 6.10938 30.0781 6.10938
Q37.2031 6.10938 41.2969 11.75
Q45.4062 17.3906 45.4062 27.2969
Q45.4062 37.2031 41.2969 42.8438
Q37.2031 48.4844 30.0781 48.4844
Q22.9531 48.4844 18.875 42.8438
Q14.7969 37.2031 14.7969 27.2969" id="DejaVuSans-64"/>
     <path d="
M2.98438 54.6875
L12.5 54.6875
L29.5938 8.79688
L46.6875 54.6875
L56.2031 54.6875
L35.6875 0
L23.4844 0
z
" id="DejaVuSans-76"/>
     <path d="
M48.6875 27.2969
Q48.6875 37.2031 44.6094 42.8438
Q40.5312 48.4844 33.4062 48.4844
Q26.2656 48.4844 22.1875 42.8438
Q18.1094 37.2031 18.1094 27.2969
Q18.1094 17.3906 22.1875 11.75
Q26.2656 6.10938 33.4062 6.10938
Q40.5312 6.10938 44.6094 11.75
Q48.6875 17.3906 48.6875 27.2969
M18.1094 46.3906
Q20.9531 51.2656 25.2656 53.625
Q29.5938 56 35.5938 56
Q45.5625 56 51.7812 48.0938
Q58.0156 40.1875 58.0156 27.2969
Q58.0156 14.4062 51.7812 6.48438
Q45.5625 -1.42188 35.5938 -1.42188
Q29.5938 -1.42188 25.2656 0.953125
Q20.9531 3.32812 18.1094 8.20312
L18.1094 0
L9.07812 0
L9.07812 75.9844
L18.1094 75.9844
z
" id="DejaVuSans-62"/>
     <path d="
M34.2812 27.4844
Q23.3906 27.4844 19.1875 25
Q14.9844 22.5156 14.9844 16.5
Q14.9844 11.7188 18.1406 8.90625
Q21.2969 6.10938 26.7031 6.10938
Q34.1875 6.10938 38.7031 11.4062
Q43.2188 16.7031 43.2188 25.4844
L43.2188 27.4844
z

M52.2031 31.2031
L52.2031 0
L43.2188 0
L43.2188 8.29688
Q40.1406 3.32812 35.5469 0.953125
Q30.9531 -1.42188 24.3125 -1.42188
Q15.9219 -1.42188 10.9531 3.29688
Q6 8.01562 6 15.9219
Q6 25.1406 12.1719 29.8281
Q18.3594 34.5156 30.6094 34.5156
L43.2188 34.5156
L43.2188 35.4062
Q43.2188 41.6094 39.1406 45
Q35.0625 48.3906 27.6875 48.3906
Q23 48.3906 18.5469 47.2656
Q14.1094 46.1406 10.0156 43.8906
L10.0156 52.2031
Q14.9375 54.1094 19.5781 55.0469
Q24.2188 56 28.6094 56
Q40.4844 56 46.3438 49.8438
Q52.2031 43.7031 52.2031 31.2031" id="DejaVuSans-61"/>
    </defs>
    <g transform="translate(268.083 38.2)scale(0.144 -0.144)">
     <use xlink:href="#DejaVuSans-62"/>
     <use x="63.4765625" xlink:href="#DejaVuSans-61"/>
     <use x="124.755859375" xlink:href="#DejaVuSans-64"/>
     <use x="188.232421875" xlink:href="#DejaVuSans-2e"/>
     <use x="220.01953125" xlink:href="#DejaVuSans-73"/>
     <use x="272.119140625" xlink:href="#DejaVuSans-76"/>
     <use x="331.298828125" xlink:href="#DejaVuSans-67"/>
    </g>
   </g>
  </g>
 </g>
 <defs>
  <clipPath id="p7ff5b81e1d">
   <rect height="345.6" width="446.4" x="72.0" y="43.2"/>
  </clipPath>
 </defs>
</svg>
