<?xml version="1.0" encoding="UTF-8" standalone="no"?>
<!DOCTYPE svg PUBLIC "-//W3C//DTD SVG 1.0//EN" "http://www.w3.org/TR/2001/PR-SVG-20010719/DTD/svg10.dtd">
<svg width="14cm" height="13cm" viewBox="-597 167 262 245" xmlns="http://www.w3.org/2000/svg" xmlns:xlink="http://www.w3.org/1999/xlink">
  <g>
    <rect style="fill: #ffffff" x="-595.136" y="267.454" width="76.4" height="54"/>
    <rect style="fill: none; fill-opacity:0; stroke-width: 2; stroke: #000000" x="-595.136" y="267.454" width="76.4" height="54"/>
    <text font-size="12.8" style="fill: #000000;text-anchor:middle;font-family:sans-serif;font-style:normal;font-weight:normal" x="-556.936" y="290.354">
      <tspan x="-556.936" y="290.354">Saxsdog</tspan>
      <tspan x="-556.936" y="306.354">Server</tspan>
    </text>
  </g>
  <g>
    <rect style="fill: #ffffff" x="-413.576" y="168.771" width="76.4" height="54"/>
    <rect style="fill: none; fill-opacity:0; stroke-width: 2; stroke: #000000" x="-413.576" y="168.771" width="76.4" height="54"/>
    <text font-size="12.8" style="fill: #000000;text-anchor:middle;font-family:sans-serif;font-style:normal;font-weight:normal" x="-375.376" y="191.671">
      <tspan x="-375.376" y="191.671">Saxsdog</tspan>
      <tspan x="-375.376" y="207.671">Feeder</tspan>
    </text>
  </g>
  <g>
    <rect style="fill: #ffffff" x="-411.752" y="357.016" width="76.4" height="54"/>
    <rect style="fill: none; fill-opacity:0; stroke-width: 2; stroke: #000000" x="-411.752" y="357.016" width="76.4" height="54"/>
    <text font-size="12.8" style="fill: #000000;text-anchor:middle;font-family:sans-serif;font-style:normal;font-weight:normal" x="-373.552" y="379.916">
      <tspan x="-373.552" y="379.916">Saxsdog</tspan>
      <tspan x="-373.552" y="395.916">Leash</tspan>
    </text>
  </g>
  <g>
    <line style="fill: none; fill-opacity:0; stroke-width: 2; stroke: #000000" x1="-517.741" y1="273.15" x2="-423.126" y2="221.724"/>
    <polygon style="fill: #000000" points="-416.536,218.142 -422.934,227.311 -423.126,221.724 -427.71,218.525 "/>
    <polygon style="fill: none; fill-opacity:0; stroke-width: 2; stroke: #000000" points="-416.536,218.142 -422.934,227.311 -423.126,221.724 -427.71,218.525 "/>
  </g>
  <g>
    <line style="fill: none; fill-opacity:0; stroke-width: 2; stroke: #000000" x1="-412.682" y1="364.905" x2="-509.057" y2="317.837"/>
    <polygon style="fill: #000000" points="-515.796,314.546 -504.617,314.442 -509.057,317.837 -509.005,323.427 "/>
    <polygon style="fill: none; fill-opacity:0; stroke-width: 2; stroke: #000000" points="-515.796,314.546 -504.617,314.442 -509.057,317.837 -509.005,323.427 "/>
  </g>
  <text font-size="12.8" style="fill: #000000;text-anchor:start;font-family:sans-serif;font-style:normal;font-weight:normal" x="-520.638" y="234.536">
    <tspan x="-520.638" y="234.536">subscribes</tspan>
  </text>
  <text font-size="12.8" style="fill: #000000;text-anchor:start;font-family:sans-serif;font-style:normal;font-weight:normal" x="-468.86" y="334.506">
    <tspan x="-468.86" y="334.506">requests</tspan>
  </text>
  <text font-size="12.7998" style="fill: #000000;text-anchor:start;font-family:sans-serif;font-style:normal;font-weight:normal" x="-457.919" y="223.36">
    <tspan x="-457.919" y="223.36"></tspan>
  </text>
</svg>
