<?xml version="1.0" encoding="UTF-8" standalone="no"?>
<!-- Created with Inkscape (http://www.inkscape.org/) -->

<svg
   xmlns:dc="http://purl.org/dc/elements/1.1/"
   xmlns:cc="http://creativecommons.org/ns#"
   xmlns:rdf="http://www.w3.org/1999/02/22-rdf-syntax-ns#"
   xmlns:svg="http://www.w3.org/2000/svg"
   xmlns="http://www.w3.org/2000/svg"
   version="1.1"
   width="141.25"
   height="52.5"
   id="svg3132"
   xml:space="preserve"><metadata
     id="metadata3138"><rdf:RDF><cc:Work
         rdf:about=""><dc:format>image/svg+xml</dc:format><dc:type
           rdf:resource="http://purl.org/dc/dcmitype/StillImage" /><dc:title></dc:title></cc:Work></rdf:RDF></metadata><defs
     id="defs3136"><clipPath
       id="clipPath3150"><path
         d="m 0,41.492 112.876,0 0,-41.432 L 0,0.06 0,41.492 z"
         id="path3152" /></clipPath><clipPath
       id="clipPath3166"><path
         d="m 0,41.492 112.876,0 0,-41.432 L 0,0.06 0,41.492 z"
         id="path3168" /></clipPath></defs><g
     transform="matrix(1.25,0,0,-1.25,0,52.5)"
     id="g3140"><path
       d="m 0,31.119 20.745,0 0,-20.746 -20.745,0 0,20.746 z"
       id="path3142"
       style="fill:#ed1a52;fill-opacity:1;fill-rule:nonzero;stroke:none" /><path
       d="m 22.819,31.119 20.746,0 0,-20.746 -20.746,0 0,20.746 z"
       id="path3144"
       style="fill:#ed1a52;fill-opacity:1;fill-rule:nonzero;stroke:none" /><g
       id="g3146"><g
         clip-path="url(#clipPath3150)"
         id="g3148"><path
           d="m 45.641,31.119 20.744,0 0,-20.746 -20.744,0 0,20.746 z"
           id="path3154"
           style="fill:#ed1a52;fill-opacity:1;fill-rule:nonzero;stroke:none" /><path
           d="m 10.372,20.746 20.747,0 0,-20.686 -20.747,0 0,20.686 z"
           id="path3156"
           style="fill:#ed1a52;fill-opacity:1;fill-rule:nonzero;stroke:none" /></g></g><path
       d="m 35.268,41.492 20.744,0 0,-20.746 -20.744,0 0,20.746 z"
       id="path3158"
       style="fill:#ed1a52;fill-opacity:1;fill-rule:nonzero;stroke:none" /><path
       d="m 75.104,27.791 -6.642,0 0,3.319 17.119,0 0,-3.319 -6.641,0 0,-17.374 -3.836,0 0,17.374"
       id="path3160"
       style="fill:#080b0a;fill-opacity:1;fill-rule:nonzero;stroke:none" /><g
       id="g3162"><g
         clip-path="url(#clipPath3166)"
         id="g3164"><path
           d="m 104.828,18.021 c 0,-1.247 -0.224,-2.372 -0.672,-3.375 -0.448,-1.003 -1.059,-1.856 -1.835,-2.556 -0.775,-0.703 -1.69,-1.242 -2.751,-1.621 -1.059,-0.381 -2.211,-0.571 -3.455,-0.571 -1.242,0 -2.393,0.19 -3.454,0.571 -1.06,0.379 -1.983,0.918 -2.766,1.621 -0.786,0.7 -1.398,1.553 -1.834,2.556 -0.44,1.003 -0.658,2.128 -0.658,3.375 l 0,13.089 3.838,0 0,-12.957 c 0,-0.505 0.08,-1.036 0.244,-1.591 0.163,-0.554 0.434,-1.065 0.813,-1.533 0.378,-0.466 0.879,-0.851 1.503,-1.152 0.622,-0.301 1.393,-0.452 2.314,-0.452 0.92,0 1.693,0.151 2.316,0.452 0.623,0.301 1.125,0.686 1.503,1.152 0.378,0.468 0.648,0.979 0.812,1.533 0.163,0.555 0.245,1.086 0.245,1.591 l 0,12.957 3.837,0 0,-13.089"
           id="path3170"
           style="fill:#080b0a;fill-opacity:1;fill-rule:nonzero;stroke:none" /><path
           d="m 83.257,7.566 c -0.761,0.329 -1.746,0.486 -2.534,0.486 -2.293,0 -3.561,-1.443 -3.561,-3.318 0,-1.861 1.239,-3.263 3.335,-3.263 0.535,0 0.959,0.052 1.296,0.131 l 0,2.385 -2.083,0 0,1.443 3.969,0 0,-4.93 C 82.638,0.238 81.553,0.028 80.497,0.028 c -3.181,0 -5.391,1.482 -5.391,4.576 0,3.133 2.056,4.89 5.391,4.89 1.141,0 2.041,-0.144 2.886,-0.381 L 83.257,7.566"
           id="path3172"
           style="fill:#080b0a;fill-opacity:1;fill-rule:nonzero;stroke:none" /><path
           d="m 85.62,6.938 1.676,0 0,-1.535 0.028,0 c 0.084,0.63 0.858,1.692 1.984,1.692 0.183,0 0.381,0 0.577,-0.053 l 0,-1.77 c -0.168,0.091 -0.506,0.144 -0.845,0.144 -1.533,0 -1.533,-1.783 -1.533,-2.752 l 0,-2.478 -1.887,0 0,6.752"
           id="path3174"
           style="fill:#080b0a;fill-opacity:1;fill-rule:nonzero;stroke:none" /><path
           d="m 93.587,1.312 c 0.577,0 1.027,0.237 1.322,0.604 0.31,0.38 0.395,0.865 0.395,1.39 l -0.817,0 c -0.843,0 -2.096,-0.131 -2.096,-1.167 0,-0.576 0.52,-0.827 1.196,-0.827 z m -2.211,5.271 c 0.731,0.315 1.718,0.512 2.52,0.512 2.209,0 3.125,-0.853 3.125,-2.846 l 0,-0.865 c 0,-0.681 0.014,-1.193 0.028,-1.691 0.014,-0.511 0.042,-0.983 0.085,-1.507 l -1.661,0 c -0.071,0.353 -0.071,0.799 -0.084,1.009 l -0.03,0 c -0.435,-0.747 -1.38,-1.167 -2.237,-1.167 -1.28,0 -2.534,0.721 -2.534,2.006 0,1.009 0.52,1.599 1.239,1.927 0.719,0.328 1.647,0.394 2.436,0.394 l 1.041,0 c 0,1.087 -0.521,1.455 -1.633,1.455 -0.802,0 -1.605,-0.288 -2.237,-0.734 l -0.058,1.507"
           id="path3176"
           style="fill:#080b0a;fill-opacity:1;fill-rule:nonzero;stroke:none" /><path
           d="m 98.569,6.938 5.743,0 0,-1.443 -3.605,-3.946 3.731,0 0,-1.363 -6.024,0 0,1.429 3.673,3.959 -3.518,0 0,1.364"
           id="path3178"
           style="fill:#080b0a;fill-opacity:1;fill-rule:nonzero;stroke:none" /><path
           d="m 105.965,6.911 6.911,0 0,-6.851 -6.911,0 0,6.851 z"
           id="path3180"
           style="fill:#ed1a52;fill-opacity:1;fill-rule:nonzero;stroke:none" /></g></g></g></svg>